<svg xmlns="http://www.w3.org/2000/svg" viewBox="0 0 217.82 42.41"><defs><style>.cls-1{fill:#ea604d;}</style></defs><title>2-403 OCC</title><g id="Capa_2" data-name="Capa 2"><g id="Capa_1-2" data-name="Capa 1"><rect class="cls-1" y="39.4" width="213.97" height="3" rx="1.5" ry="1.5"/><circle class="cls-1" cx="23.61" cy="22.39" r="9.19"/><circle class="cls-1" cx="56.19" cy="22.39" r="9.19"/><circle class="cls-1" cx="88.81" cy="22.39" r="9.19"/><path class="cls-1" d="M150.26,33.88V29.35h-6.44V.65H140L119.92,29.92v3.5l19.18.08v6.86h4.72V33.88ZM139.1,29.35H125.36L139.1,9.76Z"/><path class="cls-1" d="M184,20.81C184,9.32,177.47,0,169.43,0s-14.55,9.32-14.55,20.81c0,9,4,16.69,9.6,19.58h9.88C180,37.52,184,29.84,184,20.81Zm-25.68.65c0-9.29,5-16.83,11.13-16.83s11.13,7.54,11.13,16.83-5,16.83-11.13,16.83S158.3,30.76,158.3,21.46Z"/><path class="cls-1" d="M210.39,20.87a9.79,9.79,0,0,0,4.88-4.27,11.11,11.11,0,0,0-2.38-13.78C209.43-.32,202.63-.37,198,1a17.77,17.77,0,0,0-7.56,4.33l2.26,4a15.15,15.15,0,0,1,5.61-3.66c4.31-1.69,10.26-2.49,12.68,2.63,1.71,3.6.42,7.89-2.68,9.57-4,2.16-9.88,1.28-9.88,1.28l.12,4.45s5.61-.95,9.7.43c3.17,1.07,4.67,3.58,4.57,7.5-.18,7.5-8.72,8.18-14.47,6.15a23.22,23.22,0,0,1-6.63-3.89l-2.07,3.9a16.36,16.36,0,0,0,8.17,3.87c6.26,1.06,15-.14,16.77-2.37,5.25-6.53,3.27-12.29.49-15.4A9.53,9.53,0,0,0,210.39,20.87Z"/></g></g></svg>