<svg xmlns="http://www.w3.org/2000/svg" viewBox="0 0 534.75 192.66"><defs><style>.cls-1{fill:#fff;}</style></defs><title>5 - Cultura Organizacional</title><g id="Capa_2" data-name="Capa 2"><g id="Capa_1-2" data-name="Capa 1"><path class="cls-1" d="M100.15,180c0-3,0-5.89,0-8.84,0-3.18-.25-6.35-.51-9.51,0,0,0-.1,0-.14-.12-2.48-.23-4.95-.36-7.42s-.28-5-.42-7.42a3.47,3.47,0,0,1,0-.56.69.69,0,0,1,.59-.68c.42-.07.83-.18,1.25-.21a46.8,46.8,0,0,0,4.86-.63,5,5,0,0,1,.56-.06c.52,0,.69.06.84.53s.18.72.26,1.09c.58,2.65,1.17,5.29,1.73,8s1.06,5.31,1.62,8c.72,3.38,1.38,6.78,2.23,10.13,1.43,5.62,3,11.21,4.49,16.81,0,.18.1.36.14.54.17.77.06,1-.75,1.19-1.28.28-2.57.51-3.86.75-2.85.52-5.73.82-8.62,1.1a24,24,0,0,1-2.94.07c-.76,0-1-.24-1-1,0-.42,0-.84,0-1.26V180Z"/><path class="cls-1" d="M100.17,13.15c0-4.32,0-7.82,0-11.33,0-1.76.1-1.87,1.81-1.81,1.45.06,2.9.17,4.34.33,3,.34,6,.76,9,1.37.55.12,1.1.23,1.64.38a.62.62,0,0,1,.47.76,10.69,10.69,0,0,1-.31,1.36c-1.49,5.56-3,11.1-4.46,16.68-.82,3.21-1.41,6.49-2.1,9.73q-1.72,8.1-3.44,16.2c0,.23-.11.46-.17.68-.2.63-.35.75-1,.63a54.85,54.85,0,0,0-5.7-.74,2,2,0,0,1-.42-.07c-.93-.2-1-.36-1-1.35s.11-1.87.15-2.8c.12-2.48.16-5,.35-7.43.26-3.35.33-6.72.58-10.07C100.26,21.22,100.06,16.78,100.17,13.15Z"/><path class="cls-1" d="M177.73,148.25a4.34,4.34,0,0,1-.35.66c-1.33,2-2.67,3.94-4.12,5.84s-3.16,3.93-4.8,5.85l-.18.21c-.88,1-1.07,1-2,.07q-5.86-5.85-11.7-11.7c-2.27-2.29-4.67-4.45-7.1-6.57-1.12-1-2.18-2-3.31-3-2.39-2.09-4.71-4.26-7.06-6.4l-3.22-2.91c-.18-.16-.36-.31-.52-.48-.38-.41-.39-.62,0-1.1.22-.3.48-.57.71-.87l3-3.9c.14-.19.28-.38.43-.55a.53.53,0,0,1,.63-.15,3.33,3.33,0,0,1,.61.35c3.29,2.14,6.59,4.27,9.87,6.42,4.49,2.95,8.95,6,13.56,8.72s9.22,5.33,13.84,8c.52.3,1,.63,1.55.95C177.68,147.78,177.73,148,177.73,148.25Z"/><path class="cls-1" d="M129.43,133a1.27,1.27,0,0,1,.32.15c.24.22.48.45.7.69.78.86,1.59,1.71,2.35,2.6,1.72,2,3.61,3.91,5.27,6,.9,1.13,2,2.1,2.92,3.22,1.11,1.32,2.33,2.55,3.48,3.84,5.05,5.66,10.62,10.8,15.91,16.22.36.37.71.74,1,1.14a.59.59,0,0,1,0,.77,3.35,3.35,0,0,1-.47.52,100.32,100.32,0,0,1-11.66,9l-.24.15c-1,.58-1.19.54-1.77-.45-1.4-2.38-2.79-4.76-4.15-7.16-3-5.33-6.13-10.6-9.52-15.71s-6.53-10-9.79-15.05c-.12-.19-.26-.39-.37-.59-.29-.52-.25-.72.19-1.09a1.84,1.84,0,0,1,.22-.17,47,47,0,0,0,4.89-3.76A.94.94,0,0,1,129.43,133Z"/><path class="cls-1" d="M143.69,111.56c.19,0,.47.1.73.18,3.21,1,6.46,1.92,9.62,3.08,3.82,1.39,7.73,2.52,11.58,3.81,3.37,1.13,6.79,2.11,10.23,3,3.8,1,7.59,2,11.38,3l.27.07c.95.29,1.05.45.74,1.42a87.47,87.47,0,0,1-3.12,8.26c-.79,1.79-1.66,3.55-2.5,5.33-.08.17-.17.34-.26.5-.48.89-.63.94-1.51.43-4.21-2.43-8.41-4.88-12.63-7.29-2.28-1.29-4.56-2.58-6.89-3.77-6.57-3.38-13.16-6.71-19.74-10.05-1.45-.74-1.49-.8-.82-2.23s1.37-3.17,2-4.79a7.45,7.45,0,0,1,.37-.75C143.23,111.63,143.41,111.57,143.69,111.56Z"/><path class="cls-1" d="M141,181.55a.61.61,0,0,1-.28.54c-.28.17-.56.34-.85.49A104.9,104.9,0,0,1,126.66,188c-1.47.5-1.63.41-2-1.12q-1.73-6.43-3.43-12.87c-.72-2.71-1.48-5.41-2.36-8.08q-3.49-10.65-6.94-21.34c-.48-1.48-.48-1.5,1-2,1.71-.63,3.4-1.32,5-2.11l.38-.17a.67.67,0,0,1,.94.35c.15.24.27.49.4.74,1.56,3,3.22,6,4.65,9.12,1.6,3.44,3.51,6.72,5.13,10.14,1.88,4,4.19,7.72,6.39,11.53,1.54,2.67,3.09,5.34,4.62,8A3.29,3.29,0,0,1,141,181.55Z"/><path class="cls-1" d="M69.59,54.85a1.28,1.28,0,0,1-.18.37,3.78,3.78,0,0,1-.54.43c-1.54,1.07-3,2.22-4.45,3.41-.22.18-.44.35-.67.51a.51.51,0,0,1-.65,0,3.68,3.68,0,0,1-.4-.39c-2.42-2.67-4.85-5.32-7.26-8s-4.89-5.4-7.28-8.15c-1.51-1.73-3.1-3.36-4.73-5q-5.61-5.58-11.2-11.2c-.3-.3-.59-.61-.86-.93a.56.56,0,0,1,0-.77,17.43,17.43,0,0,1,1.3-1.28c2.68-2.26,5.37-4.49,8.27-6.48.85-.58,1.69-1.18,2.54-1.75a7.12,7.12,0,0,1,.85-.48.58.58,0,0,1,.85.25c.39.63.76,1.28,1.14,1.93l8.15,14.07c.49.85,1,1.68,1.54,2.51,2.13,3.3,4.22,6.63,6.42,9.87s4.24,6.5,6.37,9.74c.21.31.41.63.61,1A2.87,2.87,0,0,1,69.59,54.85Z"/><path class="cls-1" d="M52.48,118.49a.57.57,0,0,1-.28.51c-.28.17-.56.33-.85.48L41,124.79c-4.33,2.22-8.68,4.4-13,6.67-2.11,1.11-4.15,2.36-6.21,3.55l-9.72,5.62-.25.14c-.72.37-.9.31-1.35-.42-.17-.28-.32-.57-.46-.86a106,106,0,0,1-5.19-12.58c-.6-1.84-.57-1.89,1.29-2.39l16.54-4.42.67-.2c4.5-1.44,9-2.82,13.49-4.36,3.58-1.23,7.22-2.31,10.8-3.55.35-.12.71-.24,1.07-.33.78-.21,1-.14,1.27.65.76,2,1.52,3.93,2.43,5.82A1.66,1.66,0,0,1,52.48,118.49Z"/><path class="cls-1" d="M81.21,49c0,.37-.07.54-.24.64a3,3,0,0,1-.63.29,46,46,0,0,0-4.93,2c-.3.13-.6.26-.91.37a.61.61,0,0,1-.84-.29c-.19-.31-.36-.65-.53-1q-4.55-9-9.09-17.9c-2.28-4.46-4.75-8.81-7.29-13.12q-2.3-3.94-4.57-7.89l-.2-.37c-.37-.73-.32-1,.43-1.33,1.81-.89,3.62-1.77,5.46-2.58C60.52,6.68,63.25,5.68,66,4.73a8.39,8.39,0,0,1,1.22-.31.54.54,0,0,1,.65.4c.16.49.32,1,.45,1.48,1.2,4.47,2.37,9,3.59,13.42.49,1.81,1,3.6,1.58,5.38,1.17,3.7,2.38,7.4,3.58,11.09Q79,42.06,80.89,47.93C81,48.33,81.13,48.73,81.21,49Z"/><path class="cls-1" d="M81.22,143.6c-.08.28-.19.69-.32,1.09q-2.36,7.2-4.7,14.4c-1.09,3.34-2.19,6.67-3.23,10-.51,1.6-.9,3.24-1.34,4.87q-1.71,6.36-3.41,12.74c-.11.4-.22.81-.37,1.2a.57.57,0,0,1-.68.37,4.23,4.23,0,0,1-.68-.17,87.61,87.61,0,0,1-8.4-3.16c-1.83-.82-3.65-1.67-5.44-2.59-1.07-.55-1.1-.68-.5-1.7,2.76-4.78,5.55-9.54,8.29-14.33,1.07-1.87,2-3.79,3-5.7,1.41-2.69,2.8-5.4,4.18-8.1.42-.84.76-1.71,1.18-2.55,1.48-2.92,3-5.82,4.48-8.74,0-.08.08-.17.13-.25.46-.84.57-.88,1.42-.51,1.25.53,2.49,1.08,3.74,1.6.69.28,1.41.52,2.11.78A.71.71,0,0,1,81.22,143.6Z"/><path class="cls-1" d="M25.61,31.24a1.49,1.49,0,0,1,.42.19c.36.3.7.62,1,1L39.27,44.59c1.95,1.95,4,3.76,6.1,5.59,1,.86,2,1.74,2.93,2.62l6.36,5.71,4.19,3.73c.18.16.36.31.52.47.5.5.51.66.12,1.2a4.7,4.7,0,0,1-.34.44,53,53,0,0,0-3.5,4.56c-.44.63-.63.66-1.28.32-.25-.14-.48-.29-.72-.44L41.89,61.14c-3.26-2.11-6.5-4.25-9.79-6.31-2.06-1.29-4.2-2.46-6.31-3.67l-9.85-5.67a5.33,5.33,0,0,1-.69-.48.5.5,0,0,1-.13-.63,4.65,4.65,0,0,1,.36-.61,90.75,90.75,0,0,1,7.48-10c.61-.71,1.23-1.41,1.85-2.11A1.21,1.21,0,0,1,25.61,31.24Z"/><path class="cls-1" d="M89.82,192.65a29.23,29.23,0,0,1-4-.36A82.89,82.89,0,0,1,77.38,191l-1-.21c-1.12-.27-1.21-.4-.91-1.56,1-3.67,1.9-7.34,2.92-11q2-7,3.43-14.18c1.23-6,2.5-12,3.76-18,.36-1.72.4-1.72,2.14-1.41a30,30,0,0,0,3.89.52,9.75,9.75,0,0,1,1.52.21c.62.13.78.31.8,1a11.76,11.76,0,0,1-.06,2c-.15,1.07-.14,2.14-.19,3.21-.13,2.71-.22,5.42-.5,8.12,0,.37,0,.74-.06,1.12,0,1.49-.17,3-.21,4.48-.08,2.89-.4,5.78-.38,8.68,0,5.56,0,11.13,0,16.7a10.62,10.62,0,0,1,0,1.26.75.75,0,0,1-.83.76C91.14,192.67,90.58,192.65,89.82,192.65Z"/><path class="cls-1" d="M141,11a1.27,1.27,0,0,1-.26.83l-2.86,5c-2.37,4.14-4.83,8.24-7.09,12.43-2.12,3.91-4,7.93-6,11.89C123,44.58,121.27,48,119.52,51.4a2.64,2.64,0,0,1-.2.37c-.41.69-.6.77-1.36.41a48.73,48.73,0,0,0-5.45-2.24,2.62,2.62,0,0,1-.52-.22.65.65,0,0,1-.36-.82,7.36,7.36,0,0,1,.24-.8c1-3.07,2-6.15,3-9.21,1.08-3.29,2.16-6.58,3.28-9.85,1.41-4.17,2.55-8.42,3.68-12.67q1.36-5.15,2.75-10.3c.06-.22.13-.45.2-.67.34-1.11.46-1.18,1.61-.81A86.16,86.16,0,0,1,135.14,8c1.62.72,3.22,1.5,4.82,2.27a6,6,0,0,1,.84.5C140.91,10.8,141,11,141,11Z"/><path class="cls-1" d="M59.8,129.21a1.48,1.48,0,0,1-.17.43,9,9,0,0,1-.69.69L53.73,135q-2,1.83-4.09,3.63c-1.13,1-2.17,2.06-3.32,3-1.39,1.17-2.69,2.46-4,3.68-5.37,4.81-10.27,10.1-15.41,15.14-1.56,1.53-1.37,1.32-2.63-.07a92.68,92.68,0,0,1-6.55-8.23c-.66-.91-1.29-1.84-1.92-2.76a6.59,6.59,0,0,1-.44-.72c-.32-.61-.26-.92.34-1.29,1.2-.72,2.42-1.41,3.63-2.12,4.13-2.39,8.28-4.75,12.38-7.17,2-1.17,3.88-2.45,5.8-3.7,2.66-1.73,5.31-3.49,8-5.23q4.29-2.79,8.6-5.56c1-.66,1.09-.64,1.78.35,1.09,1.58,2.29,3.07,3.51,4.55A7.25,7.25,0,0,1,59.8,129.21Z"/><path class="cls-1" d="M92.58,11.47v7.3a25,25,0,0,0,.22,4.33,1.32,1.32,0,0,1,0,.28c-.06,2.67.34,5.32.33,8,0,.94.15,1.87.21,2.8.15,2.09.25,4.19.34,6.3.06,1.35,0,2.7.22,4a11.67,11.67,0,0,1,0,2,.75.75,0,0,1-.68.77,6.86,6.86,0,0,1-1.1.2,36.08,36.08,0,0,0-4.86.62c-.23,0-.46.07-.7.09a.65.65,0,0,1-.72-.52c-.13-.45-.24-.9-.34-1.36C83.83,38.13,82.13,30,80.38,21.85c-.38-1.78-.91-3.53-1.38-5.29q-1.71-6.37-3.44-12.73c-.06-.23-.12-.45-.17-.68-.15-.79,0-1,.79-1.17,2.06-.39,4.13-.81,6.21-1.1C84.79.54,87.21.3,89.63.06a14.7,14.7,0,0,1,2.1,0,.74.74,0,0,1,.81.78c0,.42,0,.84,0,1.26Z"/><path class="cls-1" d="M143.79,81.07a.68.68,0,0,1-.73-.31,7.43,7.43,0,0,1-.33-.77c-.65-1.66-1.27-3.32-2.08-4.91a3.27,3.27,0,0,1-.22-.51.75.75,0,0,1,.38-1.07c.35-.22.73-.4,1.11-.59,3.67-1.84,7.36-3.67,11-5.53,3.83-1.95,7.67-3.89,11.47-5.9,2.07-1.09,4.07-2.31,6.09-3.48l10-5.75c1.31-.75,1.45-.71,2.13.62a93.94,93.94,0,0,1,5.54,13.47c0,.14.09.27.13.4.2.78.1,1-.71,1.22l-6.36,1.72-11.1,3c-.45.12-.9.24-1.35.39L148.2,79.71l-3.75,1.18Z"/><path class="cls-1" d="M129.41,59.66a1.15,1.15,0,0,1-.78-.39c-.94-.76-1.88-1.53-2.84-2.28-.51-.41-1.06-.77-1.6-1.14-1.14-.81-1.16-.86-.43-2,.83-1.3,1.66-2.59,2.51-3.88q3.42-5.22,6.86-10.43c3.09-4.69,6.06-9.44,8.78-14.35,1.68-3,3.46-6,5.19-9a8.92,8.92,0,0,1,.54-.82c.28-.38.53-.42,1-.19l.36.22a91.59,91.59,0,0,1,11.77,9.06c1.08,1,1.08,1,0,2.08q-5.65,5.67-11.31,11.31c-1.93,1.91-3.7,4-5.5,6-1.06,1.19-2.14,2.35-3.2,3.53l-2.63,2.91-7.71,8.54a9,9,0,0,1-.7.68A1.12,1.12,0,0,1,129.41,59.66Z"/><path class="cls-1" d="M11.1,51.81a1.34,1.34,0,0,1,.83.24c1,.54,2,1.09,2.94,1.65L28.1,61.37c.41.23.83.44,1.25.65,3.66,1.88,7.28,3.84,11,5.6s7.16,3.68,10.78,5.44c1.63.79,1.61.73.83,2.37-.55,1.19-1,2.42-1.5,3.63-.21.52-.4,1-.63,1.56a.69.69,0,0,1-.92.43c-.31-.07-.63-.18-.94-.28L36.5,77c-4.1-1.33-8.18-2.69-12.29-4-2.05-.64-4.15-1.13-6.23-1.69L5.92,68.14c-1.61-.43-1.71-.57-1.18-2.12a94,94,0,0,1,5.53-13.19,6.43,6.43,0,0,1,.52-.83C10.86,51.9,11,51.86,11.1,51.81Z"/><path class="cls-1" d="M148,98.81c2.74.36,5.51.22,8.26.48,2.37.23,4.76.26,7.14.4l8,.47c.66,0,1.31.06,2,.06h17.4c.23,0,.47,0,.7,0,1.26,0,1.45.22,1.39,1.52s-.15,2.61-.3,3.92a104.2,104.2,0,0,1-1.58,10.39c-.33,1.51-.37,1.56-1.85,1.17-4.12-1.09-8.24-2.16-12.34-3.31s-8.26-2-12.42-2.94l-16.19-3.47c-.87-.19-1.74-.35-2.61-.56s-1-.43-.88-1.27c.31-1.94.61-3.88.74-5.85.06-.79.29-1,1-1C146.93,98.79,147.44,98.81,148,98.81Z"/><path class="cls-1" d="M44.66,177.7a6,6,0,0,1-.76-.38c-1.29-.86-2.59-1.69-3.84-2.6a87.84,87.84,0,0,1-8.18-6.61c-.13-.13-.29-.24-.42-.37a.58.58,0,0,1,0-.87c.28-.32.57-.62.87-.92,3.94-3.94,7.89-7.85,11.8-11.82,1.47-1.49,2.84-3.1,4.25-4.66,1-1.07,1.93-2.16,2.9-3.23l8.54-9.48c1-1.15,2-2.31,3.09-3.45.38-.43.61-.44,1.08-.09a13.13,13.13,0,0,1,1.1.87,31.29,31.29,0,0,0,2.89,2.23c.46.32.92.65,1.36,1s.35.48.14.86c-.11.2-.25.4-.37.59L62.42,149c-2.47,3.81-5,7.59-7.4,11.43-1.27,2-2.41,4.11-3.6,6.17-1.92,3.33-3.82,6.66-5.74,10a5.5,5.5,0,0,1-.55.81A2.13,2.13,0,0,1,44.66,177.7Z"/><path class="cls-1" d="M11.11,100.23h8.56a12.64,12.64,0,0,0,2.38-.16,2.06,2.06,0,0,1,.55-.06c2.39,0,4.77-.23,7.15-.34,2.56-.12,5.12-.34,7.69-.48,2.89-.15,5.79-.26,8.69-.38a3,3,0,0,1,.42,0,.78.78,0,0,1,.82.78c.09.51.15,1,.2,1.53.13,1.44.32,2.88.59,4.3a2.75,2.75,0,0,1,0,.7.68.68,0,0,1-.46.64,5.83,5.83,0,0,1-.81.25l-15.64,3.34c-5.76,1.22-11.52,2.45-17.19,4.09-3.19.92-6.42,1.72-9.62,2.58l-1,.23c-1,.23-1.33.08-1.56-1-.34-1.65-.66-3.3-.91-5a69.33,69.33,0,0,1-.91-8.64c0-.51-.12-1-.14-1.54a.71.71,0,0,1,.72-.84c.42,0,.85,0,1.27,0h9.12Z"/><path class="cls-1" d="M177.74,44.7a.84.84,0,0,1-.44.53l-2.06,1.2c-4.54,2.61-9.08,5.21-13.61,7.84-1.17.67-2.3,1.43-3.44,2.17l-10.94,7.1Q143,66.29,138.77,69c-1,.67-1.07.66-1.77-.33-1.14-1.6-2.35-3.15-3.6-4.66-.48-.58-.46-.78.11-1.3,1.75-1.61,3.52-3.21,5.28-4.81.07-.07.15-.12.22-.18l6.69-6c1.36-1.22,2.73-2.42,4.08-3.64s2.8-2.48,4.12-3.8c4.06-4,8.07-8,12.11-12.08,1.27-1.27,1.29-1.29,2.5,0a78.06,78.06,0,0,1,5.91,7.29c1,1.43,2,2.92,3,4.38A1.2,1.2,0,0,1,177.74,44.7Z"/><path class="cls-1" d="M44.68,93.82c-2.7-.36-5.42-.14-8.12-.48a2.4,2.4,0,0,0-.28,0c-2.89-.12-5.79-.22-8.68-.36s-5.6-.31-8.4-.46c-.56,0-1.12,0-1.68,0H2.09c-.42,0-.85,0-1.27,0-.59,0-.85-.32-.82-.91.07-1.3.11-2.61.26-3.91.31-2.6.68-5.19,1.05-7.78.15-1.06.38-2.12.6-3.17a4.63,4.63,0,0,1,.29-.94.6.6,0,0,1,.68-.38,10.83,10.83,0,0,1,1.23.27c4.25,1.13,8.5,2.23,12.73,3.41,3.75,1,7.54,1.88,11.34,2.67,2.38.49,4.75,1,7.13,1.52l11.53,2.4.28.06c1,.26,1.24.52,1,1.59-.34,1.75-.48,3.52-.72,5.28,0,.18,0,.37-.07.56-.1.51-.29.7-.86.73S45.28,93.82,44.68,93.82Z"/><path class="cls-1" d="M182.52,92.45c-1.31,0-2.62,0-3.93,0-3.47-.12-6.92.18-10.37.31-1.82.08-3.66.07-5.46.27-2.52.28-5,.19-7.56.44s-5.22.28-7.84.36c-1.71.06-2,.17-2.07-1.88-.09-1.49-.38-3-.58-4.45,0-.28-.11-.55-.14-.83a.74.74,0,0,1,.57-.85,5.61,5.61,0,0,1,.67-.19c3.11-.66,6.21-1.37,9.33-2,5.69-1.11,11.38-2.28,17-3.66,5.35-1.31,10.67-2.82,16-4.24.54-.14,1.08-.29,1.63-.4a.7.7,0,0,1,.88.51,3,3,0,0,1,.19.67c.46,2.15.82,4.32,1.14,6.49.37,2.41.5,4.84.77,7.25a7.28,7.28,0,0,1,0,1.4.71.71,0,0,1-.7.74c-.42,0-.84,0-1.26,0Z"/><path class="cls-1" d="M346.36,87.47V75.83a10.85,10.85,0,0,1,.08-1.4.64.64,0,0,1,.56-.55,8.18,8.18,0,0,1,1-.06h7.3a13.2,13.2,0,0,1,2.5.28c4.38.88,6.37,4.58,5.6,8.59a6.57,6.57,0,0,1-4.76,5.21,13.23,13.23,0,0,1-3.59.6c-.39,0-.51.26-.28.55.93,1.23,1.87,2.46,2.82,3.67,1.77,2.3,3.55,4.58,5.33,6.87.14.19.28.37.41.57.4.58.28.9-.38.91-2.61.06-2.44.17-3.9-1.73-2.47-3.23-5-6.44-7.46-9.65a8.49,8.49,0,0,0-.75-.84,1.08,1.08,0,0,0-.89-.31.57.57,0,0,0-.6.48,8.79,8.79,0,0,0-.08,1.26V98.7c0,.33,0,.66,0,1,0,1.23-.25,1.44-1.51,1.42a3.44,3.44,0,0,1-.56,0,.8.8,0,0,1-.78-.84c0-.42,0-.84,0-1.26Zm2.9-6.39h0c0,1,0,2,0,2.94a7.93,7.93,0,0,0,.06,1,.65.65,0,0,0,.55.56,2.6,2.6,0,0,0,.56.06c1.68,0,3.36,0,5,0A6,6,0,0,0,358,85a4.32,4.32,0,0,0,1.25-6.86A4.56,4.56,0,0,0,356,76.74c-1.91-.07-3.83-.06-5.74,0-.79,0-1,.23-1,1C349.24,78.84,349.26,80,349.26,81.08Z"/><path class="cls-1" d="M245.82,101.7a14.41,14.41,0,0,1-7.38-1.88,13.35,13.35,0,0,1-6.58-9,15.76,15.76,0,0,1-.14-6.27,14,14,0,0,1,12.11-11.25,16.58,16.58,0,0,1,7.87.77,13.78,13.78,0,0,1,5.63,3.82,2.94,2.94,0,0,1,.35.44.75.75,0,0,1-.11,1.12,8.3,8.3,0,0,1-.64.54c-.92.68-1,.66-1.88-.17a17.76,17.76,0,0,0-1.76-1.6,10.9,10.9,0,0,0-6-2.09,13.24,13.24,0,0,0-5.64.79,11.13,11.13,0,0,0-7,10,11.61,11.61,0,0,0,1.24,6A11,11,0,0,0,243,98.37a12.19,12.19,0,0,0,10-1.41A25.26,25.26,0,0,0,255,95.33c.22-.17.42-.37.65-.53a.51.51,0,0,1,.53-.08A5,5,0,0,1,257.89,96c.17.2.07.45-.1.64a14.84,14.84,0,0,1-2.44,2.31A15.29,15.29,0,0,1,245.82,101.7Z"/><path class="cls-1" d="M391.28,101.09h-.56a1.27,1.27,0,0,1-1.23-.78c-.6-1.26-1.22-2.52-1.83-3.78s-1.11-2.27-1.62-3.42a1.48,1.48,0,0,0-1.54-1c-2.34,0-4.68,0-7,0-.79,0-1.59,0-2.38,0a1.4,1.4,0,0,0-1.42.91c-.66,1.4-1.34,2.79-2,4.18-.46,1-.93,1.93-1.38,2.91a1.44,1.44,0,0,1-1.41.94c-2,0-2.31-.07-1.41-1.92,1-2.1,2-4.24,3-6.35q3.06-6.47,6.13-12.92c.77-1.61,1.51-3.22,2.28-4.82a6.22,6.22,0,0,1,.57-1,.6.6,0,0,1,1,0,5.46,5.46,0,0,1,.48.85q2.58,5.52,5.15,11.06,2.94,6.29,5.86,12.58c.24.51.45,1,.65,1.55s0,.8-.56.87c-.23,0-.47,0-.7,0ZM380,89.3h2.8c1.31,0,1.43-.19.9-1.34-1.11-2.37-2.23-4.73-3.34-7.09a2.56,2.56,0,0,0-.22-.35.29.29,0,0,0-.48,0,2.87,2.87,0,0,0-.28.48q-1.69,3.62-3.37,7.23a2,2,0,0,0-.17.53.36.36,0,0,0,.25.44,3.31,3.31,0,0,0,.83.1Z"/><path class="cls-1" d="M263.51,84.21V76.07c0-.32,0-.65,0-1,.05-1.06.22-1.23,1.22-1.27,1.47,0,1.66.12,1.66,1.68q0,8,0,16a15.15,15.15,0,0,0,.28,2.93A4.83,4.83,0,0,0,269.39,98a6.52,6.52,0,0,0,5.42.46,5.54,5.54,0,0,0,3.57-4,11,11,0,0,0,.31-2.92q0-7.78,0-15.57a13,13,0,0,1,.06-1.4.68.68,0,0,1,.64-.64,5.11,5.11,0,0,1,.55-.05c1.42,0,1.63.13,1.63,1.58q0,8.34,0,16.69a14.27,14.27,0,0,1-.56,3.73,8.26,8.26,0,0,1-7.72,5.87,11.54,11.54,0,0,1-3.61-.39,7.91,7.91,0,0,1-5.94-6.59,14.4,14.4,0,0,1-.21-2.37V84.21Z"/><path class="cls-1" d="M321.63,84.12V75.57c0-1.68.15-1.81,1.88-1.74.76,0,.94.24,1,1.06,0,.42,0,.84,0,1.26,0,5.1,0,10.19,0,15.29a15.11,15.11,0,0,0,.27,2.92A4.89,4.89,0,0,0,327.58,98a6.52,6.52,0,0,0,5.29.44,5.56,5.56,0,0,0,3.62-4,11,11,0,0,0,.32-2.91c0-5.19,0-10.38,0-15.57,0-.47,0-.94.06-1.4a.71.71,0,0,1,.73-.72c2-.14,2.11,0,2.1,1.77q0,8.07,0,16.13a12.92,12.92,0,0,1-.64,4.28,8,8,0,0,1-6.89,5.6,9.78,9.78,0,0,1-4.58-.4,7.86,7.86,0,0,1-5.71-6.46,15,15,0,0,1-.23-2.51c0-2.71,0-5.42,0-8.14Z"/><path class="cls-1" d="M382,123.94c0,1.91,0,3.83,0,5.75a8.18,8.18,0,0,1-.81,3.66,5.94,5.94,0,0,1-3.34,3,9.69,9.69,0,0,1-7-.06,6.71,6.71,0,0,1-3.22-2.8,2.63,2.63,0,0,1-.3-.78.35.35,0,0,1,.28-.42,1.76,1.76,0,0,1,1.81.41c.19.21.4.4.58.61a5.2,5.2,0,0,0,3.86,1.7,7.65,7.65,0,0,0,3.31-.48,4,4,0,0,0,2.62-3,6.07,6.07,0,0,0,.16-.83c0-.48.33-1.14-.2-1.4s-.8.35-1.16.61a6.21,6.21,0,0,1-3.8,1.25,9.42,9.42,0,0,1-2.37-.13,7.25,7.25,0,0,1-5.56-6.32,7.5,7.5,0,0,1,2.54-6.68,7.07,7.07,0,0,1,4.44-1.83,6.82,6.82,0,0,1,5.39,1.89,2.1,2.1,0,0,0,.33.26.27.27,0,0,0,.41-.22c0-.23,0-.46.07-.69a1,1,0,0,1,1.53-.79.64.64,0,0,1,.37.55,10.51,10.51,0,0,1,.06,1.12c0,1.87,0,3.74,0,5.61Zm-2,0h0c0-.33,0-.66,0-1a5.44,5.44,0,0,0-5.19-5,5.8,5.8,0,0,0-4,10.17,6.1,6.1,0,0,0,6.84.36,4.89,4.89,0,0,0,2.38-3.75A7.87,7.87,0,0,0,380.08,124Z"/><path class="cls-1" d="M345.55,131.72a10.21,10.21,0,0,1-10.39-10.23,10.39,10.39,0,1,1,20.77-.17C356,127.37,350.83,132,345.55,131.72Zm-8.16-10.26a7.68,7.68,0,0,0,2.73,6.25,8.19,8.19,0,0,0,12.74-2.5,9.57,9.57,0,0,0,.65-5.89,7.73,7.73,0,0,0-2.95-4.63,7.86,7.86,0,0,0-9.29-.53A8.11,8.11,0,0,0,337.39,121.46Z"/><path class="cls-1" d="M308.76,88.88q0-5.19,0-10.38c0-1.77-.05-1.81-1.82-1.82-1,0-2.05,0-3.08,0-.77,0-1-.27-1-1-.06-1.64.1-1.81,1.67-1.81h11.65c1.55,0,1.7.18,1.63,1.85,0,.74-.26,1-1.06,1-.46,0-.93,0-1.4,0-.8,0-1.59,0-2.39,0s-1,.23-1.05,1c0,.41,0,.84,0,1.26q0,10,0,19.92a13.13,13.13,0,0,1-.07,1.54.7.7,0,0,1-.65.63,3,3,0,0,1-.42,0c-1.75,0-2,0-1.95-1.84C308.77,95.8,308.76,92.34,308.76,88.88Z"/><path class="cls-1" d="M288,87.38V76.31c0-.23,0-.47,0-.7,0-.55-.17-1.24.35-1.57a3,3,0,0,1,2.18-.13.55.55,0,0,1,.44.49,10.83,10.83,0,0,1,.1,1.39q0,5.74,0,11.49V96c0,.38,0,.75,0,1.13.05.93.22,1.12,1.2,1.13,2.34,0,4.68,0,7,0,.42,0,.84,0,1.26,0,.61,0,.8.26.88.88a.61.61,0,0,1,0,.14c.08,1.68-.18,1.82-1.66,1.82H289.68c-1.57,0-1.69-.12-1.7-1.66C288,95.42,288,91.4,288,87.38Z"/><path class="cls-1" d="M241.23,131.72a16.54,16.54,0,0,1-2.25-.14,10.23,10.23,0,0,1-8-7.91,10.36,10.36,0,0,1,1.62-8.42,10.08,10.08,0,0,1,8.1-4.35,11.15,11.15,0,0,1,6,1.25,9.53,9.53,0,0,1,2.54,2c.71.79.64,1.19-.27,1.77l-.12.07a.59.59,0,0,1-.87-.15,7.64,7.64,0,0,0-1.7-1.46,8.48,8.48,0,0,0-7.91-.88,8.41,8.41,0,0,0,2.85,16.27,8.77,8.77,0,0,0,6.38-2.41A3.7,3.7,0,0,1,248,127a.71.71,0,0,1,.79-.09,1.94,1.94,0,0,1,.76.6.61.61,0,0,1,0,.78,5.31,5.31,0,0,1-.85.92,10.41,10.41,0,0,1-7,2.55Z"/><path class="cls-1" d="M324.17,124c0,1.82,0,3.64,0,5.46a8.41,8.41,0,0,1-.06,1.12.68.68,0,0,1-.6.67,1.09,1.09,0,0,1-1.19-.53c-.11-.35-.12-.73-.22-1.09a.29.29,0,0,0-.45-.16,3.72,3.72,0,0,0-.56.42,7.26,7.26,0,0,1-10.38-.94,7.64,7.64,0,0,1-1.4-7.64,7.22,7.22,0,0,1,4.9-4.83,7.13,7.13,0,0,1,6.75,1.27c.26.21.49.44.74.65a.29.29,0,0,0,.43-.18c.06-.37.07-.75.15-1.11s.42-.59,1-.57.77.2.83.6a8.65,8.65,0,0,1,.08,1.25C324.18,120.27,324.17,122.14,324.17,124ZM311,123.75c0,.24,0,.47,0,.7a5.45,5.45,0,0,0,3.74,5,5.36,5.36,0,0,0,5.92-1.39,6,6,0,0,0-1.39-9.28,4.85,4.85,0,0,0-3.09-.71A5.57,5.57,0,0,0,311,123.75Z"/><path class="cls-1" d="M400.54,123.92v5.32c0,.38,0,.75,0,1.12-.05.6-.28.9-.68.91a1.07,1.07,0,0,1-1.25-.85c-.23-1.23-.26-1.22-1.16-.49a7.37,7.37,0,0,1-11.95-4.25,7.22,7.22,0,0,1,1.11-6.14,7.3,7.3,0,0,1,10.79-1.76c.31.23.52.81,1,.59s.16-.68.23-1a1,1,0,0,1,1.61-.61.86.86,0,0,1,.27.47,8.32,8.32,0,0,1,.07,1.12Zm-2-.08a5.33,5.33,0,0,0-.7-2.82,5.48,5.48,0,0,0-5.3-3,5.58,5.58,0,0,0-5,4,6.59,6.59,0,0,0-.18,2.5,5.62,5.62,0,0,0,11.21-.72Z"/><path class="cls-1" d="M452.78,123.89v5.18c0,.38,0,.75,0,1.12-.07.77-.47,1.05-1.24.93a.69.69,0,0,1-.65-.62c-.06-.32-.07-.65-.11-1a.26.26,0,0,0-.42-.18c-.25.2-.48.44-.74.64a6.93,6.93,0,0,1-7.23,1.13,7.87,7.87,0,0,1-2-13.26,6.83,6.83,0,0,1,4.09-1.64,7,7,0,0,1,5.63,2c.13.12.28.27.48.21s.21-.28.23-.47,0-.37,0-.55a1,1,0,0,1,1.59-.66.72.72,0,0,1,.28.46,6.83,6.83,0,0,1,.08,1.11C452.79,120.15,452.78,122,452.78,123.89Zm-1.95.12a5.42,5.42,0,0,0-3.15-5.4,5.33,5.33,0,0,0-6.21.94,5.89,5.89,0,0,0-.87,7.65A5.57,5.57,0,0,0,450.83,124Z"/><path class="cls-1" d="M528.88,123.89c0,1.73,0,3.46,0,5.18,0,.38,0,.75,0,1.12a1,1,0,0,1-1.5.86.67.67,0,0,1-.39-.54c-.06-.27-.08-.55-.15-.82a.23.23,0,0,0-.34-.13,5.36,5.36,0,0,0-.59.38c-.51.32-1,.66-1.54.95a7.34,7.34,0,0,1-8.17-1.26,8.08,8.08,0,0,1-1.91-8.75,7.58,7.58,0,0,1,6.72-4.69,6.83,6.83,0,0,1,5.09,1.89,2.69,2.69,0,0,0,.33.26.28.28,0,0,0,.44-.15c0-.32,0-.65.11-1,.09-.48.36-.67.91-.67s.91.21,1,.76a10.48,10.48,0,0,1,0,1.12C528.89,120.25,528.88,122.07,528.88,123.89Zm-2,.06h0c0-.28,0-.56,0-.84a5.59,5.59,0,0,0-6.5-5,5.91,5.91,0,0,0-3.88,8.78,5.51,5.51,0,0,0,3.88,2.78c3.38.58,6.7-2.05,6.51-5.42Z"/><path class="cls-1" d="M486.74,116.22c4.44-.29,7.73,3.86,7.65,7.73a7.61,7.61,0,1,1-15.21,0C479.13,120.1,482.3,116,486.74,116.22Zm-.1,2a4.53,4.53,0,0,0-3,1,5.59,5.59,0,0,0-1.82,2.27,6.08,6.08,0,0,0,1.57,7.11,5.56,5.56,0,0,0,8.84-3.16C493.11,121.59,490.18,117.89,486.64,118.21Z"/><path class="cls-1" d="M404.49,123.83v-5.47c0-.28,0-.56,0-.84.06-.78.42-1.06,1.21-1a.75.75,0,0,1,.69.59c.14.41-.2,1.07.38,1.21.37.1.65-.45,1-.72a6.11,6.11,0,0,1,5.26-1.33,4.67,4.67,0,0,1,3.68,3.13,6.28,6.28,0,0,1,.43,2.19q0,4.14,0,8.28a2,2,0,0,1,0,.42,1.08,1.08,0,0,1-1.44.89.62.62,0,0,1-.42-.51q-.07-.63-.09-1.26c0-2.34,0-4.68,0-7a6.11,6.11,0,0,0-.24-1.94,3.45,3.45,0,0,0-4-2.43,5,5,0,0,0-4.1,3.94,10.86,10.86,0,0,0-.31,2.79c0,1.49,0,3,0,4.49,0,.33,0,.66,0,1a1,1,0,0,1-1.56.74.72.72,0,0,1-.34-.57c0-.38-.05-.75-.05-1.12C404.49,127.48,404.49,125.66,404.49,123.83Z"/><path class="cls-1" d="M497.71,123.76v-5.34c0-.33,0-.65,0-1a1,1,0,0,1,1.55-.78.58.58,0,0,1,.33.43c.05.32.07.65.11,1s.3.46.59.19A12.11,12.11,0,0,1,502,117a6.27,6.27,0,0,1,6,.05,5.1,5.1,0,0,1,2,2.76,8,8,0,0,1,.34,2.22c0,2.57,0,5.14,0,7.72a5.33,5.33,0,0,1,0,.56,1,1,0,0,1-1,1,.71.71,0,0,1-.91-.63,8.79,8.79,0,0,1-.07-1.26c0-2.34,0-4.68,0-7a6,6,0,0,0-.27-1.93,3.49,3.49,0,0,0-4-2.38,5.09,5.09,0,0,0-4.14,3.9,11.81,11.81,0,0,0-.33,2.78c0,1.5,0,3,0,4.49,0,.33,0,.66,0,1-.07.73-.39,1-1.1.94a.79.79,0,0,1-.82-.79c0-.37,0-.75,0-1.12v-5.47Z"/><path class="cls-1" d="M255.41,121.9c0,1.26,0,2.52,0,3.78a4,4,0,0,0,2.67,3.74,4.64,4.64,0,0,0,5-1.26,3.37,3.37,0,0,0,.74-1.64,19.12,19.12,0,0,0,.28-2.93c0-1.73,0-3.46,0-5.19,0-.28,0-.56,0-.84.06-.84.48-1.14,1.31-1a.67.67,0,0,1,.58.53,5.33,5.33,0,0,1,.08,1c0,2.19,0,4.39,0,6.59a10.13,10.13,0,0,1-.5,3,5.18,5.18,0,0,1-3,3.35,7.07,7.07,0,0,1-6.23-.21,5.1,5.1,0,0,1-2.64-3.31,19,19,0,0,1-.52-4.17c-.07-1.77,0-3.55,0-5.33a5.15,5.15,0,0,1,0-.56c.08-.73.35-1,1.11-.95s1,.24,1,1c0,1.45,0,2.9,0,4.35Z"/><path class="cls-1" d="M456.14,124a7.58,7.58,0,0,1,5.93-7.55,8.72,8.72,0,0,1,6.4.77,6.53,6.53,0,0,1,2,1.74.7.7,0,0,1,0,1c-.44.41-.92.52-1.26.26s-.4-.39-.61-.57a6.54,6.54,0,0,0-7.58-.76,5.82,5.82,0,0,0-1.5,8.73,6.44,6.44,0,0,0,8.85.68c.25-.21.48-.45.73-.66.41-.32.77-.27,1.25.15a.75.75,0,0,1,.12,1.12,3.48,3.48,0,0,1-.64.74,8.75,8.75,0,0,1-10.43.55,7.84,7.84,0,0,1-3-4.13A6.93,6.93,0,0,1,456.14,124Z"/><path class="cls-1" d="M286.58,121.73v2.94c0,.33,0,.66,0,1a4.25,4.25,0,0,0,5.45,3.9,4,4,0,0,0,3.13-3.53,11.27,11.27,0,0,0,.09-1.54c0-2,0-4,0-6a10.47,10.47,0,0,1,0-1.12c.07-.56.37-.79,1-.79s.89.24,1,.79a5.48,5.48,0,0,1,0,.7c0,2.38,0,4.76,0,7.15a7.52,7.52,0,0,1-.86,3.5A4.86,4.86,0,0,1,294,131a7.1,7.1,0,0,1-6.23,0,5.1,5.1,0,0,1-2.76-3.21,8.27,8.27,0,0,1-.43-2.47c0-2.43,0-4.86,0-7.29a5.12,5.12,0,0,1,0-.56c.07-.66.35-.9,1-.88s.89.24.91.83c.05,1,0,2.06,0,3.09v1.26Z"/><path class="cls-1" d="M430.19,131.17c-1.45,0-2.9,0-4.35,0-.83,0-.95-.22-.57-.9s.63-1,1-1.55c1.89-3,3.8-6,5.69-9,.15-.24.29-.48.42-.73.26-.49.15-.73-.38-.73-1.49,0-3,0-4.48,0a10.53,10.53,0,0,1-1.26-.06.69.69,0,0,1-.64-.78.71.71,0,0,1,.61-.8,5.93,5.93,0,0,1,.84-.06h8.14c.74,0,.87.24.5.84-.88,1.44-1.78,2.86-2.67,4.29-1.32,2.09-2.67,4.17-4,6.28-.25.41-.82.85-.48,1.35s.88.18,1.34.18c1.36,0,2.71,0,4.07,0,.32,0,.65,0,1,0,.63.07.91.34.93.84s-.25.78-.91.81-1.5,0-2.25,0h-2.52Z"/><path class="cls-1" d="M277,124.7c0-1.49,0-3,0-4.49a10.47,10.47,0,0,0,0-1.12.79.79,0,0,0-.78-.83c-.37-.05-.75-.05-1.11-.11a.7.7,0,0,1-.55-.72.72.72,0,0,1,.57-.84,7.53,7.53,0,0,1,.83-.08c.87-.1,1-.25,1.06-1.15s0-1.59,0-2.39a6.83,6.83,0,0,1,.07-1.11c.07-.46.39-.67.92-.67s.86.22.93.67A8.17,8.17,0,0,1,279,113c0,.84,0,1.69,0,2.53s.24,1,1,1c.42,0,.84,0,1.26.06a.7.7,0,0,1,.67.75.74.74,0,0,1-.72.86c-.37,0-.75,0-1.12,0-.94.07-1.1.23-1.14,1.21,0,.37,0,.75,0,1.12V129c0,.42,0,.84,0,1.26a1,1,0,0,1-1.54.78.7.7,0,0,1-.36-.57,10.51,10.51,0,0,1-.06-1.12C277,127.79,277,126.24,277,124.7Z"/><path class="cls-1" d="M300.61,123.73v-5.18c0-.33,0-.66,0-1,.06-.82.37-1.08,1.16-1a.73.73,0,0,1,.78.66c.1.8.36.8.95.23a4.91,4.91,0,0,1,.88-.68,3.57,3.57,0,0,1,2.69-.46c.64.12.81.55.51,1.14a1.22,1.22,0,0,1-1.22.76c-1.68-.08-2.56.92-3.11,2.33a12.64,12.64,0,0,0-.64,4.13c-.07,1.49,0,3,0,4.48a10.47,10.47,0,0,1,0,1.12A1,1,0,0,1,301,131a.69.69,0,0,1-.36-.57c0-.37-.05-.74-.06-1.11Z"/><path class="cls-1" d="M534.75,121.14v8.13c0,.42,0,.84,0,1.26a.67.67,0,0,1-.57.69c-.63.07-1.17-.17-1.27-.61a4.55,4.55,0,0,1-.09-1c0-5.75,0-11.5,0-17.24a5.15,5.15,0,0,1,0-.56c.07-.67.35-.91,1-.91a.8.8,0,0,1,.92.82,10.61,10.61,0,0,1,0,1.26Z"/><path class="cls-1" d="M358.71,123.72v-5.18c0-.33,0-.65,0-1,.06-.81.38-1.07,1.17-1,.6,0,.73.43.83.93s.29.47.57.23.55-.51.85-.73a3.53,3.53,0,0,1,3-.65c.64.15.81.59.46,1.15a1.28,1.28,0,0,1-1.12.71.65.65,0,0,1-.14,0c-1.76-.06-2.61,1-3.14,2.49a9.71,9.71,0,0,0-.53,3.3c0,1.77,0,3.55,0,5.32a8.65,8.65,0,0,1-.08,1.25c-.06.38-.37.57-.83.59s-.91-.17-1-.58a5.87,5.87,0,0,1-.08-1.11C358.71,127.54,358.71,125.63,358.71,123.72Z"/><path class="cls-1" d="M271.73,121v8c0,.42,0,.85,0,1.26a1,1,0,0,1-1.55.75.77.77,0,0,1-.35-.58c0-.37-.05-.75-.05-1.12q0-8.27,0-16.52a8,8,0,0,1,0-1,1,1,0,0,1,1.55-.74.68.68,0,0,1,.35.57c0,.42.05.84.05,1.26Z"/><path class="cls-1" d="M476.11,123.86v5.32a10.4,10.4,0,0,1,0,1.12c-.07.63-.39.87-1.05.84a.78.78,0,0,1-.86-.74c0-.37,0-.75-.05-1.12q0-5.46,0-10.92a7.43,7.43,0,0,1,.08-1.25c.07-.41.44-.59,1-.56s.76.21.82.6a6.91,6.91,0,0,1,.08,1.11Z"/><path class="cls-1" d="M422.79,124c0,1.73,0,3.45,0,5.18a10.47,10.47,0,0,1,0,1.12c-.06.63-.38.88-1,.86a.78.78,0,0,1-.87-.72,8.4,8.4,0,0,1-.05-1.12q0-5.46,0-10.92a8.75,8.75,0,0,1,.08-1.25c.06-.38.37-.57.84-.58s.91.17,1,.58a5.87,5.87,0,0,1,.08,1.11C422.79,120.16,422.79,122.07,422.79,124Z"/><path class="cls-1" d="M421.94,110.64a1.51,1.51,0,0,1,1.49,1.5,1.6,1.6,0,0,1-1.64,1.55,1.63,1.63,0,0,1-1.5-1.68A1.59,1.59,0,0,1,421.94,110.64Z"/><path class="cls-1" d="M475.23,110.64a1.37,1.37,0,0,1,1.42,1.53,1.61,1.61,0,0,1-1.54,1.52,1.58,1.58,0,0,1-1.51-1.53A1.5,1.5,0,0,1,475.23,110.64Z"/></g></g></svg>