<svg xmlns="http://www.w3.org/2000/svg" viewBox="0 0 239.75 294.22"><defs><style>.cls-1{fill:#fff;}</style></defs><title>1 - Cultura_1</title><g id="Capa_2" data-name="Capa 2"><g id="Capa_1-2" data-name="Capa 1"><path class="cls-1" d="M178.72,138.7a9.43,9.43,0,0,1,.92.23c4.09,1.31,8.21,2.52,12.25,3.95,6.4,2.27,12.91,4.19,19.36,6.32,2.09.69,4.25,1.17,6.38,1.75L232.82,155c1.65.45,1.74.61,1.2,2.24a116.48,116.48,0,0,1-6.91,16.66c-.11.21-.21.43-.34.63-.48.77-.81.88-1.63.52a10.72,10.72,0,0,1-.95-.5q-8.82-5.1-17.63-10.2-1.94-1.12-3.93-2.14-11.06-5.66-22.13-11.28c-1.54-.78-3.06-1.6-4.59-2.4a6.55,6.55,0,0,1-.78-.44.9.9,0,0,1-.45-1.21,7,7,0,0,1,.42-1,50.89,50.89,0,0,0,2.38-5.78,7.19,7.19,0,0,1,.4-1A.82.82,0,0,1,178.72,138.7Z"/><path class="cls-1" d="M92.44,174.45a4.44,4.44,0,0,1,.69.24,57.64,57.64,0,0,0,6.77,2.78,6.4,6.4,0,0,1,.65.29.78.78,0,0,1,.45.89,16,16,0,0,1-.44,1.54q-3.33,10.22-6.66,20.4c-2.29,7-4.41,14-6.21,21.1-.87,3.47-1.84,6.91-2.76,10.37-.06.23-.13.46-.2.68-.51,1.63-.64,1.71-2.28,1.17a115.14,115.14,0,0,1-12.31-4.84c-1.3-.59-2.6-1.19-3.89-1.81a9,9,0,0,1-1.25-.7.93.93,0,0,1-.37-1.38c.2-.43.44-.84.68-1.26q5.55-9.6,11.09-19.19c.24-.42.45-.85.67-1.27,2.31-4.51,4.64-9,6.93-13.53s4.6-9.16,6.9-13.74c.24-.48.5-.95.78-1.4A.76.76,0,0,1,92.44,174.45Z"/><path class="cls-1" d="M15.29,124.54c3,0,6.08,0,9.12,0a39.4,39.4,0,0,0,6.42-.3,2.19,2.19,0,0,1,.36,0c3.34.1,6.65-.44,10-.43a20,20,0,0,0,2.31-.21c.29,0,.59-.09.88-.1,2.8-.14,5.59-.28,8.39-.4a29.18,29.18,0,0,0,4.28-.25,3.08,3.08,0,0,1,.53,0c1,0,1.28.26,1.41,1.21.1.77.17,1.54.28,2.31.22,1.65.45,3.3.67,5A5.83,5.83,0,0,1,60,132a.82.82,0,0,1-.58.82,13.54,13.54,0,0,1-1.54.44l-18,3.84c-4.54,1-9.1,1.89-13.62,3-3.42.8-6.8,1.8-10.19,2.72l-11.4,3.05a6.09,6.09,0,0,1-.87.17.94.94,0,0,1-1.12-.66,7.19,7.19,0,0,1-.32-1.21C1.54,140.17,1,136.23.53,132.26c-.23-2-.18-4-.51-6a2.81,2.81,0,0,1,0-.71.91.91,0,0,1,.79-.85,13.29,13.29,0,0,1,1.78-.11H15.29Z"/><path class="cls-1" d="M239.66,127.48A98.86,98.86,0,0,1,238.42,139c-.26,1.59-.57,3.17-.87,4.75-.06.35-.13.7-.22,1-.33,1.13-.64,1.35-1.83,1-2.37-.59-4.73-1.24-7.09-1.87-4.89-1.3-9.75-2.71-14.67-3.9-5.09-1.23-10.23-2.26-15.36-3.36q-8.12-1.75-16.24-3.48a11.2,11.2,0,0,1-1.38-.36c-.75-.25-1-.54-.88-1.32s.26-1.77.38-2.65c.21-1.66.4-3.31.63-5,.14-1,.48-1.3,1.44-1.16,2.72.42,5.48.07,8.19.49a16.1,16.1,0,0,0,2,.11,25,25,0,0,1,4.81.33c.11,0,.23,0,.35,0,3,.14,6.06.32,9.1.39,2.56.06,5.09.42,7.66.41,7.51,0,15,0,22.51,0,.6,0,1.2,0,1.79,0,.81.07,1.07.35,1.05,1.13C239.75,126.3,239.69,126.89,239.66,127.48Z"/><path class="cls-1" d="M147.59,174.46a.88.88,0,0,1,.67.54c.73,1.36,1.49,2.71,2.18,4.1,2,3.93,3.95,7.88,5.94,11.82,2.38,4.67,4.73,9.36,7.19,14,1.51,2.84,3.18,5.59,4.79,8.38l6.54,11.29a5.36,5.36,0,0,1,.41.79.79.79,0,0,1-.35,1.07,8.62,8.62,0,0,1-.94.52,118.34,118.34,0,0,1-16,6.75l-.51.16c-1.85.6-2,.55-2.47-1.31-1.17-4.26-2.34-8.51-3.45-12.77-1.42-5.42-2.95-10.81-4.7-16.13-2.59-7.87-5.12-15.75-7.68-23.63,0-.12-.08-.23-.11-.34-.51-1.64-.47-1.73,1.16-2.33,2.13-.78,4.24-1.61,6.28-2.59A1.9,1.9,0,0,1,147.59,174.46Z"/><path class="cls-1" d="M101,60.86c0,.48-.11.75-.39.9a5.94,5.94,0,0,1-.82.35c-2.12.79-4.23,1.6-6.27,2.6a6.52,6.52,0,0,1-.83.33.8.8,0,0,1-1-.31A11.62,11.62,0,0,1,91,63.5l-7.14-14c-2.44-4.77-4.85-9.57-7.36-14.3-1.42-2.69-3-5.28-4.53-7.91q-3.52-6.12-7.06-12.22c-.08-.16-.18-.31-.26-.47-.36-.75-.28-1.08.39-1.5a10.62,10.62,0,0,1,.94-.51A124.78,124.78,0,0,1,82,5.9a10.74,10.74,0,0,1,1.55-.41.77.77,0,0,1,.88.47,10.14,10.14,0,0,1,.44,1.35c1.76,6.5,3.49,13,5.25,19.5q.66,2.42,1.43,4.79c1.39,4.37,2.75,8.75,4.24,13.09,1.71,5,3.31,10,4.87,15C100.76,60.09,100.89,60.55,101,60.86Z"/><path class="cls-1" d="M14,175.4a1.49,1.49,0,0,1-.49-.25,4.6,4.6,0,0,1-.49-.75A108.16,108.16,0,0,1,5.8,157.1c-.46-1.44-.36-1.63,1.07-2q4.23-1.17,8.46-2.29c4.14-1.11,8.31-2.15,12.43-3.32,3-.85,5.92-1.85,8.87-2.79s5.91-1.87,8.85-2.84q7.05-2.33,14.08-4.68c2.16-.71,2.13-.69,2.93,1.39.71,1.84,1.49,3.64,2.24,5.46.16.38.34.76.48,1.15a.66.66,0,0,1-.26.79,8.9,8.9,0,0,1-1.07.64l-12.26,6.27c-5.51,2.83-11,5.62-16.53,8.51-2.64,1.38-5.17,2.95-7.76,4.44L15,175C14.65,175.12,14.31,175.25,14,175.4Z"/><path class="cls-1" d="M161,74.21a1.45,1.45,0,0,1-1-.49c-1.2-1-2.4-2-3.62-2.91-.7-.55-1.45-1-2.18-1.56-1.09-.78-1.13-.9-.44-2q1.63-2.57,3.3-5.1c2.94-4.49,5.87-9,8.83-13.43q5.84-8.79,11-18c1.95-3.48,4-6.91,6-10.36.15-.26.29-.52.45-.78.67-1,.93-1.13,2-.44,2.91,1.86,5.71,3.89,8.42,6,2,1.59,4,3.25,5.93,4.89.22.19.44.39.65.6.93.91,1,1.07,0,2q-5.61,5.64-11.24,11.25c-1,1-1.93,2-2.9,2.91-2.59,2.55-5,5.29-7.38,8-1.23,1.38-2.54,2.67-3.74,4.09-1.53,1.81-3.2,3.52-4.8,5.29-2.72,3-5.43,6-8.15,9-.24.27-.46.54-.72.78A1.38,1.38,0,0,1,161,74.21Z"/><path class="cls-1" d="M68.39,153.23a1.77,1.77,0,0,1,.36.15,3.39,3.39,0,0,1,.49.51c1.5,2.15,3.11,4.21,4.79,6.23.49.6.47.88-.07,1.37l-8.24,7.4c-1.81,1.63-3.61,3.29-5.42,4.92s-3.84,3.39-5.73,5.12c-2.07,1.88-4.16,3.74-6.15,5.71-4.88,4.81-9.7,9.68-14.54,14.52L33,200c-1.19,1.15-1.44,1.15-2.54-.14-2.25-2.62-4.52-5.23-6.54-8-1.46-2-2.89-4.08-4.32-6.13a9.81,9.81,0,0,1-.66-1.06.74.74,0,0,1,.25-1.09c.44-.31.9-.59,1.36-.86l18.73-10.81c.31-.18.61-.36.91-.56,4.7-3,9.41-6.07,14.1-9.13,4.09-2.67,8.16-5.37,12.25-8.05.44-.29.91-.56,1.38-.82A2.25,2.25,0,0,1,68.39,153.23Z"/><path class="cls-1" d="M116.88,183.08c-.54,3.18-.07,6.43-.56,9.62a1,1,0,0,0,0,.17c-.16,3.27-.3,6.54-.48,9.81s-.42,6.53-.61,9.8c-.06,1.07-.07,2.14-.07,3.21q0,10.73,0,21.44c0,.36,0,.72,0,1.07-.07,1.29-.31,1.51-1.65,1.53-.36,0-.72,0-1.07,0-2.14-.21-4.27-.4-6.4-.64a106.11,106.11,0,0,1-10.92-1.77l-.18,0c-1.1-.28-1.3-.55-1-1.63.32-1.39.69-2.77,1.06-4.15,1.63-6.1,3.32-12.18,4.89-18.29.77-3,1.34-6.05,2-9.08.52-2.38,1-4.77,1.53-7.16.7-3.38,1.37-6.77,2.07-10.15.37-1.81.76-3.61,1.15-5.42a5.84,5.84,0,0,1,.18-.69c.28-.9.52-1.06,1.41-.94.42,0,.83.14,1.24.2a55.55,55.55,0,0,0,6,.73,5.52,5.52,0,0,1,.71.1.92.92,0,0,1,.75.88C116.9,182.12,116.88,182.6,116.88,183.08Z"/><path class="cls-1" d="M234.32,83.49c0,.44-.13.7-.43.82a9.26,9.26,0,0,1-1,.32c-5,1.33-9.88,2.71-14.85,4-6.35,1.62-12.57,3.67-18.81,5.69q-9.6,3.12-19.21,6.21c-1.84.59-1.87.54-2.58-1.28s-1.49-3.63-2.24-5.45c-.09-.22-.21-.43-.3-.65-.46-1.08-.41-1.32.6-1.86,1.84-1,3.68-2,5.54-2.9,5.16-2.6,10.33-5.17,15.49-7.78,5.9-3,11.71-6.12,17.4-9.5,3.43-2,6.91-4,10.37-6,.41-.24.83-.47,1.26-.68a.67.67,0,0,1,.93.24,7.37,7.37,0,0,1,.45.77,104.8,104.8,0,0,1,5.34,12.08c.6,1.62,1.17,3.26,1.74,4.89C234.14,82.79,234.23,83.19,234.32,83.49Z"/><path class="cls-1" d="M138.85,60.77c.12-.4.23-.8.36-1.2,1.25-3.85,2.4-7.74,3.77-11.55,1.68-4.65,3-9.42,4.65-14.08,1.06-3,1.86-6,2.67-9.08q2.31-8.64,4.61-17.27c.62-2.34.72-2.38,3.05-1.61a117.66,117.66,0,0,1,15.84,6.56c2,1,1.94,1.1.91,2.88-2.45,4.22-4.89,8.46-7.33,12.68s-4.81,8.37-7,12.69-4.37,8.74-6.58,13.09c-1.67,3.3-3.38,6.57-5.07,9.85-.14.27-.28.53-.44.78A1,1,0,0,1,147,65c-.55-.22-1.08-.5-1.63-.73l-5-2c-.33-.13-.67-.26-1-.42A.89.89,0,0,1,138.85,60.77Z"/><path class="cls-1" d="M221,184.44a6.05,6.05,0,0,1-.43.8c-1.68,2.39-3.32,4.8-5.06,7.14-2,2.68-4.14,5.24-6.37,7.71-.16.18-.31.37-.48.53a.77.77,0,0,1-1.13,0c-.41-.34-.79-.72-1.17-1.1-5-5-10-10.06-15.05-15-2-2-4.21-3.87-6.33-5.78-1.37-1.24-2.76-2.46-4.12-3.7l-9.38-8.54c-1.64-1.48-3.3-2.92-5-4.38-.23-.2-.45-.4-.66-.61-.52-.54-.56-.81-.12-1.4s1.08-1.27,1.59-1.93c1-1.33,2-2.68,3-4,.83-1.14,1-1.19,2.16-.49l.6.39c5.09,3.32,10.17,6.66,15.27,10,4.35,2.81,8.67,5.69,13.11,8.35,5.82,3.5,11.75,6.82,17.63,10.21.57.33,1.12.69,1.66,1A.72.72,0,0,1,221,184.44Z"/><path class="cls-1" d="M161,165.43a1.66,1.66,0,0,1,.53.29c.64.62,1.27,1.26,1.86,1.92,1.64,1.81,3.26,3.64,4.88,5.46q4.27,4.82,8.55,9.61c1.47,1.64,3,3.25,4.45,4.89,5.89,6.56,12.38,12.55,18.53,18.86,1.44,1.46,1.82,1.47-.08,3.09-3.18,2.7-6.38,5.37-9.77,7.8-1.55,1.11-3.13,2.17-4.73,3.21-1,.64-1.29.55-1.86-.42q-2.12-3.63-4.2-7.28c-2.44-4.23-4.84-8.48-7.32-12.69-1.08-1.85-2.29-3.62-3.46-5.42q-5.22-8-10.44-16l-4-6.15c-.16-.25-.32-.5-.46-.77a.74.74,0,0,1,.23-1.09c.62-.47,1.27-.89,1.89-1.36,1.36-1.06,2.7-2.14,4.06-3.21A2.67,2.67,0,0,1,161,165.43Z"/><path class="cls-1" d="M65.31,92.15a9.41,9.41,0,0,1-.33,1c-.46,1-1,2.05-1.39,3.1-.5,1.21-.92,2.46-1.4,3.67-.37.95-.65,1.1-1.65.79-1.94-.58-3.87-1.2-5.79-1.82L34.2,92.15c-4-1.31-8.11-2.4-12.2-3.49-5-1.33-10-2.69-15-4a8.47,8.47,0,0,1-.86-.25.76.76,0,0,1-.54-1,9.27,9.27,0,0,1,.29-1A104.24,104.24,0,0,1,11.3,68.76c.49-1,.94-2.05,1.43-3.07a6.52,6.52,0,0,1,.67-1.06.71.71,0,0,1,.95-.21c.26.13.52.28.78.43q8.52,4.91,17,9.83c1.91,1.1,3.82,2.2,5.79,3.19q9,4.5,18.06,9c2.71,1.37,5.4,2.78,8.09,4.18a6.6,6.6,0,0,1,.91.57A1.73,1.73,0,0,1,65.31,92.15Z"/><path class="cls-1" d="M115.15,14.15v8.4a33.05,33.05,0,0,0,.27,5.88c0,.12,0,.24,0,.36.14,3.5.25,7,.43,10.52.15,2.79.38,5.58.57,8.37,0,.36.07.71.08,1.07.09,2.38.15,4.76.33,7.14.22,3.09.13,2.76-2.69,3.12-1.83.24-3.67.42-5.48.76a8.94,8.94,0,0,1-.89.09.84.84,0,0,1-.94-.65c-.13-.46-.26-.92-.35-1.39-2.07-9.73-4.08-19.47-6.2-29.18-.78-3.55-1.81-7-2.74-10.55C96.4,13.65,95.19,9.23,94,4.79c-.53-2-.48-2.07,1.52-2.49a96.94,96.94,0,0,1,10-1.63c1.89-.19,3.78-.43,5.68-.59a24.61,24.61,0,0,1,2.85,0,.89.89,0,0,1,1,.89c.06.53.06,1.06.07,1.6Z"/><path class="cls-1" d="M86.46,68.24a1.53,1.53,0,0,1-.23.46,7.58,7.58,0,0,1-.82.68c-1.9,1.44-3.87,2.79-5.63,4.41-.69.63-1,.61-1.66-.07-1.19-1.26-2.34-2.55-3.48-3.83-1.47-1.65-2.91-3.31-4.38-5-1.63-1.82-3.3-3.61-4.93-5.42-2.62-2.93-5.22-5.87-7.84-8.8-.52-.58-1.05-1.14-1.6-1.69L40,33.12c-1.47-1.47-1.49-1.51.07-2.89A119.64,119.64,0,0,1,54.35,19.29c.2-.13.4-.26.61-.37.62-.32,1-.25,1.37.34.57.9,1.1,1.84,1.63,2.77,3.33,5.78,6.63,11.58,10,17.34,1.26,2.15,2.68,4.22,4.05,6.32,3.06,4.68,6.15,9.35,9.22,14,1.54,2.34,3,4.7,4.57,7A3.46,3.46,0,0,1,86.46,68.24Z"/><path class="cls-1" d="M55.39,220.93a7.27,7.27,0,0,1-.85-.45c-2.9-1.88-5.75-3.84-8.46-6-2.09-1.67-4.12-3.43-6.18-5.15a9,9,0,0,1-.77-.74.72.72,0,0,1,0-1.11c.31-.36.65-.69,1-1,5-5,10-9.94,14.91-14.94,1.64-1.65,3.17-3.4,4.73-5.12,1.72-1.9,3.42-3.81,5.12-5.72,1.39-1.56,2.75-3.14,4.13-4.7,1.15-1.29,2.3-2.59,3.46-3.87q2.64-2.91,5.3-5.8a5.43,5.43,0,0,1,.65-.62.78.78,0,0,1,1.13,0c.2.13.38.29.57.44,1.89,1.54,3.82,3,5.84,4.43.73.5.75.68.31,1.47-.26.47-.54.93-.83,1.38-3.58,5.49-7.18,11-10.74,16.48-2.52,3.91-5.09,7.79-7.47,11.78-3.45,5.78-6.75,11.66-10.12,17.49-.3.51-.63,1-1,1.5A.79.79,0,0,1,55.39,220.93Z"/><path class="cls-1" d="M124.75,225.66V215.11a17.26,17.26,0,0,0-.2-3.21,2.81,2.81,0,0,1-.08-.71c.06-3-.33-5.95-.44-8.92-.12-3.33-.39-6.66-.6-10,0-.24-.05-.47-.06-.71-.06-2.5-.08-5-.37-7.5a11.77,11.77,0,0,1,0-2c0-1.07.29-1.31,1.4-1.42.89-.09,1.78-.15,2.67-.27,1.53-.21,3.06-.47,4.59-.69.91-.13,1.23,0,1.44.91.47,2,.9,4,1.32,5.93,1.83,8.69,3.64,17.39,5.49,26.07.4,1.86,1,3.7,1.45,5.54l4.53,16.93c.46,1.72.39,1.87-1.42,2.24a100.51,100.51,0,0,1-11.3,1.76c-1.9.18-3.79.44-5.69.58-2.66.21-2.73-.05-2.72-2.39,0-3.87,0-7.75,0-11.63Z"/><path class="cls-1" d="M31.68,38.77a3,3,0,0,1,.65.31c.36.3.7.64,1,1,4.89,4.88,9.76,9.79,14.67,14.65,1.86,1.84,3.81,3.59,5.75,5.35,1.63,1.48,3.32,2.9,5,4.37L72.46,76.71c.53.48,1.05,1,1.55,1.48s.51.8.1,1.24a71.73,71.73,0,0,0-4.93,6.34c-.53.73-.83.76-1.67.24-1.51-1-3-1.92-4.51-2.89Q52.5,76.31,42,69.5c-3.55-2.3-7.27-4.32-10.92-6.46s-7.32-4.23-11-6.35c-.3-.18-.62-.35-.91-.56a.75.75,0,0,1-.27-1.08,10.25,10.25,0,0,1,.72-1.24,118.3,118.3,0,0,1,9.18-12.09c.7-.8,1.4-1.62,2.12-2.41A4.42,4.42,0,0,1,31.68,38.77Z"/><path class="cls-1" d="M123,55.77c.47-3.25.24-6.54.56-9.81.29-3.08.34-6.18.51-9.27.2-3.74.42-7.48.62-11.22,0-.66,0-1.31,0-2V2.77c0-.47,0-.95,0-1.43.08-1.06.33-1.31,1.47-1.33a22.94,22.94,0,0,1,2.49.07q2.94.29,5.86.62a100.83,100.83,0,0,1,10.22,1.7l.34.08c1,.27,1.16.52.89,1.55-.85,3.22-1.71,6.45-2.59,9.66-2.14,7.82-4.17,15.65-5.76,23.6-1.32,6.66-2.79,13.29-4.2,19.93-.13.64-.28,1.28-.46,1.91s-.43.79-1,.72c-1-.12-2-.3-3-.43-1.36-.18-2.72-.33-4.08-.51a9.21,9.21,0,0,1-1-.18.91.91,0,0,1-.83-1C123,57.08,123,56.42,123,55.77Z"/><path class="cls-1" d="M171.48,86.39a1.13,1.13,0,0,1-.45-.17,3.67,3.67,0,0,1-.57-.68,61.46,61.46,0,0,0-4.58-6c-.55-.64-.53-.89.1-1.52s1.36-1.33,2.07-2l10-8.92c3.55-3.18,7-6.43,10.63-9.55,3.07-2.67,5.82-5.64,8.71-8.48s5.91-5.89,8.86-8.84c.21-.21.42-.43.63-.63,1.18-1.14,1.44-1.14,2.55.14a129,129,0,0,1,11,14.33,8.63,8.63,0,0,1,.48.75c.35.63.28,1-.34,1.34-1.59.94-3.2,1.86-4.79,2.78-5.32,3.08-10.65,6.13-15.93,9.24-2.11,1.24-4.13,2.62-6.18,3.95q-10.35,6.72-20.7,13.43A3.78,3.78,0,0,1,171.48,86.39Z"/><path class="cls-1" d="M227.69,115c-1.19,0-2.38,0-3.57,0-4.78-.15-9.53.34-14.3.34-3.12.54-6.32.09-9.44.61a1.45,1.45,0,0,1-.36,0c-3.76-.09-7.49.47-11.25.47-1.84,0-3.67.34-5.53.34-2.3,0-2.23-.13-2.47-2.07-.26-2.19-.47-4.39-.93-6.55a4.55,4.55,0,0,1,0-.53.79.79,0,0,1,.55-.83,7.71,7.71,0,0,1,.86-.21c4.08-.88,8.13-1.88,12.23-2.63,6.11-1.11,12.14-2.52,18.2-3.83,4-.88,8-2,11.94-3.08,3.81-1,7.6-2,11.4-3.06,2-.53,2.08-.48,2.48,1.53.83,4.15,1.49,8.33,1.92,12.54.2,2,.29,3.92.32,5.89,0,.76-.2,1-.92,1-.47,0-.95,0-1.43,0Z"/><path class="cls-1" d="M55.73,116.69c-3.37-.47-6.79-.17-10.16-.61a2.19,2.19,0,0,0-.36,0c-3.1,0-6.19-.25-9.28-.42-4.34-.26-8.69-.43-13-.64-.65,0-1.31,0-2,0H2.87c-.47,0-1,0-1.43,0-1.22-.06-1.49-.36-1.4-1.52,0-.54.14-1.07.16-1.6A107.23,107.23,0,0,1,2.39,95.36c0-.06,0-.12,0-.18.36-1.64.54-1.76,2.19-1.32,7,1.88,14,3.83,21.07,5.64,3.63.93,7.32,1.65,11,2.42,7.05,1.49,14.12,2.94,21.17,4.44,1.83.39,2.5.14,2,2.8-.39,1.92-.54,3.89-.79,5.84,0,.24,0,.48-.07.71-.13.67-.38.93-1.08,1S56.44,116.69,55.73,116.69Z"/><path class="cls-1" d="M154.13,280c0-3.75,0-7.5,0-11.26,0-2.11.13-2.22,2.22-2.23s4.29,0,6.44,0a11.81,11.81,0,0,1,3.86.65,7.08,7.08,0,0,1-1.59,13.67c-.64.11-1.29.19-1.93.32a.46.46,0,0,0-.28.71,8.89,8.89,0,0,0,.7,1q3.15,4.11,6.32,8.21.28.35.54.72c.28.43.88.83.67,1.38s-1,.45-1.58.49a2.47,2.47,0,0,1-2.26-1.15c-2.36-3.14-4.78-6.25-7.18-9.36-.4-.52-.8-1-1.23-1.53a.82.82,0,0,0-1-.27.77.77,0,0,0-.49.69c0,.48-.07.95-.07,1.43,0,2.44,0,4.88,0,7.33,0,.47,0,.95,0,1.42-.09,1.1-.5,1.45-1.62,1.42a2.82,2.82,0,0,1-.7-.1.86.86,0,0,1-.71-.72,15.06,15.06,0,0,1-.12-1.78C154.12,287.42,154.13,283.73,154.13,280Zm3.22-6.29h0c0,1.13,0,2.26,0,3.39,0,.8.33,1.13,1.07,1.14a24.45,24.45,0,0,0,6.39-.29,4.36,4.36,0,0,0,1.75-.83,4.14,4.14,0,0,0,1.37-4.5,3.86,3.86,0,0,0-3.53-3.07,33.84,33.84,0,0,0-6-.08.94.94,0,0,0-1,1C157.31,271.61,157.35,272.68,157.35,273.74Z"/><path class="cls-1" d="M55.14,294.18a16.1,16.1,0,0,1-4.31-.43,13.54,13.54,0,0,1-10.19-12.94,19.51,19.51,0,0,1,.19-3.74,14,14,0,0,1,10.89-10.83,16.47,16.47,0,0,1,6.92,0,14.76,14.76,0,0,1,6.9,3.59,6,6,0,0,1,.48.53c.94,1.15.87,1.6-.34,2.44-.66.46-.93.44-1.57-.14s-.94-.92-1.45-1.32a12.06,12.06,0,0,0-15.61.63,5.34,5.34,0,0,0-.62.64A11.37,11.37,0,0,0,45.29,286a10.33,10.33,0,0,0,8.81,5.29c.6,0,1.19,0,1.79,0a10.85,10.85,0,0,0,7.63-3c.31-.28.6-.58.93-.84a.64.64,0,0,1,.49-.12,3,3,0,0,1,1.74,1.43.8.8,0,0,1-.14.66,9.31,9.31,0,0,1-1.22,1.29A14.53,14.53,0,0,1,55.14,294.18Z"/><path class="cls-1" d="M176,293.75a6.47,6.47,0,0,1-.88-.15.55.55,0,0,1-.41-.69,4.94,4.94,0,0,1,.3-.84c.65-1.41,1.29-2.81,2-4.22l8.7-18.43c.33-.71.65-1.41,1-2.08.5-.87,1.15-.87,1.58,0,.72,1.44,1.39,2.91,2.06,4.37,1.13,2.43,2.23,4.88,3.36,7.31l5.92,12.63a.8.8,0,0,1,.08.16c.17.54.77,1.08.23,1.63a2.32,2.32,0,0,1-2.78-.34,7.71,7.71,0,0,1-.6-1.09c-.82-1.73-1.63-3.45-2.44-5.18-.94-2-1-2-3.08-2h-7.16c-.3,0-.59,0-.89,0a1.75,1.75,0,0,0-1.81,1.17c-.89,1.95-1.83,3.88-2.74,5.82a4.31,4.31,0,0,0-.22.49A2,2,0,0,1,176,293.75Zm11.42-11.85v0h2.33a9.66,9.66,0,0,0,1.07,0c.51-.05.69-.39.52-.89a4.25,4.25,0,0,0-.21-.49l-2.73-5.82c-.1-.22-.21-.43-.32-.64s-.25-.59-.58-.63-.46.33-.58.58q-1.26,2.56-2.49,5.15-.42.89-.78,1.8c-.25.63-.08.94.56,1C185.25,281.92,186.32,281.9,187.39,281.9Z"/><path class="cls-1" d="M90.14,277.09c0,2.62,0,5.25,0,7.87a12.23,12.23,0,0,1-.39,3,8.17,8.17,0,0,1-7.93,6.25,10.55,10.55,0,0,1-6.1-1.62,7.21,7.21,0,0,1-3.08-4.44,15.62,15.62,0,0,1-.46-3.54q0-8,0-16.08c0-.18,0-.36,0-.54.08-1.16.43-1.47,1.56-1.44,1,0,1.28.33,1.35,1.28,0,.53,0,1.07,0,1.61,0,4.7,0,9.41,0,14.11a15.07,15.07,0,0,0,.36,3.55,4.9,4.9,0,0,0,3.26,3.73c2.43.86,5.22.64,7-1.52a5.8,5.8,0,0,0,1.37-3.42c.06-.95.06-1.9.06-2.86V269.09a14.29,14.29,0,0,1,.08-1.6.94.94,0,0,1,.93-.91,4.41,4.41,0,0,1,.89,0,1,1,0,0,1,1,1c0,.48,0,.95,0,1.43v8Z"/><path class="cls-1" d="M129.74,277v-7.87c0-.41,0-.83,0-1.25.07-.95.4-1.25,1.34-1.28,1.14,0,1.5.28,1.56,1.43,0,.54,0,1.08,0,1.61q0,7.34,0,14.66a13,13,0,0,0,.18,2.49,5.31,5.31,0,0,0,4.21,4.35,6.75,6.75,0,0,0,3.37,0,5.32,5.32,0,0,0,3.85-3.65,10.25,10.25,0,0,0,.47-3.35q0-7.41,0-14.83a17.54,17.54,0,0,1,.06-1.78.93.93,0,0,1,.92-.92,3.79,3.79,0,0,1,.89,0,1,1,0,0,1,1,1,9.48,9.48,0,0,1,0,1.07c0,5.12,0,10.25,0,15.37a20,20,0,0,1-.39,3.54,8.14,8.14,0,0,1-8,6.63,11.21,11.21,0,0,1-5.35-1.15A7.59,7.59,0,0,1,130.1,288a12.69,12.69,0,0,1-.34-3v-8Z"/><path class="cls-1" d="M120.13,281.59v9.12c0,.42,0,.83,0,1.25-.07,1.54-.88,2.1-2.36,1.66a1,1,0,0,1-.74-.91,17.67,17.67,0,0,1-.08-1.78q0-9.21,0-18.42c0-.53,0-1.07,0-1.61-.06-1.12-.3-1.37-1.38-1.44-.53,0-1.07,0-1.6,0s-.84,0-1.25,0c-1.57.05-1.78-1-1.38-2.33a.62.62,0,0,1,.52-.44,9.74,9.74,0,0,1,1.42-.13H124.5c1.22.07,1.62.41,1.64,1.4s-.38,1.44-1.73,1.5c-.65,0-1.31,0-2,0-2.25,0-2.31.06-2.32,2.31C120.12,275,120.13,278.31,120.13,281.59Z"/><path class="cls-1" d="M99.46,278.84V288c0,.42,0,.83,0,1.25.05,1.44.21,1.61,1.7,1.63,2,0,3.93,0,5.89,0,.48,0,1,0,1.43,0,1,.07,1.27.37,1.3,1.31,0,1.13-.27,1.47-1.44,1.55-.36,0-.72,0-1.07,0h-8c-.41,0-.83,0-1.25,0-1.07-.08-1.37-.38-1.46-1.4,0-.24,0-.47,0-.71v-23c0-.24,0-.48,0-.72.08-1,.4-1.27,1.33-1.3,1.16,0,1.52.28,1.59,1.4,0,.48,0,1,0,1.43Z"/></g></g></svg>