<svg xmlns="http://www.w3.org/2000/svg" viewBox="0 0 614.68 237.95"><defs><style>.cls-1{fill:#fff;}</style></defs><title>2 - DML 360 Liderazgo Inspirador</title><g id="Capa_2" data-name="Capa 2"><g id="Capa_1-2" data-name="Capa 1"><path class="cls-1" d="M114.39,12.23v8.94c0,.46,0,.92,0,1.38-.08,1.25-.3,1.48-1.53,1.61-1.93.22-3.87.41-5.8.63s-4.09.54-6.11,1a9,9,0,0,1-1,.16c-.69.07-.92-.06-1.13-.76-.38-1.26-.71-2.54-1-3.81q-2.2-8.22-4.39-16.44A13,13,0,0,1,93,3.57a.81.81,0,0,1,.66-1,7.31,7.31,0,0,1,1-.25C98.07,1.64,101.45,1,104.87.65c1.82-.18,3.64-.41,5.47-.57A22,22,0,0,1,112.91,0c.93,0,1.2.27,1.35,1.23a13,13,0,0,1,.12,1.88C114.39,6.16,114.39,9.19,114.39,12.23Z"/><path class="cls-1" d="M114.39,225.67q0,4.72,0,9.45a10.76,10.76,0,0,1-.15,1.88,1,1,0,0,1-1.06.92,31.07,31.07,0,0,1-3.61-.06c-2.78-.28-5.57-.61-8.35-1-2-.27-3.95-.66-5.92-1-.51-.09-1-.2-1.51-.34-.67-.19-.85-.46-.75-1.12a8.52,8.52,0,0,1,.23-1l4.26-15.93c.29-1.06.56-2.11.84-3.16.11-.39.19-.78.32-1.16.3-.9.62-1.1,1.53-1,.68.09,1.36.21,2,.34a93.29,93.29,0,0,0,10.39,1.29l.34,0c1,.11,1.3.38,1.39,1.39,0,.46,0,.92,0,1.37Q114.4,221.12,114.39,225.67Z"/><path class="cls-1" d="M12.17,123.63H21.8c2.24,0,2.32.13,2.46,2.27a90.27,90.27,0,0,0,1.2,9.55c.15.84.31,1.69.43,2.54a1,1,0,0,1-.74,1.19c-.53.2-1.08.37-1.64.52L6.4,144.27c-.88.23-1.76.5-2.65.7s-1.08,0-1.24-.79c-.48-2.36-1-4.72-1.33-7.1-.41-2.66-.72-5.33-1-8-.15-1.48-.15-3-.19-4.47,0-.54.25-.83.83-.9a13.22,13.22,0,0,1,1.54-.06Z"/><path class="cls-1" d="M225.9,123.63c3.27,0,6.54,0,9.81,0,2.19,0,2.38.18,2.3,2.36-.07,1.66-.19,3.33-.38,5-.51,4.22-1,8.43-2,12.58,0,.22-.08.45-.15.67-.19.66-.48.86-1.12.76a9.18,9.18,0,0,1-1-.23l-15.79-4.23c-1.27-.35-2.55-.68-3.82-1a10.31,10.31,0,0,1-1-.29c-.59-.21-.75-.43-.69-1,0-.4.11-.79.18-1.19a76.36,76.36,0,0,0,1.32-9.88,21.08,21.08,0,0,1,.29-2.22c.14-.91.4-1.14,1.35-1.23.46,0,.92,0,1.38,0Z"/><path class="cls-1" d="M182.8,189.77a2.51,2.51,0,0,1,.58.31c.35.29.68.61,1,.93q7.06,7.06,14.12,14.11c1.46,1.46,1.34,1.47-.09,2.76a122.2,122.2,0,0,1-14,10.81c-1.66,1.1-1.75,1.08-2.74-.62l-9.53-16.54c-.4-.7-.81-1.39-1.18-2.1a.74.74,0,0,1,.25-1.06,4.39,4.39,0,0,1,.56-.4,97.93,97.93,0,0,0,9.72-7.39,8.35,8.35,0,0,1,.81-.63A1.58,1.58,0,0,1,182.8,189.77Z"/><path class="cls-1" d="M48.22,55.19a1.2,1.2,0,0,1-.33.82c-.55.66-1.09,1.33-1.65,2a90.22,90.22,0,0,0-5.83,7.65c-1.23,1.77-1.28,1.78-3.12.72l-17-9.78q-.74-.44-1.44-.93a.67.67,0,0,1-.22-.91,9.69,9.69,0,0,1,.62-1A112.91,112.91,0,0,1,29.71,40.09c.42-.47.81-1,1.25-1.42a.66.66,0,0,1,.93-.06,5.81,5.81,0,0,1,.65.56L47.36,54a8.13,8.13,0,0,1,.67.78A1.9,1.9,0,0,1,48.22,55.19Z"/><path class="cls-1" d="M225.88,114.32h-10c-1.78,0-2-.22-2.12-1.91-.25-2.62-.58-5.23-.92-7.84-.14-1.08-.37-2.14-.54-3.22-.09-.51-.17-1-.21-1.53s.13-.81.7-1a10.34,10.34,0,0,1,1-.3l19.26-5.15a9.61,9.61,0,0,1,1.51-.3.75.75,0,0,1,.82.5,6.47,6.47,0,0,1,.28,1c.73,3.48,1.31,7,1.7,10.52.2,1.82.41,3.64.56,5.46a28.45,28.45,0,0,1,0,2.92.79.79,0,0,1-.76.8,11.18,11.18,0,0,1-1.54.09Z"/><path class="cls-1" d="M12,114.32H2.55c-.46,0-.92,0-1.38,0C.26,114.23,0,114,0,113.15c0-1.2,0-2.41.11-3.6A133.44,133.44,0,0,1,2.23,94.92c.43-2.07.6-2.15,2.64-1.6L22.48,98c.83.22,1.66.44,2.48.71s1,.59.92,1.55c0,.17-.06.33-.09.5a90.43,90.43,0,0,0-1.56,11.92,4.57,4.57,0,0,1-.05.52,1.07,1.07,0,0,1-1,1,13.22,13.22,0,0,1-1.54.06Z"/><path class="cls-1" d="M48.22,182.8a2.21,2.21,0,0,1-.28.51c-.29.35-.62.68-.94,1l-14,14-.48.49c-1,.95-1.27,1-2.22-.13-2.77-3.21-5.53-6.44-8-9.91-1-1.46-2-2.93-3-4.39a9.07,9.07,0,0,1-.62-1,.75.75,0,0,1,.25-1.06c.33-.23.69-.42,1-.62L36.64,172c.64-.37,1.31-.71,2-1a.76.76,0,0,1,.94.2,7.14,7.14,0,0,1,.63.82,89.49,89.49,0,0,0,7.47,9.66A1.64,1.64,0,0,1,48.22,182.8Z"/><path class="cls-1" d="M123.71,11.88q0-4.55,0-9.11c0-.34,0-.68,0-1C123.76.18,124,0,125.54,0c1.89.07,3.78.18,5.65.4,3.76.45,7.51.92,11.21,1.7.67.14,1.34.29,2,.48a.82.82,0,0,1,.58.94,3.76,3.76,0,0,1-.12.67q-2.72,10.13-5.44,20.25c-.4,1.52-.52,1.66-2.16,1.33-3.88-.78-7.81-1.19-11.74-1.59-.28,0-.57,0-.85-.08a.9.9,0,0,1-.89-.88,11.42,11.42,0,0,1-.07-1.55C123.7,18.42,123.71,15.15,123.71,11.88Z"/><path class="cls-1" d="M148.39,210.23c0-.54.09-.81.36-.94a9.9,9.9,0,0,1,1.27-.51,96.92,96.92,0,0,0,10.66-4.37c.26-.12.51-.26.78-.36.65-.25.94-.19,1.33.38s.92,1.45,1.35,2.2q4.61,8,9.2,15.93c1.15,2,1.14,2-.9,3a131,131,0,0,1-15.54,6.48c-.44.15-.87.3-1.31.41-.93.25-1.23.09-1.51-.87s-.61-2.21-.91-3.32q-2.26-8.46-4.52-16.94C148.53,210.9,148.44,210.46,148.39,210.23Z"/><path class="cls-1" d="M199.54,31.52a2.66,2.66,0,0,1-.28.49c-.26.3-.54.59-.83.87L184.21,47.11c-1.6,1.6-1.44,1.49-3,.11A113.23,113.23,0,0,0,171.78,40c-.19-.13-.38-.25-.56-.4-.45-.37-.5-.64-.21-1.2.07-.16.17-.3.25-.45q4.53-7.82,9-15.63c.63-1.09,1.24-2.19,1.9-3.27.36-.59.7-.68,1.29-.29,1.49,1,3,1.94,4.42,3,3.32,2.36,6.5,4.9,9.59,7.55.61.52,1.18,1.09,1.74,1.66A2.07,2.07,0,0,1,199.54,31.52Z"/><path class="cls-1" d="M232.58,82.8c0,.53-.11.77-.39.89a8.92,8.92,0,0,1-1.14.37L211,89.44a8.45,8.45,0,0,1-.84.19.77.77,0,0,1-.85-.44c-.17-.36-.31-.74-.45-1.11-1-2.69-2-5.37-3.19-8-.47-1-1-2.07-1.45-3.1-.6-1.27-.57-1.36.58-2l5.34-3.11c4.07-2.35,8.12-4.71,12.21-7,2.2-1.24,2-1.59,3.35,1a116.8,116.8,0,0,1,6.51,15.69C232.36,82,232.49,82.5,232.58,82.8Z"/><path class="cls-1" d="M123.71,225.89c0-3.33,0-6.66,0-10,0-2,.11-2,2-2.15a98.17,98.17,0,0,0,11.08-1.44c2.15-.41,2.19-.39,2.74,1.66q2.52,9.39,5,18.78c.13.5.27,1,.36,1.51.15.75,0,1.07-.81,1.23-1.73.38-3.48.72-5.23,1-3.5.63-7,1-10.58,1.32a28,28,0,0,1-3.43.07c-.76,0-1-.31-1.13-1,0-.51,0-1,0-1.55C123.7,232.2,123.71,229,123.71,225.89Z"/><path class="cls-1" d="M27.6,89.6l-1.07-.27c-6.37-1.71-12.73-3.4-19.09-5.12-2.3-.63-2.3-.65-1.54-2.92a115.39,115.39,0,0,1,6.67-16c.86-1.69.92-1.73,2.57-.79,3.83,2.19,7.64,4.42,11.45,6.63q2.91,1.66,5.8,3.35c.2.11.41.22.6.34,1.29.81,1.37,1,.71,2.33-1.29,2.62-2.4,5.32-3.47,8-.5,1.28-.95,2.58-1.43,3.87C28.64,89.49,28.33,89.7,27.6,89.6Z"/><path class="cls-1" d="M89.57,27.63A1.05,1.05,0,0,1,89,28.8a5,5,0,0,1-.64.26A109.21,109.21,0,0,0,77,33.77l-.32.14c-.87.36-1.08.33-1.55-.45-1-1.61-1.92-3.25-2.86-4.89Q68.46,22,64.7,15.47a12.73,12.73,0,0,1-.65-1.21c-.26-.6-.16-.93.45-1.28s1.51-.82,2.29-1.18c3.33-1.52,6.65-3.07,10.09-4.34,1.72-.64,3.46-1.2,5.2-1.79a4,4,0,0,1,.83-.21.69.69,0,0,1,.82.46,9.07,9.07,0,0,1,.37,1.15q2.57,9.54,5.11,19.08C89.36,26.7,89.48,27.26,89.57,27.63Z"/><path class="cls-1" d="M155.19,5.44c.17,0,.5.12.82.23a115,115,0,0,1,17,7.07,5.6,5.6,0,0,1,.88.54.62.62,0,0,1,.2.77c-.17.37-.35.72-.55,1.07l-7,12.07-3.28,5.66a9.1,9.1,0,0,1-.65,1,.76.76,0,0,1-.92.25,7.91,7.91,0,0,1-.79-.35,93.19,93.19,0,0,0-11.26-4.7c-.27-.1-.54-.2-.79-.32a.75.75,0,0,1-.48-.83,12,12,0,0,1,.29-1.35l5-18.61c.2-.71.43-1.42.68-2.12C154.43,5.54,154.69,5.4,155.19,5.44Z"/><path class="cls-1" d="M210.43,148.46l1.21.28L231.08,154c1.67.45,1.73.58,1.18,2.29a102.69,102.69,0,0,1-5.36,13.41c-.35.72-.65,1.47-1,2.18a17.71,17.71,0,0,1-1,1.8c-.3.48-.63.54-1.19.3a6.8,6.8,0,0,1-.76-.39l-13.55-7.84-3.73-2.15c-.4-.23-.81-.44-1.19-.69-.69-.47-.76-.72-.47-1.44.09-.21.19-.41.3-.62A88.65,88.65,0,0,0,208.81,150c.12-.32.23-.64.37-1A1.06,1.06,0,0,1,210.43,148.46Z"/><path class="cls-1" d="M55.12,219.47c-.25-.11-.52-.21-.76-.34a55.32,55.32,0,0,1-4.7-3.18,125.79,125.79,0,0,1-10.08-8c-1.37-1.17-1.39-1.39-.1-2.68Q46.71,198,54,190.76c1.3-1.29,1.4-1.27,2.79,0a88.38,88.38,0,0,0,8.56,6.62c.47.33,1,.64,1.4,1a.86.86,0,0,1,.27,1.22,7.83,7.83,0,0,1-.47.91q-5,8.72-10.06,17.43c-.26.44-.55.87-.85,1.28C55.5,219.31,55.31,219.36,55.12,219.47Z"/><path class="cls-1" d="M34.17,162.08a2.14,2.14,0,0,1-.39.56,8.66,8.66,0,0,1-1.13.77L14.91,173.65c-.19.11-.39.22-.6.32a.82.82,0,0,1-1.19-.32,9.69,9.69,0,0,1-.58-1.05,110.08,110.08,0,0,1-6.73-16.19c-.14-.43-.27-.87-.37-1.32a.7.7,0,0,1,.46-.83,12.4,12.4,0,0,1,1.31-.41l18.78-5a15.69,15.69,0,0,1,1.68-.37,1,1,0,0,1,1.13.58,4,4,0,0,1,.21.47,96.39,96.39,0,0,0,4.89,11.75A6.93,6.93,0,0,1,34.17,162.08Z"/><path class="cls-1" d="M89.54,210.65a5.32,5.32,0,0,1-.13.52l-3.73,14c-.48,1.77-1,3.54-1.43,5.32-.13.49-.27,1-.45,1.48s-.49.75-1.2.58c-.28-.07-.55-.16-.82-.25a99.06,99.06,0,0,1-9.65-3.64c-2.16-.93-4.27-2-6.4-3-.25-.12-.51-.25-.76-.39-1.25-.68-1.32-.89-.6-2.14l9.12-15.78c.46-.8.89-1.61,1.38-2.38.76-1.22.95-1.27,2.21-.69s2.6,1.2,3.91,1.8c2.24,1,4.56,1.86,6.88,2.71.37.14.75.28,1.12.44S89.66,209.81,89.54,210.65Z"/><path class="cls-1" d="M219.46,55.13c0,.42-.33.6-.63.77l-4.31,2.51-13,7.46c-.7.4-1.4.8-2.11,1.16a.68.68,0,0,1-1-.23c-.58-.78-1.14-1.58-1.7-2.38-1.77-2.54-3.68-5-5.69-7.32-1.72-2-1.74-1.66.12-3.53l14-14c1.42-1.41,1.45-1.44,2.78,0,2.23,2.46,4.33,5,6.33,7.7,1.65,2.2,3.26,4.43,4.74,6.75A2,2,0,0,1,219.46,55.13Z"/><path class="cls-1" d="M67.16,39.08a2.51,2.51,0,0,1-.34.51,8.7,8.7,0,0,1-1,.72,91.41,91.41,0,0,0-9.65,7.44c-.13.11-.26.23-.4.33a.7.7,0,0,1-.94,0c-.26-.22-.51-.46-.75-.7L39.53,32.77l-.25-.25c-1-1.08-1-1.15.08-2.15a118.92,118.92,0,0,1,14.25-11c1.67-1.13,1.71-1.13,2.69.56C59,24.6,61.75,29.31,64.48,34L66.7,37.9A2.84,2.84,0,0,1,67.16,39.08Z"/><path class="cls-1" d="M219.42,183.06a5.88,5.88,0,0,1-.31.61c-.79,1.2-1.57,2.4-2.39,3.57a101.58,101.58,0,0,1-8.87,11.17c-.2.21-.38.43-.59.63-.57.57-.81.58-1.44,0-.3-.27-.58-.56-.86-.85l-13.87-13.87c-1.8-1.8-1.66-1.51-.2-3.23a89.5,89.5,0,0,0,7-9.16l.1-.15c.78-1.08,1-1.13,2.1-.5q2.33,1.31,4.63,2.64l12.95,7.49c.5.29,1,.6,1.47.91A.68.68,0,0,1,219.42,183.06Z"/><path class="cls-1" d="M330.46,101.19c-.29,2.08-.56,3.89-.81,5.71q-.81,6-1.61,11.92c-.16,1.25-.32,2.51-.49,3.76a8.17,8.17,0,0,1-.14.84,1,1,0,0,1-1,.84l-.17,0c-2.51.13-2.44-.14-2.17-2.2.57-4.26,1.22-8.51,1.83-12.77L327.82,96c.15-1.08.28-2.16.45-3.23a9.64,9.64,0,0,1,.4-1.49.45.45,0,0,1,.72-.11,4.41,4.41,0,0,1,.58.85c1.29,2.62,2.57,5.25,3.86,7.87,1.09,2.21,2.18,4.43,3.28,6.64q2.29,4.62,4.6,9.24c.23.46.48.91.74,1.36a.36.36,0,0,0,.58,0,10.74,10.74,0,0,0,.58-1q4.36-9,8.71-18c.95-2,1.93-3.91,2.89-5.87l.32-.61c.17-.29.35-.64.75-.61s.52.41.58.74c.23,1.36.44,2.72.64,4.08.65,4.48,1.28,9,1.92,13.45q.91,6.38,1.84,12.76l0,.35c.18,1.75,0,1.9-1.67,1.86l-.51,0c-.82-.09-1.13-.33-1.26-1.16-.26-1.64-.48-3.28-.71-4.93-.28-2.1-.54-4.21-.83-6.31-.41-3.07-.85-6.13-1.28-9.19a3.85,3.85,0,0,0-.19-.83.25.25,0,0,0-.41-.1,4.13,4.13,0,0,0-.55.87q-1.28,2.53-2.52,5.08-3.69,7.5-7.35,15a8,8,0,0,1-.49.91c-.46.74-1.12.75-1.63,0a13.57,13.57,0,0,1-.82-1.5l-6.68-13.59c-1-2-1.94-3.91-2.92-5.85A3.75,3.75,0,0,0,330.46,101.19Z"/><path class="cls-1" d="M291,107.6c0-4.76,0-9.52,0-14.27a14.06,14.06,0,0,1,.1-1.72.76.76,0,0,1,.68-.68,9.51,9.51,0,0,1,1.19-.08c3,0,6.08,0,9.12,0a22.92,22.92,0,0,1,5.94.86,14.72,14.72,0,0,1,9.06,7.17,17.92,17.92,0,0,1,2.16,7.89,18.64,18.64,0,0,1-1.26,8.09,14.34,14.34,0,0,1-4.76,6.4,13.55,13.55,0,0,1-5,2.32,25,25,0,0,1-5.45.69c-3.26,0-6.53,0-9.8,0-1.89,0-2-.16-2-2.09C291,117.35,291,112.47,291,107.6Zm3.49,0q0,5.33,0,10.65c0,.51,0,1,0,1.54s.32.91,1,1c.4,0,.8,0,1.2,0a64.52,64.52,0,0,0,8.23-.38A11.17,11.17,0,0,0,315.31,111a18.31,18.31,0,0,0,0-6,11.91,11.91,0,0,0-3.78-7.15,13,13,0,0,0-7.3-3.12,55.36,55.36,0,0,0-7.72-.36c-1.91,0-2,.11-2,2.06Q294.49,102,294.49,107.6Z"/><path class="cls-1" d="M450.72,107.6a35.69,35.69,0,0,1,.34-6.69,17.45,17.45,0,0,1,1.81-5.35,9.82,9.82,0,0,1,8-5.48,9.92,9.92,0,0,1,8.85,3.65,16.33,16.33,0,0,1,3.4,8.16,39.75,39.75,0,0,1,.31,8.58,21.57,21.57,0,0,1-1.32,6.73,13.83,13.83,0,0,1-3.35,5.15,10.13,10.13,0,0,1-12,1.34,11.24,11.24,0,0,1-4.57-5.45,20,20,0,0,1-1.53-7.19C450.7,109.9,450.72,108.75,450.72,107.6Zm19.31,0a24.39,24.39,0,0,0-.72-7.18,12.58,12.58,0,0,0-1.56-3.61,6.53,6.53,0,0,0-9.94-1.86,5.55,5.55,0,0,0-1.21,1.21,11.18,11.18,0,0,0-1.69,3.36,34.2,34.2,0,0,0-.85,10.39,16.44,16.44,0,0,1,.15,1.71,15.92,15.92,0,0,0,.7,4.06,8.7,8.7,0,0,0,3.09,4.64,6,6,0,0,0,5.81,1.14,7,7,0,0,0,3.79-2.8,12.77,12.77,0,0,0,1.66-3.76A24.34,24.34,0,0,0,470,107.59Z"/><path class="cls-1" d="M411.9,125c-5.46,0-8.55-1.64-10.7-5a11.6,11.6,0,0,1-1.41-3.68c-.21-.92.07-1.23,1.06-1.3.23,0,.46,0,.69,0a1.65,1.65,0,0,1,1.9,1.34,7.09,7.09,0,0,0,.65,1.59,6.29,6.29,0,0,0,5.49,3.56,21.53,21.53,0,0,0,2.41,0,6.92,6.92,0,0,0,5.68-10,6.45,6.45,0,0,0-4-3.34,19.32,19.32,0,0,0-3.71-.72c-1-.12-1.18-.35-1.25-1.3,0-.22,0-.45,0-.68,0-1.15.21-1.37,1.39-1.52a10.65,10.65,0,0,0,3.45-1,4.59,4.59,0,0,0,2.76-4,4.74,4.74,0,0,0-2.46-4.6,6.12,6.12,0,0,0-5.13-.67,6.19,6.19,0,0,0-3.38,2.78,9.27,9.27,0,0,0-.72,1.36,1.59,1.59,0,0,1-1.64,1,12.56,12.56,0,0,1-1.37-.06c-.61-.09-.85-.49-.73-1.13a2,2,0,0,1,.09-.33c1.41-4.22,4.37-7.18,9.37-7.24a9.44,9.44,0,0,1,8.69,4.62,7.51,7.51,0,0,1-1.36,9.56c-1.31,1.14-1.48,1.14.16,2.26a8.8,8.8,0,0,1,3.3,3.89,9.92,9.92,0,0,1-.47,8.94A10.46,10.46,0,0,1,411.9,125Z"/><path class="cls-1" d="M447.39,114.75c.12,6.45-5.36,10.26-10.44,10.3a10.22,10.22,0,0,1-10.27-10.93,13.89,13.89,0,0,1,1.85-5.87c.56-1,1.17-2,1.8-2.93q4.49-6.73,9-13.45c1.28-1.91,1.4-1.93,3.33-.58a2.45,2.45,0,0,1,.41.31.58.58,0,0,1,.14.77c-.25.45-.53.89-.81,1.32l-6.52,9.92a10.87,10.87,0,0,0-.61,1,.24.24,0,0,0,.22.35,5.88,5.88,0,0,0,1-.08,9.11,9.11,0,0,1,6.41,1.4A9.7,9.7,0,0,1,447.39,114.75Zm-10.46-6.64a6.68,6.68,0,0,0-6.75,6.77,6.84,6.84,0,0,0,13.67-.15A6.77,6.77,0,0,0,436.93,108.11Z"/><path class="cls-1" d="M193.13,115.32h-5.67c-.4,0-.8,0-1.2,0-1.26-.07-1.49-.28-1.64-1.5-.31-2.49-.54-5-1-7.47a8.24,8.24,0,0,1-.11-.85c-.05-.68.1-.93.78-1.13,1.1-.33,2.2-.63,3.31-.92l9.45-2.54.66-.17c1.84-.45,1.87-.43,2.26,1.42a64.85,64.85,0,0,1,1.27,9c.05.63.18,1.25.23,1.88a6.87,6.87,0,0,1,0,1.36.87.87,0,0,1-.76.82,9.76,9.76,0,0,1-1.53.12Z"/><path class="cls-1" d="M74.8,49.38a1.44,1.44,0,0,1,.5.29,7,7,0,0,1,.78,1.12q3.24,5.57,6.46,11.15c.92,1.61.9,1.63-.67,2.69a54.11,54.11,0,0,0-5.69,4.42,5.4,5.4,0,0,1-.52.45.94.94,0,0,1-1.39-.07c-.26-.22-.51-.46-.75-.7q-4.62-4.62-9.23-9.23c-.2-.21-.41-.41-.59-.62-.49-.58-.47-.93.13-1.46a96.7,96.7,0,0,1,9.49-7.37A3.48,3.48,0,0,1,74.8,49.38Z"/><path class="cls-1" d="M175.12,58.28a1.56,1.56,0,0,1-.18.41c-.3.34-.61.68-.94,1l-8.86,8.87-.37.36c-1.1,1-1.36,1.1-2.43.13a54.39,54.39,0,0,0-6-4.6c-.24-.16-.47-.32-.7-.5a.75.75,0,0,1-.24-.92,7.83,7.83,0,0,1,.47-.91q3.17-5.52,6.34-11a12.55,12.55,0,0,1,.84-1.3c.39-.52.74-.58,1.34-.25a9.87,9.87,0,0,1,.88.54,84.26,84.26,0,0,1,7.9,6c.51.46,1.06.87,1.57,1.33A.92.92,0,0,1,175.12,58.28Z"/><path class="cls-1" d="M180,174.85a3.71,3.71,0,0,1-.63-.34,9.71,9.71,0,0,1-.88-.82l-8.86-8.86c-.12-.12-.25-.24-.36-.36-.91-1-.93-1.15-.14-2.19.55-.72,1.16-1.41,1.71-2.14,1.1-1.46,2.18-2.95,3.28-4.4.55-.72.79-.78,1.6-.33,1.94,1.09,3.88,2.21,5.81,3.32l6.24,3.62a5.58,5.58,0,0,1,.58.35c.64.45.76.8.35,1.44-.68,1.06-1.39,2.1-2.11,3.13-1.56,2.2-3.29,4.26-5,6.32a8.08,8.08,0,0,1-1,1A2.65,2.65,0,0,1,180,174.85Z"/><path class="cls-1" d="M70.06,163.35a2.57,2.57,0,0,1-.23.47,10,10,0,0,1-.71.75q-4.56,4.58-9.13,9.13c-1.51,1.51-1.69,1.46-3.07-.14a89.21,89.21,0,0,1-5.82-7.45c-.49-.71-1-1.42-1.41-2.16a.73.73,0,0,1,.21-1.06,7.24,7.24,0,0,1,.87-.57c3.67-2.12,7.34-4.26,11-6.36,2.12-1.2,2-1.23,3.35.78a45.81,45.81,0,0,0,3.66,4.78,17,17,0,0,1,1,1.36A2.22,2.22,0,0,1,70.06,163.35Z"/><path class="cls-1" d="M45.13,122.23H51c.29,0,.58,0,.86,0,1.3.07,1.59.32,1.64,1.67a60.23,60.23,0,0,0,.86,6.82c0,.23.1.45.12.67.16,1.22,0,1.55-1.2,1.88-1.54.44-3.1.85-4.65,1.26-2.76.75-5.53,1.48-8.3,2.22a5.08,5.08,0,0,1-.84.19,1,1,0,0,1-1.19-.72,5.87,5.87,0,0,1-.23-.82,94.67,94.67,0,0,1-1.4-10,12.88,12.88,0,0,1,0-2.06.93.93,0,0,1,.93-1,12.73,12.73,0,0,1,1.38-.05Z"/><path class="cls-1" d="M98.8,55.47a.87.87,0,0,1-.4.81,6,6,0,0,1-.78.35,64.62,64.62,0,0,0-7.12,3l-.31.15c-.87.37-1.08.34-1.56-.45Q87,56.69,85.5,54q-1.86-3.19-3.7-6.4c-1-1.81-1-2,.89-3a89,89,0,0,1,10.16-4.2l.16-.06c1.49-.47,1.67-.38,2.08,1.06.36,1.27.69,2.54,1,3.82q1.25,4.65,2.47,9.3C98.67,54.89,98.75,55.23,98.8,55.47Z"/><path class="cls-1" d="M55.6,139.49a1,1,0,0,1,1,.48,6.52,6.52,0,0,1,.41.94,53.94,53.94,0,0,0,2.78,6.67l.15.31c.48,1.1.45,1.28-.64,1.93-2,1.17-4,2.31-5.95,3.45l-5.67,3.26c-.3.17-.59.36-.9.51a.85.85,0,0,1-1.31-.35,6.79,6.79,0,0,1-.41-.75,91.13,91.13,0,0,1-4.22-10.17,9.89,9.89,0,0,1-.36-1.32.92.92,0,0,1,.63-1.09,6.41,6.41,0,0,1,.82-.25l12.8-3.44C55.06,139.59,55.4,139.53,55.6,139.49Z"/><path class="cls-1" d="M139.77,55.29c.06-.26.12-.6.21-.93,1.11-4.15,2.2-8.31,3.34-12.46.56-2.06.6-2.07,2.56-1.38a84,84,0,0,1,10,4.16c1.77.89,1.85,1.14.85,2.87q-3.21,5.6-6.44,11.18c-.82,1.42-.91,1.48-2.43.79a71.51,71.51,0,0,0-7.31-3C139.83,56.26,139.69,56,139.77,55.29Z"/><path class="cls-1" d="M182.87,98.54c-.5,0-.76-.12-.91-.38a5.63,5.63,0,0,1-.42-.94,55.88,55.88,0,0,0-2.89-7,5,5,0,0,1-.22-.47c-.24-.65-.18-.93.4-1.32.86-.57,1.75-1.1,2.64-1.61q4.53-2.64,9.07-5.24c2-1.16,2.12-1.1,3.14,1a78,78,0,0,1,4.07,9.83c.63,1.93.62,2-1.28,2.46L184,98.27Z"/><path class="cls-1" d="M55.37,98.47s-.28-.08-.56-.15L41.69,94.83c-1.49-.4-1.57-.52-1-2a77.25,77.25,0,0,1,4.59-10.91c.66-1.26.81-1.31,2.12-.6,1.11.6,2.19,1.24,3.29,1.87l8.18,4.72c1.61.93,1.64,1,.88,2.67-1,2.13-1.92,4.28-2.69,6.5-.12.33-.24.65-.38,1S56.1,98.59,55.37,98.47Z"/><path class="cls-1" d="M139.72,182.63a.83.83,0,0,1,.35-.87,9.92,9.92,0,0,1,1.1-.49c2.31-.87,4.6-1.76,6.82-2.85a5,5,0,0,1,.64-.25.86.86,0,0,1,1.07.3,13.62,13.62,0,0,1,.86,1.28q3.23,5.59,6.44,11.18c.73,1.27.69,1.41-.61,2.09a68.72,68.72,0,0,1-10.78,4.5,9.17,9.17,0,0,1-1,.28.75.75,0,0,1-1-.52,6.1,6.1,0,0,1-.28-.82q-1.77-6.65-3.55-13.3C139.78,182.94,139.74,182.72,139.72,182.63Z"/><path class="cls-1" d="M45,115.71H39a12.73,12.73,0,0,1-1.38,0,.94.94,0,0,1-1-1,15.09,15.09,0,0,1,0-2.23c.33-3.36.78-6.71,1.43-10,0-.11,0-.22.08-.33.29-1,.59-1.22,1.62-1,1.66.42,3.32.87,5,1.31l7.64,2.07c.27.07.56.13.83.21,1.17.37,1.39.69,1.23,1.87-.23,1.65-.49,3.29-.71,4.93-.11.79-.19,1.59-.25,2.39-.11,1.66-.24,1.8-2,1.82-1.49,0-3,0-4.47,0Z"/><path class="cls-1" d="M182.53,139c.57.14,1.3.31,2,.5l10.3,2.75c.71.2,1.43.41,2.13.65s.69.49.55,1.07a7.88,7.88,0,0,1-.24.83,69.12,69.12,0,0,1-4.5,10.78c-.68,1.32-.8,1.38-2.08.66-2.49-1.41-5-2.86-7.45-4.29l-3.72-2.15c-.35-.2-.71-.38-1-.61a1.1,1.1,0,0,1-.48-1.61c.35-.85.78-1.66,1.13-2.51.71-1.75,1.39-3.52,2.1-5.27C181.55,139.06,181.78,138.92,182.53,139Z"/><path class="cls-1" d="M94,197.83a5.74,5.74,0,0,1-.71-.17,72.78,72.78,0,0,1-11.58-4.83,1.94,1.94,0,0,1-.43-.27.63.63,0,0,1-.24-.76,6,6,0,0,1,.37-.77q3.38-5.81,6.75-11.6c.95-1.61,1-1.62,2.69-.83,2.12,1,4.32,1.85,6.51,2.7,1.57.6,1.61.67,1.19,2.27q-1.72,6.48-3.49,13a6.56,6.56,0,0,1-.37,1C94.61,197.7,94.4,197.8,94,197.83Z"/><path class="cls-1" d="M75,168.29a2.39,2.39,0,0,1,.54.26c.81.63,1.62,1.27,2.42,1.92,1.46,1.2,3,2.32,4.55,3.39.77.52.81.71.34,1.56-1,1.7-1.93,3.38-2.9,5.07l-4,6.85a10.82,10.82,0,0,1-.65,1,.71.71,0,0,1-1.06.2c-.35-.19-.67-.43-1-.64a94.09,94.09,0,0,1-9-6.9,5,5,0,0,1-.62-.6.71.71,0,0,1,0-1.07c.19-.22.39-.42.59-.62q4.8-4.82,9.61-9.61A2.33,2.33,0,0,1,75,168.29Z"/><path class="cls-1" d="M70,74.85a3.23,3.23,0,0,1-.41.76,78.79,78.79,0,0,0-5.16,6.65c-.52.71-.83.78-1.61.35-1.75-1-3.49-2-5.22-3l-5.81-3.36c-.6-.35-1.19-.69-1.76-1.07s-.55-.64-.27-1.18c.11-.2.24-.39.36-.59a76.21,76.21,0,0,1,7.57-9.78c.54-.58.83-.58,1.45,0,.22.19.42.4.62.6l9.12,9.12a9.82,9.82,0,0,1,.82.89A2.63,2.63,0,0,1,70,74.85Z"/><path class="cls-1" d="M174.94,82.9a2.32,2.32,0,0,1-.5-.25,4.38,4.38,0,0,1-.55-.66,56.63,56.63,0,0,0-4.61-6c-.11-.13-.22-.27-.32-.41-.49-.71-.48-1,.1-1.67.18-.21.39-.41.6-.61q4.54-4.57,9.12-9.12c1.37-1.37,1.38-1.33,2.63.08a77.22,77.22,0,0,1,6.7,8.71c1.16,1.75,1.18,1.78-.63,2.83q-5.8,3.38-11.62,6.7A6.61,6.61,0,0,1,174.94,82.9Z"/><path class="cls-1" d="M175.08,179.84a1.42,1.42,0,0,1-.2.47,7.57,7.57,0,0,1-.84.86,78.78,78.78,0,0,1-9.32,7,5.48,5.48,0,0,1-.74.43.62.62,0,0,1-.77-.19,9.68,9.68,0,0,1-.67-1l-6.44-11.17-.09-.15c-.84-1.53-.78-1.75.68-2.79a53.89,53.89,0,0,0,5-3.87,11.26,11.26,0,0,1,1.09-.84c.61-.45.81-.44,1.35,0,.25.23.49.48.74.72L174,178.5c.28.29.56.57.82.88A1.65,1.65,0,0,1,175.08,179.84Z"/><path class="cls-1" d="M193.15,121.84h6c.4,0,.8,0,1.2,0,.82.07,1.07.36,1.12,1.21a3,3,0,0,1,0,.52,95.49,95.49,0,0,1-1.61,11.55,6,6,0,0,1-.22.83.71.71,0,0,1-.81.49,9.87,9.87,0,0,1-1.18-.24l-12.27-3.31c-2.1-.57-2.06-.56-1.72-2.69s.62-4.53.92-6.8c0-.28.07-.57.13-.85a.83.83,0,0,1,.71-.66,10.39,10.39,0,0,1,1.37-.08Z"/><path class="cls-1" d="M122.63,193.26v-5.67c0-.4,0-.8,0-1.2.06-1.21.23-1.38,1.39-1.53,1.87-.23,3.75-.45,5.62-.69.79-.11,1.58-.29,2.37-.4s1.14,0,1.4.85c.45,1.48.84,3,1.24,4.47.81,3,1.61,6.09,2.41,9.13.39,1.47.3,1.62-1.25,1.95-1,.22-2,.37-3,.56-2.59.48-5.22.64-7.83,1a5.32,5.32,0,0,1-.69,0c-1.32,0-1.6-.25-1.61-1.61,0-2.29,0-4.58,0-6.87Z"/><path class="cls-1" d="M122.64,44.65c0-2.24,0-4.47,0-6.71,0-1.6.25-1.76,1.83-1.6,1.83.18,3.66.27,5.47.52,2.1.29,4.18.7,6.26,1.06a2.39,2.39,0,0,1,.65.23.67.67,0,0,1,.4.69A6.64,6.64,0,0,1,137,40q-1.68,6.31-3.39,12.61c-.49,1.81-.49,1.8-2.35,1.48a43.49,43.49,0,0,0-5.79-.76,10.91,10.91,0,0,1-1.7-.26c-.94-.19-1.13-.38-1.15-1.4,0-2.35,0-4.69,0-7Z"/><path class="cls-1" d="M115.86,44.6v6c0,.35,0,.69,0,1-.07,1.09-.22,1.26-1.27,1.48a5.2,5.2,0,0,1-1,.18,65,65,0,0,0-7,.92c-1,.15-1.22,0-1.54-.91-.12-.32-.2-.66-.29-1q-1.6-6-3.22-12.11c-.07-.27-.16-.54-.23-.82-.21-1-.06-1.26.94-1.44,2.08-.4,4.16-.78,6.25-1.07s4-.41,6-.59c1-.09,1.33.2,1.36,1.28,0,1.48,0,3,0,4.46Z"/><path class="cls-1" d="M115.86,193.35v6c0,.4,0,.8,0,1.2-.08.83-.37,1.1-1.2,1.15a3,3,0,0,1-.52,0,89.37,89.37,0,0,1-11.74-1.64,5,5,0,0,1-.66-.18.66.66,0,0,1-.44-.67,5.87,5.87,0,0,1,.17-1c1.18-4.43,2.38-8.86,3.57-13.29l0-.17c.32-1,.48-1.11,1.47-1s1.69.29,2.55.4c1.81.24,3.64.46,5.46.69,1,.13,1.28.34,1.3,1.43,0,2.35,0,4.7,0,7Z"/><path class="cls-1" d="M422.87,152c0,1.43,0,2.86,0,4.3a32.59,32.59,0,0,1-.33,5.13,7.14,7.14,0,0,1-4.41,5.93,11.07,11.07,0,0,1-11-1,7.14,7.14,0,0,1-2.29-2.95.59.59,0,0,1,.5-.88,2.11,2.11,0,0,1,2.26.85,6.41,6.41,0,0,0,5.22,2.53,8.43,8.43,0,0,0,4-.6,5,5,0,0,0,3.25-4.11,6.06,6.06,0,0,0,.2-2.2c0-.22-.36-.4-.53-.29a6.3,6.3,0,0,0-.82.62c-3,2.65-8.77,2.53-11.88-.43a8.58,8.58,0,0,1-2.86-6,9.28,9.28,0,0,1,1-5.15,9,9,0,0,1,7.94-4.89,8.52,8.52,0,0,1,5.59,1.82c.37.28.72.58,1.09.83a.26.26,0,0,0,.41-.16c.09-.45.11-.91.2-1.35s.43-.7,1-.72,1.13.19,1.22.69a7,7,0,0,1,.11,1.37C422.88,147.54,422.87,149.77,422.87,152Zm-16.18.14a6.89,6.89,0,0,0,13.77,0c-.07-4.44-2.92-7-6.85-7.07A7,7,0,0,0,406.69,152.15Z"/><path class="cls-1" d="M367.8,107.61c0-4.81,0-9.62,0-14.43,0-2.37.25-2.38,2.48-2.31.94,0,1.2.29,1.27,1.24,0,.57,0,1.15,0,1.72v24.41c0,2.55,0,2.55,2.57,2.56h8.42c1.37,0,1.76.14,1.75,1.84a5.34,5.34,0,0,1-.05.69,1,1,0,0,1-1,.94,8.78,8.78,0,0,1-1,0H370c-2.11,0-2.2-.09-2.2-2.26C367.79,117.24,367.8,112.43,367.8,107.61Z"/><path class="cls-1" d="M331.31,148.63q0,5.07,0,10.14a11.42,11.42,0,0,1-.07,1.55c-.08.56-.47.82-1.12.83a1,1,0,0,1-1.16-.78.86.86,0,0,1,0-.17c-.31-1.31-.34-1.34-1.43-.48a9.07,9.07,0,0,1-4.35,1.92,8.66,8.66,0,0,1-8.46-3.45,9.46,9.46,0,0,1-1.61-8.79,9.25,9.25,0,0,1,8.52-6.59,8.59,8.59,0,0,1,6.26,2.31l.13.12c.17.14.35.34.59.26s.28-.46.3-.73,0-.8,0-1.2v-4.82c0-.4,0-.8,0-1.2.08-1,.54-1.31,1.48-1.17a.86.86,0,0,1,.83.74,13.24,13.24,0,0,1,.08,1.54C331.31,142,331.31,145.31,331.31,148.63Zm-2.41,3.44c0-.07,0-.3,0-.53A6.81,6.81,0,0,0,317.4,147a7.15,7.15,0,0,0-1,9.39,6.72,6.72,0,0,0,7.66,2.77A6.82,6.82,0,0,0,328.9,152.07Z"/><path class="cls-1" d="M579.87,148.9v9.63c0,.45,0,.91,0,1.37-.07,1-.5,1.34-1.44,1.24-.53-.06-.77-.28-.91-.86-.06-.28,0-.58-.13-.85a.35.35,0,0,0-.54-.23c-.39.23-.75.52-1.12.78a8.67,8.67,0,0,1-11.63-.83,9.53,9.53,0,0,1,3.16-15.75,8.42,8.42,0,0,1,8.87,1.43c.22.19.42.39.65.57s.6.11.63-.21.06-.8.06-1.2v-5.16c0-.46,0-.92,0-1.38.08-.81.43-1.11,1.23-1.09a1,1,0,0,1,1.12,1c0,.51,0,1,0,1.55C579.87,142.25,579.87,145.58,579.87,148.9Zm-2.43,3a3.29,3.29,0,0,0,0-.68,6.81,6.81,0,0,0-11.32-4.42,7.16,7.16,0,0,0-1.07,9.64,6.69,6.69,0,0,0,7.38,2.72A6.86,6.86,0,0,0,577.44,151.92Z"/><path class="cls-1" d="M499.63,155.35v-9.64c0-.46,0-.92,0-1.37a1.21,1.21,0,0,1,1.89-.94.91.91,0,0,1,.4.52c.09.38.09.79.15,1.19s.36.53.73.24l.38-.35a8.11,8.11,0,0,1,6-2.18,9,9,0,0,1,6.08,2.43,9.63,9.63,0,0,1,.36,13.59,9.75,9.75,0,0,1-4.51,2.68,8.62,8.62,0,0,1-6.9-1.25c-.49-.31-.94-.67-1.41-1s-.69-.08-.7.38c0,1.78,0,3.55,0,5.33,0,.57,0,1.15-.06,1.72s-.45,1-1.16,1-1.09-.3-1.16-1c-.05-.51-.05-1-.05-1.55Zm16.17-3.09A7.1,7.1,0,0,0,515,149a6.84,6.84,0,0,0-12.75,1,8,8,0,0,0,0,4.72,7,7,0,0,0,13.57-2.38Z"/><path class="cls-1" d="M345.8,152.51h-5.68c-.41,0-.81,0-1.21,0-.61,0-.86.32-.79.87a6.39,6.39,0,0,0,2.82,4.9,6.93,6.93,0,0,0,9.25-1.6c.16-.24.33-.47.5-.7.56-.69.85-.75,1.62-.37s1,.79.48,1.63a8.82,8.82,0,0,1-6,4.26,10.64,10.64,0,0,1-5.26-.28,7.5,7.5,0,0,1-4.28-3.27,9.65,9.65,0,0,1-.91-9.8,9.46,9.46,0,0,1,3.8-4.33,7,7,0,0,1,3.25-1,10,10,0,0,1,6.14,1.22,9.19,9.19,0,0,1,4.3,7.45.8.8,0,0,1-.67.87,7.83,7.83,0,0,1-1.37.11c-2,0-4,0-6,0Zm-1.19-2.1h4.64a9.65,9.65,0,0,0,1.2-.06.55.55,0,0,0,.5-.73,5.59,5.59,0,0,0-2.47-3.39,6.5,6.5,0,0,0-9.9,3.16c-.24.64,0,1,.71,1,.4,0,.8,0,1.2,0Z"/><path class="cls-1" d="M386,152.3v6.53a12.47,12.47,0,0,1,0,1.37c-.06.72-.35,1.09-.85,1.1a1.3,1.3,0,0,1-1.51-1.06c-.28-1.5-.31-1.48-1.43-.57a9.05,9.05,0,0,1-14.65-5.24,8.86,8.86,0,0,1,1.37-7.53,9,9,0,0,1,13.24-2.14c.37.29.63,1,1.21.72.42-.21.19-.84.28-1.28.13-.71.44-1,1.18-1a1,1,0,0,1,1.15,1,12.64,12.64,0,0,1,.05,1.37C386,147.84,386,150.07,386,152.3Zm-16.15.18a2.17,2.17,0,0,0,0,.41,6.68,6.68,0,0,0,4.54,6.1,6.57,6.57,0,0,0,7.27-1.65,7.37,7.37,0,0,0-1.78-11.48,5.85,5.85,0,0,0-3.8-.79A6.9,6.9,0,0,0,369.86,152.48Z"/><path class="cls-1" d="M557.11,152.39c0,2.24,0,4.47,0,6.7a10.39,10.39,0,0,1-.08,1.37.85.85,0,0,1-.73.83c-.64.08-1.33-.2-1.46-.65s-.15-.9-.27-1.34a.37.37,0,0,0-.56-.2,4.81,4.81,0,0,0-.67.52,8.92,8.92,0,0,1-12.73-1.15,9.4,9.4,0,0,1-1.73-9.37,8.84,8.84,0,0,1,5.85-5.87,8.72,8.72,0,0,1,8.29,1.39c.37.28.7.6,1.05.89a.34.34,0,0,0,.53-.21c.07-.45.09-.91.19-1.36s.52-.72,1.21-.69.94.25,1,.73a10,10,0,0,1,.1,1.54C557.12,147.81,557.11,150.1,557.11,152.39Zm-2.38-.06a7,7,0,0,0-2.19-5.3,6.35,6.35,0,0,0-6.62-1.67,6.65,6.65,0,0,0-4.8,4.91,7.87,7.87,0,0,0-.11,3.24,6.88,6.88,0,0,0,10.06,5.09A6.78,6.78,0,0,0,554.73,152.33Z"/><path class="cls-1" d="M602.59,152.41a9.18,9.18,0,0,1-9,9.36,9,9,0,0,1-6.55-2.5,9.64,9.64,0,0,1-.64-13.35,8.16,8.16,0,0,1,6.28-3.07,13.27,13.27,0,0,1,3.08.21,9.4,9.4,0,0,1,6.85,8.32C602.6,151.73,602.59,152.07,602.59,152.41Zm-10,7c2.64,0,4.4-.71,5.57-1.93a7.45,7.45,0,0,0-.27-10.5,6.76,6.76,0,0,0-8-.83,7.35,7.35,0,0,0-2.47,9.8A6.2,6.2,0,0,0,592.56,159.4Z"/><path class="cls-1" d="M436.06,142.84c5.25-.31,9.41,4.67,9.26,9.61a9.33,9.33,0,1,1-18.65-.27C426.66,147.58,430.48,142.53,436.06,142.84Zm-.24,2.44a5.56,5.56,0,0,0-3.73,1.2,6.93,6.93,0,0,0-2.23,2.78,7.44,7.44,0,0,0,1.92,8.72,6.81,6.81,0,0,0,10.84-3.86C443.76,149.43,440.15,144.9,435.82,145.28Z"/><path class="cls-1" d="M484.22,105.75a7.87,7.87,0,1,1,7.89-8A7.88,7.88,0,0,1,484.22,105.75Zm4.75-8a3.63,3.63,0,0,0,0-.49,4.86,4.86,0,0,0-3.57-4.36,4.8,4.8,0,0,0-5.16,1.89,5.34,5.34,0,0,0-.9,3.76,4.5,4.5,0,0,0,3.12,4.15,4.75,4.75,0,0,0,6.51-5Z"/><path class="cls-1" d="M481.8,154.46v4.31c0,.4,0,.8,0,1.2a1.24,1.24,0,0,1-1.43,1.33.82.82,0,0,1-.86-.69,11.17,11.17,0,0,1-.11-1.54c0-2.87,0-5.73,0-8.6a7.66,7.66,0,0,0-.29-2.38,4.24,4.24,0,0,0-5-3,6.11,6.11,0,0,0-5,4.83,13.89,13.89,0,0,0-.39,3.41c0,1.78,0,3.56,0,5.34,0,.46,0,.92,0,1.37a1.22,1.22,0,0,1-1.9.93.89.89,0,0,1-.43-.71c0-.46-.06-.91-.06-1.37q0-6.72,0-13.43a11.38,11.38,0,0,1,.1-1.54.79.79,0,0,1,.72-.65c1-.15,1.58.11,1.6,1.21a3.41,3.41,0,0,0,.12.84.27.27,0,0,0,.42.15,8.37,8.37,0,0,0,.79-.66,7.48,7.48,0,0,1,6.37-1.92,5.76,5.76,0,0,1,4.84,3.88,8.07,8.07,0,0,1,.55,3v4.64Z"/><path class="cls-1" d="M123.23,63.68a60.81,60.81,0,0,1,6.83,1c.95.23,1.11.49.9,1.47-.13.61-.3,1.22-.46,1.83-.54,2-1.08,4.09-1.63,6.13-.09.33-.2.66-.32,1a.94.94,0,0,1-1.07.66c-.79-.09-1.58-.22-2.37-.32-1-.12-1.93-.22-2.9-.35-.81-.11-1.08-.38-1.18-1.21a8.78,8.78,0,0,1,0-1c0-2.34,0-4.68,0-7,0-.11,0-.23,0-.34C121,63.81,121.23,63.64,123.23,63.68Z"/><path class="cls-1" d="M121,168.7c0-1.14,0-2.28,0-3.43,0-.34,0-.69,0-1,.1-1,.35-1.28,1.36-1.41l4.58-.61.51-.05a1,1,0,0,1,1.08.65,6.48,6.48,0,0,1,.28.81q1,3.9,2.06,7.79a6,6,0,0,1,.15.85.74.74,0,0,1-.62.88c-.61.16-1.22.3-1.84.4-1.53.23-3,.44-4.59.63a12.17,12.17,0,0,1-1.71.06c-.92,0-1.17-.29-1.26-1.25,0-.34,0-.69,0-1C121,170.87,121,169.79,121,168.7Z"/><path class="cls-1" d="M86.12,89.43a2.32,2.32,0,0,1-.21.48c-1.14,1.5-2.28,3-3.45,4.49-.41.53-.71.59-1.34.24C79,93.43,76.85,92.19,74.72,91c-.6-.34-1.2-.67-1.79-1s-.69-.64-.31-1.25a42.52,42.52,0,0,1,3.09-4.33c.5-.63,1-1.25,1.54-1.85,1-1.08,1.26-1.08,2.35,0,.74.71,1.46,1.45,2.19,2.18,1.13,1.13,2.27,2.26,3.4,3.4.27.29.53.6.77.91A1.51,1.51,0,0,1,86.12,89.43Z"/><path class="cls-1" d="M81.8,143a2.86,2.86,0,0,1,.57.4c.3.34.55.73.83,1.09l2.41,3.12c.68.87.67,1.07-.08,1.91l-.36.37-5.46,5.46c-.21.2-.41.4-.63.58-.53.41-.91.42-1.36-.06s-1.13-1.29-1.69-1.94a40.1,40.1,0,0,1-3.33-4.57c-.48-.75-.44-1,.26-1.4q4-2.33,8-4.62A7.58,7.58,0,0,1,81.8,143Z"/><path class="cls-1" d="M156.27,78.58A2.88,2.88,0,0,1,156,79c-.31.35-.63.67-.95,1l-4.74,4.74c-.29.28-.57.57-.87.83-.62.52-.89.55-1.53.1s-1-.78-1.49-1.16c-.91-.69-1.85-1.36-2.75-2.06-.64-.49-.69-.73-.29-1.46.69-1.25,1.41-2.49,2.12-3.74s1.37-2.38,2.06-3.57a10.79,10.79,0,0,1,.66-1,.68.68,0,0,1,.91-.21l.31.16a44.74,44.74,0,0,1,6.51,5A.88.88,0,0,1,156.27,78.58Z"/><path class="cls-1" d="M148.76,165.55c-.2-.11-.39-.15-.49-.27a9.55,9.55,0,0,1-.67-1c-1.37-2.38-2.75-4.77-4.1-7.16-.6-1-.55-1.18.33-1.85,1.32-1,2.63-2,4-3,.72-.53,1-.52,1.66.08s1.39,1.36,2.08,2.05l3.53,3.52c.24.25.49.48.72.74.69.78.69,1,0,1.71-.33.32-.67.62-1,.92a48.52,48.52,0,0,1-5.09,3.81C149.37,165.28,149.05,165.4,148.76,165.55Z"/><path class="cls-1" d="M70.21,93.39a7.44,7.44,0,0,1,.78.31l4.61,2.63c1.09.63,2.19,1.25,3.26,1.91.79.49.84.7.5,1.55q-.94,2.38-1.94,4.76c-.3.71-.6.87-1.35.69-.95-.21-1.88-.5-2.82-.75L68,103.07c-.33-.09-.66-.17-1-.29a.83.83,0,0,1-.61-1.07c0-.16.08-.33.13-.49a53,53,0,0,1,2.88-7,3.14,3.14,0,0,1,.38-.57A2.15,2.15,0,0,1,70.21,93.39Z"/><path class="cls-1" d="M161.84,132.63l.72.18,7.79,2.09a7.86,7.86,0,0,1,.82.27.74.74,0,0,1,.5,1,3.57,3.57,0,0,1-.18.66,55.26,55.26,0,0,1-2.76,6.66c-.11.2-.22.4-.35.59a.75.75,0,0,1-1,.35,5.62,5.62,0,0,1-.78-.38c-2.37-1.37-4.76-2.73-7.13-4.13-1.26-.74-1.24-.81-.65-2.17.53-1.21,1-2.43,1.52-3.65.13-.31.25-.64.4-.94A1,1,0,0,1,161.84,132.63Z"/><path class="cls-1" d="M76.29,132.62c.49,0,.83.1,1,.44q1.15,2.77,2.27,5.55a.66.66,0,0,1-.26.77,8.4,8.4,0,0,1-.85.57l-7.29,4.18a3.45,3.45,0,0,1-.61.3.62.62,0,0,1-.77-.2,5.94,5.94,0,0,1-.53-.87,54.15,54.15,0,0,1-2.68-6.5c-.07-.21-.13-.44-.18-.66a.82.82,0,0,1,.61-1.06,3.06,3.06,0,0,1,.48-.17l8.12-2.18C75.84,132.71,76.12,132.66,76.29,132.62Z"/><path class="cls-1" d="M89.25,165.47a2,2,0,0,1-1.09-.48q-2.22-1.63-4.4-3.3c-.64-.49-1.24-1-1.83-1.57a.67.67,0,0,1,0-1.06c.19-.22.39-.42.59-.62l5.59-5.59.37-.36c.85-.77,1-.78,1.91-.12L94,155.2c1,.79,1.08.93.41,2.12-.76,1.34-1.55,2.68-2.33,4s-1.45,2.47-2.19,3.69A.8.8,0,0,1,89.25,165.47Z"/><path class="cls-1" d="M136,171.62a.71.71,0,0,1-.77-.38,3.51,3.51,0,0,1-.24-.64c-.72-2.66-1.44-5.31-2.15-8a5,5,0,0,1-.16-.67,1.05,1.05,0,0,1,.72-1.37c.46-.22,1-.38,1.43-.58l3.16-1.37c.93-.39,1.25-.32,1.72.48q2.31,3.94,4.55,7.9c.41.72.33,1-.37,1.4a43.74,43.74,0,0,1-7.45,3.11A3.45,3.45,0,0,1,136,171.62Z"/><path class="cls-1" d="M94.89,81.76a1.11,1.11,0,0,1-.46.68c-1,.75-2,1.5-3,2.27-.46.34-.88.73-1.35,1.07a.86.86,0,0,1-1.24,0,8.28,8.28,0,0,1-.75-.7l-5.6-5.59A5.56,5.56,0,0,1,82,79c-.43-.48-.43-.75,0-1.19a5.67,5.67,0,0,1,.5-.48c1.76-1.46,3.56-2.89,5.45-4.18a6.63,6.63,0,0,1,.88-.53.74.74,0,0,1,1.06.22,9.18,9.18,0,0,1,.67,1l4,6.85A2.22,2.22,0,0,1,94.89,81.76Z"/><path class="cls-1" d="M161.78,105.3c-.55,0-.84-.11-1-.44a2.82,2.82,0,0,1-.23-.46c-.58-1.62-1.24-3.2-2-4.76-.29-.62-.18-.87.42-1.29.33-.23.68-.43,1-.63l6.1-3.52c.35-.2.69-.41,1.06-.58.63-.29.95-.21,1.3.36.21.34.38.7.56,1.06a56.62,56.62,0,0,1,2.35,5.71,7.46,7.46,0,0,1,.3,1,.78.78,0,0,1-.6,1.05c-.37.14-.77.23-1.15.34L162.78,105Z"/><path class="cls-1" d="M156.29,94.87a1.72,1.72,0,0,1-.49-.2,3.73,3.73,0,0,1-.45-.52c-.91-1.18-1.81-2.37-2.72-3.54s-1-1.3.21-2.51l4.25-4.26c.56-.56,1.12-1.14,1.71-1.68s1-.63,1.59,0a43,43,0,0,1,4.83,6.24c.54.84.48,1.09-.43,1.64-1.81,1.1-3.66,2.15-5.49,3.21-.74.43-1.48.86-2.23,1.28A5.88,5.88,0,0,1,156.29,94.87Z"/><path class="cls-1" d="M132.7,76c0-.11.06-.33.12-.55L135,67.34c0-.11.06-.22.1-.33.24-.66.51-.83,1.17-.67.45.11.88.26,1.31.41a48.43,48.43,0,0,1,5.7,2.41,8,8,0,0,1,.9.51.68.68,0,0,1,.26.9,3.89,3.89,0,0,1-.31.61l-4.29,7.45a3.78,3.78,0,0,1-.4.56.84.84,0,0,1-.93.27l-.32-.11c-1.59-.67-3.18-1.33-4.75-2A1.05,1.05,0,0,1,132.7,76Z"/><path class="cls-1" d="M156.31,143.08a4.25,4.25,0,0,1,.65.24c.71.39,1.4.8,2.09,1.2l5.21,3c.34.21.67.43,1,.67a.68.68,0,0,1,.2.92,1.78,1.78,0,0,1-.17.3,44.13,44.13,0,0,1-4.93,6.38c-.55.57-.87.59-1.46.05s-1.4-1.36-2.09-2.05c-1.5-1.5-3-3-4.48-4.5-.59-.6-.59-.78-.07-1.48l3.23-4.23A1.07,1.07,0,0,1,156.31,143.08Z"/><path class="cls-1" d="M101.9,171.65a8.14,8.14,0,0,1-.84-.23,55.84,55.84,0,0,1-6.33-2.68l-.45-.24c-.84-.5-1-.76-.46-1.67,1.08-2,2.21-3.88,3.32-5.81.38-.65.73-1.31,1.13-1.94s.73-.79,1.43-.51q2.47,1,4.93,2c.71.3.83.54.64,1.36-.28,1.23-.59,2.45-.92,3.67-.42,1.6-.87,3.2-1.32,4.8a4.87,4.87,0,0,1-.39,1C102.53,171.57,102.31,171.66,101.9,171.65Z"/><path class="cls-1" d="M102,66.26c.37,0,.59.1.69.32a6.35,6.35,0,0,1,.44,1.12q1.05,3.9,2.08,7.8a6.25,6.25,0,0,1,.17.84.79.79,0,0,1-.43.86,3,3,0,0,1-.31.15c-1.59.65-3.17,1.31-4.77,2-.83.33-1.14.25-1.58-.49-1.47-2.52-2.92-5.06-4.37-7.6a3.46,3.46,0,0,1-.28-.62.72.72,0,0,1,.27-.91,6,6,0,0,1,.74-.44,55.24,55.24,0,0,1,6.48-2.75A6.76,6.76,0,0,1,102,66.26Z"/><path class="cls-1" d="M116.86,168.68c0,1.43,0,2.87,0,4.3,0,1-.3,1.2-1.25,1.26a21.52,21.52,0,0,1-3.93-.36c-1.31-.16-2.61-.42-3.9-.68-.76-.16-1-.48-.78-1.25s.47-1.77.71-2.66c.49-1.82,1-3.65,1.47-5.48a7,7,0,0,1,.31-1,.94.94,0,0,1,1.09-.64c.79.08,1.59.22,2.38.32l2.73.33c.85.11,1.13.36,1.16,1.19,0,1.26,0,2.53,0,3.79v.86Z"/><path class="cls-1" d="M116.87,69.44c0,1.14,0,2.29,0,3.44,0,.34,0,.69,0,1-.08.82-.33,1.06-1.2,1.17l-3.58.41c-.51.07-1,.19-1.53.24a1,1,0,0,1-1.07-.67,5,5,0,0,1-.23-.65c-.7-2.6-1.41-5.2-2.11-7.8-.06-.22-.11-.45-.15-.67-.13-.76,0-1.06.82-1.23a53.64,53.64,0,0,1,7.14-1h.17c1.52,0,1.72.17,1.75,1.64s0,2.75,0,4.13Z"/><path class="cls-1" d="M69.61,121.14c1.44,0,2.87,0,4.3,0,.87,0,1.18.27,1.23,1.11.1,1.66.39,3.3.65,4.94.13.82-.07,1.1-.93,1.37s-2,.56-3,.82c-1.88.51-3.76,1-5.65,1.51-1,.27-1.27.16-1.49-.81a34.57,34.57,0,0,1-1-7.31,1.93,1.93,0,0,1,0-.34c.05-1,.27-1.22,1.21-1.29.35,0,.69,0,1,0h3.61Z"/><path class="cls-1" d="M69.32,116.78c-1.37,0-2.75,0-4.12,0-1.2,0-1.41-.26-1.44-1.42a28.66,28.66,0,0,1,.56-5.46,21.37,21.37,0,0,1,.5-2.35c.15-.57.44-.75,1-.6,1.56.38,3.11.78,4.66,1.19s2.88.77,4.3,1.2c1,.28,1.11.55,1,1.51-.23,1.52-.52,3-.6,4.59-.06,1.07-.33,1.31-1.38,1.34-1.49,0-3,0-4.47,0Z"/><path class="cls-1" d="M168.73,121.14c1.44,0,2.87,0,4.3,0,1.05,0,1.32.3,1.28,1.38a28.92,28.92,0,0,1-.3,3.08c-.19,1.42-.41,2.83-.68,4.24-.23,1.18-.45,1.29-1.68,1-.5-.11-1-.25-1.5-.38l-6.63-1.81c-1.36-.39-1.45-.55-1.25-1.94s.41-3,.64-4.43c.15-1,.34-1.15,1.35-1.18C165.75,121.11,167.24,121.14,168.73,121.14Z"/><path class="cls-1" d="M168.54,116.77c-1.44,0-2.87,0-4.3,0-1,0-1.18-.21-1.33-1.21-.25-1.64-.49-3.28-.7-4.93-.1-.8,0-1,.85-1.25,2.92-.81,5.86-1.59,8.79-2.38a3.08,3.08,0,0,1,.68-.07.58.58,0,0,1,.55.35,3.65,3.65,0,0,1,.26.81,59.48,59.48,0,0,1,1,6.63c.18,1.81-.09,2-2,2.06-1.26,0-2.52,0-3.78,0Z"/><path class="cls-1" d="M395.32,161.19h-4.64a7,7,0,0,1-1-.05c-.56-.06-.76-.47-.48-1s.53-.88.81-1.32q3.7-5.9,7.41-11.78c.26-.42.81-.85.58-1.36s-1-.35-1.55-.36c-1.54,0-3.09,0-4.64,0a12.46,12.46,0,0,1-1.37-.05.9.9,0,0,1-.88-1.05.86.86,0,0,1,.82-.93,7,7,0,0,1,1-.06h10c.87.05,1,.36.61,1.08-1.33,2.14-2.68,4.27-4,6.4-1.44,2.28-2.88,4.55-4.31,6.83a4.55,4.55,0,0,0-.39.76.5.5,0,0,0,.33.68,10.39,10.39,0,0,0,1.36.11c1.66,0,3.32,0,5,0a10.54,10.54,0,0,1,1.37.06.9.9,0,0,1,.88,1,.89.89,0,0,1-.83.92,12.74,12.74,0,0,1-1.38.06Z"/><path class="cls-1" d="M490.31,161.79a7.92,7.92,0,0,1-4.63-1.83.86.86,0,0,1-.29-1.08,1.54,1.54,0,0,1,1.11-1,.93.93,0,0,1,.62.21,7.38,7.38,0,0,0,1.77,1,3.34,3.34,0,0,0,3.88-1,2.52,2.52,0,0,0,0-3.32,4,4,0,0,0-1.17-1c-.8-.46-1.58-.93-2.39-1.36a8.23,8.23,0,0,1-2-1.57,4.93,4.93,0,0,1-.89-5.42,4.2,4.2,0,0,1,2.75-2.42,5.85,5.85,0,0,1,6,1.57.77.77,0,0,1,.16,1.08c-.44.66-.93.91-1.41.66s-1.07-.67-1.63-1a2.83,2.83,0,0,0-3.08.19,2,2,0,0,0-.62,3,6.08,6.08,0,0,0,2.45,2.1,15.06,15.06,0,0,1,2.91,1.81A5.09,5.09,0,0,1,493,161,6.87,6.87,0,0,1,490.31,161.79Z"/><path class="cls-1" d="M291.69,149c0-3.15,0-6.31,0-9.46a13.21,13.21,0,0,1,.05-1.54c.07-.69.44-1,1.16-1s1.12.28,1.19.94a16.48,16.48,0,0,1,.06,1.72V156c0,.52,0,1,0,1.55.06.77.31,1,1,1.1.4,0,.81,0,1.21,0h4.47l1.2,0c.87,0,1.43.33,1.24,1.58a.88.88,0,0,1-.79.79,7.13,7.13,0,0,1-1,.07h-8.08c-1.5-.05-1.7-.24-1.76-1.68,0-.4,0-.8,0-1.2Z"/><path class="cls-1" d="M458.68,149.08V139.8c0-.46,0-.92,0-1.37.07-1.17.48-1.51,1.63-1.4a1,1,0,0,1,1,1,12.46,12.46,0,0,1,0,1.37q0,9.79,0,19.58a11.42,11.42,0,0,1-.08,1.55,1,1,0,0,1-1.09.86c-1,0-1.45-.43-1.52-1.44,0-.46,0-.92,0-1.38Z"/><path class="cls-1" d="M529.39,143.24c.77,0,1,.15,1.27,1,.22.67.36.7.92.23.3-.25.58-.55.91-.78a4.5,4.5,0,0,1,3.74-.78c.7.14.9.64.6,1.29a1.56,1.56,0,0,1-1.61,1c-1.89-.09-3,1-3.64,2.6a15,15,0,0,0-.89,5.38c-.08,1.77,0,3.55,0,5.32,0,.46,0,.92,0,1.38a1.13,1.13,0,0,1-1.49,1.17.91.91,0,0,1-.84-.75,7.84,7.84,0,0,1-.08-1.19q0-7,0-14.08a8.38,8.38,0,0,1,0-.86A1,1,0,0,1,529.39,143.24Z"/><path class="cls-1" d="M357.12,152.08v-6.35c0-.4,0-.8,0-1.2,0-1,.45-1.47,1.73-1.22.56.1.6.6.72,1.05s.34.63.81.23.68-.62,1.05-.89a4.48,4.48,0,0,1,3.75-.73.79.79,0,0,1,.57,1.19,1.53,1.53,0,0,1-1.55,1.11c-2.14-.1-3.23,1.19-3.89,3a16.17,16.17,0,0,0-.74,5.07c-.06,1.78,0,3.55,0,5.33,0,.45,0,.91,0,1.37a1.21,1.21,0,0,1-1.87,1,.82.82,0,0,1-.46-.69,12.39,12.39,0,0,1-.07-1.36Q357.12,155.51,357.12,152.08Z"/><path class="cls-1" d="M606,152.11v-6.53a10.52,10.52,0,0,1,0-1.37,1.29,1.29,0,0,1,2-.78c.37.27.34.7.45,1.07s.36.43.65.19.67-.63,1-.92A4.09,4.09,0,0,1,614,143a.73.73,0,0,1,.53,1.16,1.77,1.77,0,0,1-1.77,1.11,3.37,3.37,0,0,0-3.45,2.31,9.47,9.47,0,0,0-.88,4c0,2.4,0,4.81,0,7.21a11.35,11.35,0,0,1-.08,1.54c-.08.56-.49.82-1.13.82s-1.06-.26-1.14-.8A9,9,0,0,1,606,159C606,156.69,606,154.4,606,152.11Z"/><path class="cls-1" d="M524.46,152.27v6.52a12.46,12.46,0,0,1-.05,1.37,1,1,0,0,1-1.16,1c-.71,0-1.09-.29-1.17-1A9.63,9.63,0,0,1,522,159q0-6.78,0-13.56a9.63,9.63,0,0,1,0-1.2c.08-.69.44-1,1.16-1s1.1.28,1.18,1a12.55,12.55,0,0,1,.05,1.37Z"/><path class="cls-1" d="M308.91,152.19v6.52a12.47,12.47,0,0,1,0,1.37A1.22,1.22,0,0,1,307,161a.91.91,0,0,1-.42-.71c0-.46-.06-.91-.06-1.37V145.5a9.8,9.8,0,0,1,.1-1.54c.08-.5.53-.73,1.21-.71s1,.24,1,.71a10.4,10.4,0,0,1,.1,1.37C308.92,147.62,308.91,149.9,308.91,152.19Z"/><path class="cls-1" d="M307.56,136a1.93,1.93,0,0,1,2,1.77,2,2,0,0,1-2,1.95,1.91,1.91,0,0,1-1.85-1.89A1.84,1.84,0,0,1,307.56,136Z"/><path class="cls-1" d="M525.12,137.7a2,2,0,0,1-1.87,2,1.94,1.94,0,0,1-1.87-1.86A1.83,1.83,0,0,1,523.2,136,1.69,1.69,0,0,1,525.12,137.7Z"/></g></g></svg>