<svg xmlns="http://www.w3.org/2000/svg" viewBox="0 0 246.92 326.4"><defs><style>.cls-1{fill:#fff;}</style></defs><title>7 - OCC Solutions</title><g id="Capa_2" data-name="Capa 2"><g id="Capa_1-2" data-name="Capa 1"><path class="cls-1" d="M234.24,128.25c3.45,0,6.9,0,10.34,0,1.71,0,2.47.56,2.32,2.35a159.12,159.12,0,0,1-2.45,18.2c-.29,1.44-.88,1.89-2.38,1.48q-10.24-2.83-20.54-5.49c-1.42-.37-1.83-1-1.53-2.42a69.87,69.87,0,0,0,1.53-12.14c.05-1.51.77-2,2.17-2C227.21,128.27,230.73,128.25,234.24,128.25Z"/><path class="cls-1" d="M12.78,128.25c3.51,0,7,0,10.54,0,1.32,0,2,.47,2,1.89a77.55,77.55,0,0,0,1.56,12.14c.3,1.39,0,2.09-1.46,2.47q-10.2,2.64-20.35,5.46c-1.75.49-2.35,0-2.7-1.73A169.26,169.26,0,0,1,0,130.26c-.14-1.57.62-2,2-2C5.62,128.27,9.2,128.25,12.78,128.25Z"/><path class="cls-1" d="M128.23,234.16c0-3.45,0-6.91,0-10.36,0-1.48.43-2.25,2.05-2.28A68.81,68.81,0,0,0,142.41,220c1.37-.28,2,.1,2.3,1.44q2.68,10.4,5.54,20.75c.38,1.4,0,2-1.4,2.26a140.68,140.68,0,0,1-18.4,2.46c-1.69.12-2.28-.52-2.24-2.19C128.29,241.19,128.23,237.67,128.23,234.16Z"/><path class="cls-1" d="M128.23,12.54c0-3.58,0-7.16,0-10.75,0-1.27.43-1.89,1.81-1.78a147.7,147.7,0,0,1,18.61,2.48c1.55.33,2,.88,1.57,2.47q-2.82,10.17-5.45,20.39c-.38,1.49-1,1.93-2.57,1.59a75.26,75.26,0,0,0-12.15-1.59c-1.45-.08-1.85-.75-1.83-2.06C128.26,19.71,128.23,16.12,128.23,12.54Z"/><path class="cls-1" d="M57,19.38c.73-.08,1,.38,1.26.82L69.46,39.65a1.23,1.23,0,0,1-.5,1.91,102.65,102.65,0,0,0-10.5,8.07,1.35,1.35,0,0,1-2.14-.08Q48.46,41.66,40.58,33.8c-.66-.66-.75-1.25,0-1.94A125.93,125.93,0,0,1,56.23,19.8C56.49,19.63,56.78,19.49,57,19.38Z"/><path class="cls-1" d="M227.57,189.84c-.22.41-.44.87-.72,1.3a135.76,135.76,0,0,1-11.31,14.76c-1.06,1.22-1.76,1.19-2.89,0q-7.31-7.49-14.79-14.79c-1.18-1.15-1.26-2-.16-3.18a79.3,79.3,0,0,0,7.48-9.73c.64-1,1.24-1.28,2.33-.64,6.3,3.68,12.63,7.3,18.94,11C226.93,188.83,227.49,189.09,227.57,189.84Z"/><path class="cls-1" d="M118.64,234.25c0,3.52,0,7,0,10.56,0,1.58-.56,2.19-2.15,2.08a137.29,137.29,0,0,1-18.61-2.5c-1.34-.29-1.58-.9-1.24-2.17q2.82-10.26,5.49-20.58c.39-1.49,1-1.93,2.57-1.62a64.79,64.79,0,0,0,11.78,1.49c1.69,0,2.19.79,2.16,2.37C118.59,227.34,118.64,230.79,118.64,234.25Z"/><path class="cls-1" d="M118.64,12.62c0,3.57,0,7.15,0,10.73,0,1.19-.3,1.91-1.69,2a79.73,79.73,0,0,0-12.32,1.6c-1.49.33-2.08-.17-2.44-1.55Q99.5,15.11,96.69,4.86c-.4-1.45,0-2,1.47-2.36A157.27,157.27,0,0,1,116.74,0c1.47-.13,1.93.51,1.91,1.87C118.61,5.47,118.64,9,118.64,12.62Z"/><path class="cls-1" d="M12.64,118.64c-3.58,0-7.15,0-10.73,0-1.37,0-2-.46-1.9-1.91a162.8,162.8,0,0,1,2.42-18.4c.33-1.63.93-2.08,2.61-1.61q10,2.79,20,5.33c1.77.44,2.21,1.23,1.85,2.94a75.11,75.11,0,0,0-1.53,12c-.06,1.38-.77,1.69-2,1.68C19.79,118.62,16.22,118.64,12.64,118.64Z"/><path class="cls-1" d="M189.74,19.3c.44.25.9.47,1.32.75a138.66,138.66,0,0,1,15.05,11.51c1,.9,1,1.52,0,2.45Q198.5,41.54,191,49.18c-1,1-1.72,1.2-2.86.16A74.08,74.08,0,0,0,178.53,42c-1.27-.81-1.58-1.52-.76-2.9,3.61-6.1,7.13-12.26,10.69-18.39C188.77,20.16,189,19.51,189.74,19.3Z"/><path class="cls-1" d="M40.45,177.16c.72,0,.95.53,1.23,1a82.5,82.5,0,0,0,8,10.31,1.33,1.33,0,0,1-.08,2.13q-7.94,7.92-15.84,15.87c-.74.73-1.29.61-1.91-.09a130,130,0,0,1-12-15.64c-.68-1.05-.34-1.55.61-2.1C26.73,185,33,181.31,39.33,177.66A10.3,10.3,0,0,1,40.45,177.16Z"/><path class="cls-1" d="M234.41,118.64c-3.58,0-7.17,0-10.75,0-1.46,0-2.08-.56-2.12-2a69.92,69.92,0,0,0-1.55-12c-.29-1.39,0-2.06,1.51-2.44,6.87-1.77,13.73-3.63,20.57-5.52,1.43-.39,2-.11,2.36,1.43A141.42,141.42,0,0,1,246.86,116c.2,2.44,0,2.63-2.47,2.64C241.07,118.65,237.74,118.64,234.41,118.64Z"/><path class="cls-1" d="M180.65,14.49c-.19.4-.37.88-.63,1.32C176.48,22,172.9,28.1,169.39,34.28c-.73,1.27-1.49,1.49-2.79.81a81.24,81.24,0,0,0-11.32-4.73c-1.19-.41-1.61-.9-1.25-2.22q2.82-10.18,5.45-20.4c.46-1.8,1.23-2.23,3-1.6a147.52,147.52,0,0,1,16.63,7C179.69,13.4,180.47,13.56,180.65,14.49Z"/><path class="cls-1" d="M35.6,79.05c-.11.28-.23.65-.4,1A91.34,91.34,0,0,0,30.34,91.7c-.42,1.23-1,1.55-2.26,1.2C21.31,91,14.51,89.26,7.72,87.44c-2.11-.57-2.27-.85-1.54-3a149.6,149.6,0,0,1,6.88-16.63c.72-1.5,1.39-1.77,2.9-.87,6,3.6,12.16,7,18.24,10.57C34.79,77.88,35.54,78.08,35.6,79.05Z"/><path class="cls-1" d="M218,93.08c-.76.14-1-.36-1.22-.94a117.71,117.71,0,0,0-5.12-12.41,1.27,1.27,0,0,1,.59-1.9q9.74-5.6,19.45-11.21c.91-.53,1.37-.28,1.81.57a123.6,123.6,0,0,1,7.56,18.24c.28.86.21,1.47-.82,1.74L218.54,93C218.36,93,218.16,93,218,93.08Z"/><path class="cls-1" d="M86.1,241.21l-1-.29a118.41,118.41,0,0,1-17.53-7.23c-1.32-.66-1.43-1.25-.71-2.48q5.44-9.27,10.72-18.62c.69-1.22,1.38-1.35,2.62-.75a80.07,80.07,0,0,0,11.52,4.72c1.27.39,1.52,1,1.17,2.26-1.88,6.84-3.67,13.71-5.53,20.56C87.18,240.12,87.18,241.1,86.1,241.21Z"/><path class="cls-1" d="M93.05,29c.12.87-.52,1.1-1.13,1.3a84,84,0,0,0-12,5c-1,.52-1.63.22-2.17-.73q-5.49-9.55-11-19.06c-.59-1-.39-1.64.64-2.14a126.58,126.58,0,0,1,18.06-7.4c.9-.28,1.5-.11,1.76.85Q90.06,17.71,93,28.63C93,28.75,93,28.88,93.05,29Z"/><path class="cls-1" d="M161.07,241.16c-.86.17-1.14-.38-1.32-1q-2.88-10.73-5.77-21.47c-.29-1.1.08-1.64,1.13-2a92.9,92.9,0,0,0,12-5,1.31,1.31,0,0,1,2,.65q5.52,9.65,11.11,19.26c.47.81.48,1.39-.44,1.87A123.71,123.71,0,0,1,161.63,241C161.44,241.09,161.25,241.12,161.07,241.16Z"/><path class="cls-1" d="M232.34,180.61c-.35-.16-.77-.33-1.15-.55-6.19-3.58-12.37-7.2-18.59-10.73-1.22-.7-1.4-1.34-.78-2.58a80,80,0,0,0,4.67-11.34c.4-1.23.92-1.76,2.35-1.36q10.24,2.85,20.55,5.49c1.61.41,2,1,1.45,2.65a123.43,123.43,0,0,1-7.09,17C233.45,179.74,233.32,180.54,232.34,180.61Z"/><path class="cls-1" d="M5.84,161.22c-.16-.95.4-1.27,1-1.44L28.55,154c1-.25,1.42.13,1.7,1a96.48,96.48,0,0,0,4.89,11.87,1.59,1.59,0,0,1-.76,2.47c-6.27,3.58-12.52,7.21-18.77,10.82-.86.5-1.58.78-2.18-.4A124.22,124.22,0,0,1,6,161.67,4.6,4.6,0,0,1,5.84,161.22Z"/><path class="cls-1" d="M206.66,69.73a1.33,1.33,0,0,1-1.32-.8,87.91,87.91,0,0,0-8.06-10.46,1.23,1.23,0,0,1,.09-2q7.95-7.91,15.86-15.86c.79-.79,1.39-.64,2.06.13a130.12,130.12,0,0,1,11.86,15.51c.58.91.46,1.46-.47,2Q217,63.82,207.42,69.39A5.68,5.68,0,0,1,206.66,69.73Z"/><path class="cls-1" d="M69.75,206.64c-.15.31-.32.72-.55,1.1-3.57,6.2-7.18,12.37-10.71,18.59-.71,1.25-1.35,1.46-2.54.66a147.63,147.63,0,0,1-15-11.55c-.88-.77-1.09-1.42-.14-2.36q7.83-7.74,15.58-15.58c.77-.77,1.38-.94,2.25-.12a86.62,86.62,0,0,0,10.13,7.87C69.19,205.56,69.77,205.82,69.75,206.64Z"/><path class="cls-1" d="M206.82,214.21a1.8,1.8,0,0,1-.75,1.12,124.11,124.11,0,0,1-15.33,11.79c-1,.65-1.63.39-2.18-.57q-5.48-9.57-11-19.1c-.61-1-.32-1.6.57-2.19a89.22,89.22,0,0,0,10-7.7,1.57,1.57,0,0,1,2.57.09c5,5.1,10.11,10.14,15.16,15.21C206.28,213.26,206.78,213.6,206.82,214.21Z"/><path class="cls-1" d="M32.92,40.07a11.38,11.38,0,0,1,.95.78C39,46,44.18,51.17,49.36,56.3c.88.87.88,1.49.06,2.41a89.62,89.62,0,0,0-7.59,9.88c-.75,1.15-1.44,1.37-2.66.65-6.12-3.59-12.26-7.16-18.43-10.66-1.41-.8-1.58-1.5-.67-2.83A130.25,130.25,0,0,1,31.6,40.92C32,40.55,32.2,40.07,32.92,40.07Z"/><path class="cls-1" d="M75.55,70.48c-.44-.36-.85-.65-1.21-1C70.9,66,67.48,62.59,64,59.18c-.89-.88-1.12-1.55-.06-2.51A95,95,0,0,1,74.42,48.6c1-.7,1.56-.34,2.11.61C79,53.59,81.59,58,84.14,62.32c.44.74.59,1.35-.29,1.95A75.05,75.05,0,0,0,76.41,70,4.88,4.88,0,0,1,75.55,70.48Z"/><path class="cls-1" d="M70.34,171.12a1.93,1.93,0,0,1-.81,1.4c-3.52,3.53-7.07,7-10.57,10.6-.85.86-1.43,1-2.3,0-2.77-3.27-5.4-6.64-7.84-10.17-.83-1.21-.83-1.9.58-2.68,4.26-2.34,8.47-4.78,12.64-7.28,1.23-.74,1.88-.51,2.63.61a49.69,49.69,0,0,0,5,6.54A5.9,5.9,0,0,1,70.34,171.12Z"/><path class="cls-1" d="M59.75,155.43c0,.84-.52,1.09-1,1.38-4.32,2.49-8.65,4.94-12.94,7.48-1.27.75-1.91.44-2.48-.84-1.71-3.78-3.38-7.58-4.78-11.49-.5-1.39-.29-2.07,1.25-2.46,4.65-1.16,9.27-2.43,13.88-3.73,1.35-.37,2.13-.16,2.61,1.28a52.92,52.92,0,0,0,3.09,7.43A8.49,8.49,0,0,1,59.75,155.43Z"/><path class="cls-1" d="M183.81,58a10.27,10.27,0,0,1-.79,1c-3.51,3.53-7.05,7-10.54,10.58-.85.86-1.49.94-2.4.08a41.64,41.64,0,0,0-6.5-5c-1.13-.71-1.43-1.31-.66-2.58,2.55-4.2,5-8.47,7.4-12.76.67-1.19,1.27-1.33,2.38-.57a80.08,80.08,0,0,1,10.13,7.84C183.24,57,183.77,57.27,183.81,58Z"/><path class="cls-1" d="M101.39,192.33c-.38,1.42-.75,2.84-1.13,4.26-1,3.58-2,7.16-2.9,10.74-.26,1-.64,1.61-1.85,1.19a98.5,98.5,0,0,1-12.57-5.22c-.91-.46-1-1-.48-1.84q3.92-6.71,7.78-13.44c.49-.86,1-.93,1.89-.56,2.64,1.14,5.32,2.2,8,3.3C100.8,191,101.68,191.21,101.39,192.33Z"/><path class="cls-1" d="M54.57,101.41,39,97.18c-.87-.23-.87-.81-.65-1.49A82.15,82.15,0,0,1,43.77,82.8c.39-.73.86-.81,1.56-.41q6.8,4,13.6,7.87a1.28,1.28,0,0,1,.56,1.91c-1.17,2.7-2.28,5.41-3.39,8.13C55.81,101,55.51,101.62,54.57,101.41Z"/><path class="cls-1" d="M95.93,38.32c.95-.13,1.17.4,1.33,1,1.35,5,2.69,10,4.06,15,.27,1-.13,1.49-1.07,1.86q-4,1.58-7.94,3.31a1.45,1.45,0,0,1-2.17-.73q-3.77-6.57-7.61-13.07c-.6-1-.39-1.56.66-2.08a83.8,83.8,0,0,1,12-5Z"/><path class="cls-1" d="M145.59,192.18c-.07-.82.51-1.1,1.12-1.35,2.72-1.12,5.45-2.22,8.14-3.4.93-.4,1.4-.12,1.86.67q3.84,6.65,7.72,13.27c.54.93.39,1.5-.58,2a84.08,84.08,0,0,1-12.58,5.19c-.81.26-1.35.13-1.59-.78q-2-7.61-4-15.22C145.62,192.43,145.61,192.3,145.59,192.18Z"/><path class="cls-1" d="M145.7,54.09c.08-.3.26-1,.46-1.78,1.15-4.26,2.33-8.51,3.44-12.78.29-1.14.81-1.44,1.91-1.07a85.31,85.31,0,0,1,12.37,5.18c.88.45,1.07,1,.57,1.83q-3.88,6.72-7.74,13.46a1.26,1.26,0,0,1-1.91.57,77.07,77.07,0,0,0-8.13-3.4C145.94,55.82,145.43,55.42,145.7,54.09Z"/><path class="cls-1" d="M84.51,183.75c-.18.38-.38.85-.63,1.29-2.42,4.22-4.87,8.41-7.27,12.65-.6,1.06-1.21,1.3-2.28.6a99.27,99.27,0,0,1-10.64-8.19,1.05,1.05,0,0,1,0-1.78L74.77,177.2a1.19,1.19,0,0,1,1.85-.11,81.26,81.26,0,0,0,7.28,5.64A1.2,1.2,0,0,1,84.51,183.75Z"/><path class="cls-1" d="M43.33,127c2.36,0,4.73,0,7.09,0,1.27,0,1.91.49,2,1.74a68.29,68.29,0,0,0,1.16,8.53,1.21,1.21,0,0,1-1,1.57c-5.06,1.36-10.12,2.7-15.17,4.08-1,.28-1.42-.27-1.58-1.13a107.26,107.26,0,0,1-1.72-12.89c-.09-1.44.55-1.93,1.92-1.9C38.48,127.06,40.9,127,43.33,127Z"/><path class="cls-1" d="M129,34.1a121.15,121.15,0,0,1,12.47,1.67c1.27.26,1.72.77,1.35,2.1q-2,7-3.77,14.09c-.36,1.38-1,1.82-2.47,1.52a42.7,42.7,0,0,0-7.41-1c-1.45,0-2.16-.68-2.13-2.27.07-4.67.08-9.34,0-14C127,34.54,127.64,33.87,129,34.1Z"/><path class="cls-1" d="M130.52,212.71c-3.45,0-3.47,0-3.47-2.72,0-4.21.06-8.43,0-12.65,0-1.82.31-2.81,2.44-2.91a59.62,59.62,0,0,0,7.39-1c1.13-.18,1.79,0,2.1,1.25,1.25,4.83,2.56,9.63,3.88,14.44.32,1.16.05,1.8-1.22,2C137.71,211.87,133.79,212.44,130.52,212.71Z"/><path class="cls-1" d="M70.33,75.88c-.17.24-.38.55-.6.85C68,79,66.17,81.25,64.48,83.57c-.66.92-1.22,1.12-2.2.54q-6.54-3.83-13.12-7.57c-1-.56-1.2-1.16-.54-2.16a91.34,91.34,0,0,1,8-10.32C57.36,63.18,58,63,58.9,64,62.43,67.56,66,71.1,69.59,74.68A1.88,1.88,0,0,1,70.33,75.88Z"/><path class="cls-1" d="M171.09,176.72a2.1,2.1,0,0,1,1.38.84c3.48,3.47,6.94,7,10.45,10.41,1,.93,1,1.61,0,2.49a122.13,122.13,0,0,1-10,7.67c-1.19.8-1.84.68-2.56-.59-2.44-4.33-5-8.62-7.49-12.92-.43-.74-.62-1.37.27-2a60,60,0,0,0,7.14-5.47A4.38,4.38,0,0,1,171.09,176.72Z"/><path class="cls-1" d="M119.86,43.28c0,2.3-.07,4.6,0,6.9.06,1.53-.57,2.28-2.07,2.33a56.12,56.12,0,0,0-8,1A1.35,1.35,0,0,1,108,52.4q-2-7.41-4-14.81c-.25-.92,0-1.47,1-1.69a93,93,0,0,1,13.08-1.77c1.2-.1,1.76.45,1.74,1.68,0,2.49,0,5,0,7.47Z"/><path class="cls-1" d="M119.85,203.74c0,2.42,0,4.85,0,7.27,0,1.2-.48,1.76-1.71,1.72a76.76,76.76,0,0,1-13.08-1.68c-.95-.2-1.24-.74-1-1.67q2-7.47,4-15c.24-.92.7-1.2,1.66-1,2.83.45,5.66.89,8.51,1.2,1.28.14,1.59.79,1.58,1.9C119.84,198.89,119.85,201.31,119.85,203.74Z"/><path class="cls-1" d="M43.19,119.83c-2.43,0-4.85,0-7.28,0-1.32,0-1.87-.55-1.77-1.85a99.86,99.86,0,0,1,1.73-12.88c.24-1.11.83-1.27,1.8-1q7.29,2,14.6,3.93c1,.27,1.53.7,1.28,1.88a47.26,47.26,0,0,0-1,7.77c-.08,1.55-.77,2.26-2.43,2.18C47.79,119.74,45.49,119.83,43.19,119.83Z"/><path class="cls-1" d="M155.58,326.39a10.15,10.15,0,0,1-10.13-10.51,10.26,10.26,0,0,1,10.27-10.27,10.39,10.39,0,1,1-.14,20.78Zm.2-2.32a7.83,7.83,0,0,0,8.07-8.15,8.05,8.05,0,0,0-8.13-8c-4.7,0-7.94,3.36-7.92,8.24A7.54,7.54,0,0,0,155.78,324.07Z"/><path class="cls-1" d="M46.76,316.1A10.25,10.25,0,0,1,57,305.61a10.39,10.39,0,1,1-.07,20.78A10.14,10.14,0,0,1,46.76,316.1Zm10.24,8A7.85,7.85,0,0,0,65.17,316a8.09,8.09,0,0,0-8.24-8.08c-4.6,0-7.81,3.37-7.82,8.14S52.31,324.07,57,324.07Z"/><path class="cls-1" d="M91.8,298.39a10.17,10.17,0,0,1-10.45-10.2,10.39,10.39,0,1,1,20.78,0A10.26,10.26,0,0,1,91.8,298.39Zm-8.09-10.25a8,8,0,0,0,8.06,8.17,8.19,8.19,0,1,0-8.06-8.17Z"/><path class="cls-1" d="M121.3,69.16c0,1.14,0,2.29,0,3.44,0,2.64-.1,2.73-2.78,3-.5,0-1,.06-1.52.12-3.88.45-3.88.46-4.89-3.39-.57-2.15-1.09-4.33-1.72-6.47-.36-1.21,0-1.83,1.23-2a61.11,61.11,0,0,1,7.77-1c1.43-.05,2,.55,1.92,1.91S121.3,67.69,121.3,69.16Z"/><path class="cls-1" d="M121.28,178c0,1.53,0,3.06,0,4.59,0,1.06-.4,1.73-1.6,1.6-2.66-.28-5.33-.51-8-1.05-1.27-.26-1.71-.83-1.33-2.14q1.26-4.32,2.34-8.68a1.66,1.66,0,0,1,2.2-1.45c1.57.28,3.15.52,4.73.66,1.12.1,1.61.62,1.62,1.69C121.29,174.82,121.28,176.41,121.28,178Z"/><path class="cls-1" d="M68.92,121.28H66.24c-3.48,0-3.55,0-3.3-3.39.16-2.09.57-4.17.88-6.25.18-1.16.75-1.64,2-1.28,3,.87,6,1.66,9.06,2.44,1,.25,1.42.68,1.23,1.75-.29,1.7-.55,3.4-.7,5.12-.12,1.24-.77,1.62-1.9,1.61-1.53,0-3.06,0-4.59,0Z"/><path class="cls-1" d="M177.4,312.08v10.14c0,.57,0,1.15,0,1.73,0,.86.16,2-1.21,1.93-1.22,0-1.08-1.05-1.1-1.85,0-1.6,0-3.2,0-4.8,0-3.58,0-7.16,0-10.74,0-.61-.25-1.47.4-1.76.82-.36,1.19.57,1.62,1,3.22,3.63,6.4,7.3,9.61,11,.44.5.72,1.21,1.8,1.35v-9c0-1.21,0-2.43,0-3.64,0-.71.28-1.27,1.1-1.29s1.13.52,1.15,1.24c0,1.15,0,2.3,0,3.45,0,4.28,0,8.57,0,12.85,0,.66.33,1.63-.49,1.87s-1.09-.72-1.54-1.23q-5.49-6.22-11-12.48Z"/><path class="cls-1" d="M90.57,174.49a9,9,0,0,1-.91-.47c-2.23-1.5-4.31-3.18-6.38-4.89-1-.82-.91-1.46,0-2.32,2.22-2.12,4.38-4.3,6.51-6.49.8-.83,1.45-1,2.42-.19,1.24,1.09,2.61,2,4,3,.77.57,1.13,1.17.58,2.1-1.67,2.87-3.31,5.75-5,8.63A1,1,0,0,1,90.57,174.49Z"/><path class="cls-1" d="M87.55,91.13c-.27.41-.5.79-.77,1.13-.78,1-1.6,2-2.36,3-1.6,2.13-1.58,2.13-4,.75s-4.63-2.73-7-4c-1.18-.65-1.37-1.37-.53-2.43,1.7-2.16,3.36-4.34,5-6.51.53-.68,1.09-.81,1.75-.13,2.39,2.41,4.8,4.79,7.18,7.2A5.8,5.8,0,0,1,87.55,91.13Z"/><path class="cls-1" d="M156,159.38a11.33,11.33,0,0,1,1.08.86c2.23,2.2,4.41,4.45,6.66,6.62.82.8.91,1.4,0,2.19a66.23,66.23,0,0,1-6.68,5.14c-.81.54-1.4.44-1.89-.4l-5-8.63a1.14,1.14,0,0,1,.24-1.69c1.57-1.19,3.13-2.41,4.71-3.61A6.13,6.13,0,0,1,156,159.38Z"/><path class="cls-1" d="M142.64,181.21c-1,.21-1.35-.11-1.5-.68-.9-3.32-1.79-6.65-2.7-10-.24-.88.18-1.3.93-1.59,1.72-.68,3.44-1.36,5.14-2.09a1.22,1.22,0,0,1,1.75.61q2.49,4.31,5,8.62c.31.52.51,1.13-.17,1.5A52.84,52.84,0,0,1,142.64,181.21Z"/><path class="cls-1" d="M65.88,103.91a53.19,53.19,0,0,1,3.4-8c.43-.79,1-.56,1.63-.21,2.87,1.66,5.73,3.34,8.61,5a1.15,1.15,0,0,1,.58,1.72c-.73,1.63-1.43,3.27-2,5a1.46,1.46,0,0,1-2.06,1c-3-.85-6-1.64-9.06-2.45C66.13,105.77,65.46,105.44,65.88,103.91Z"/><path class="cls-1" d="M138.39,76.55c.9-3.32,1.78-6.65,2.69-10,.23-.85.81-1.07,1.62-.8a53.72,53.72,0,0,1,8.1,3.39,1,1,0,0,1,.45,1.57q-2.56,4.48-5.14,9c-.4.7-1,.69-1.63.4-1.7-.73-3.41-1.43-5.12-2.12C138.71,77.71,138.22,77.37,138.39,76.55Z"/><path class="cls-1" d="M104.31,181.19a51,51,0,0,1-8.46-3.58c-.79-.43-.4-1.1-.08-1.66,1.6-2.76,3.23-5.51,4.79-8.29a1.43,1.43,0,0,1,2.19-.65c1.5.7,3,1.32,4.61,1.88a1.43,1.43,0,0,1,1,2c-.85,3.07-1.63,6.17-2.45,9.25C105.77,180.83,105.54,181.43,104.31,181.19Z"/><path class="cls-1" d="M108.47,76.18c.16,1.3-.35,1.55-.9,1.78-1.7.71-3.42,1.39-5.11,2.14a1.16,1.16,0,0,1-1.73-.57q-2.49-4.31-5-8.6a1.13,1.13,0,0,1,.53-1.84,59.08,59.08,0,0,1,7.94-3.3c.69-.24,1.33-.17,1.55.62C106.74,69.84,107.67,73.28,108.47,76.18Z"/><path class="cls-1" d="M65.76,142.6c-.21-1.1.38-1.37,1-1.55,3.15-.86,6.3-1.69,9.44-2.56a1.3,1.3,0,0,1,1.77.94c.66,1.66,1.34,3.32,2.09,4.94a1.26,1.26,0,0,1-.61,1.89c-2.83,1.61-5.65,3.25-8.48,4.86-.56.32-1.2.69-1.65-.12A43.09,43.09,0,0,1,65.76,142.6Z"/><path class="cls-1" d="M97.05,82.51c0,.76-5.57,5.07-6.18,4.86A2.56,2.56,0,0,1,90,86.7c-2.27-2.25-4.51-4.54-6.8-6.76-.89-.85-.78-1.46.14-2.15,2.14-1.62,4.26-3.27,6.39-4.89.73-.56,1.45-.89,2.06.17q2.53,4.41,5.06,8.81A2.82,2.82,0,0,1,97.05,82.51Z"/><path class="cls-1" d="M87.4,155.68a1.68,1.68,0,0,1-.68,1.27c-2.25,2.26-4.54,4.49-6.75,6.79-.85.88-1.45.75-2.18-.11a75.1,75.1,0,0,1-5-6.53c-.69-1-.38-1.56.6-2.11,2.68-1.48,5.34-3,8-4.59,1.08-.66,1.77-.67,2.51.47s1.85,2.43,2.77,3.66C86.94,154.93,87.19,155.37,87.4,155.68Z"/><path class="cls-1" d="M164.42,79.08a8,8,0,0,1-.62.79c-2.25,2.27-4.54,4.5-6.76,6.79a1.52,1.52,0,0,1-2.45.08c-1.27-1.06-2.59-2.07-3.93-3-.74-.54-1-1-.49-1.91q2.54-4.31,5-8.64c.5-.88,1.07-.94,1.87-.4A74.1,74.1,0,0,1,163.84,78,1.3,1.3,0,0,1,164.42,79.08Z"/><path class="cls-1" d="M125.86,177.81c0-1.53,0-3.06,0-4.59,0-1.11.45-1.6,1.57-1.7,1.52-.13,3-.37,4.55-.65,1.21-.22,1.91.09,2.23,1.39.74,3,1.56,5.92,2.4,8.87.34,1.18.06,1.84-1.22,2-2.59.34-5.18.7-7.77,1.06-1.22.16-1.8-.32-1.76-1.59C125.89,181,125.86,179.41,125.86,177.81Z"/><path class="cls-1" d="M69,125.83h3.26c3,0,3,0,3.39,3,.06.5,0,1,.14,1.52.72,4,.77,3.37-2.9,4.39-2.28.64-4.59,1.15-6.84,1.86-1.44.45-2-.06-2.22-1.4a61.61,61.61,0,0,1-1-7.79c0-1.22.41-1.58,1.53-1.54C65.89,125.87,67.43,125.83,69,125.83Z"/><path class="cls-1" d="M125.86,69c0-1.53,0-3.06,0-4.59,0-1.13.49-1.6,1.62-1.58a49.39,49.39,0,0,1,7.95,1c1.13.2,1.45.85,1.15,1.94-.85,3.07-1.68,6.14-2.48,9.23a1.24,1.24,0,0,1-1.67,1.06c-.62-.13-1.26-.2-1.88-.3-4.69-.78-4.69-.78-4.69-5.62V69Z"/><path class="cls-1" d="M119.73,298.39a9.5,9.5,0,0,1-9-7.33,10.16,10.16,0,0,1,4.34-11.69,11.11,11.11,0,0,1,13,1c.55.5,1.58,1,.76,2s-1.54.21-2.24-.37a8.72,8.72,0,0,0-11.72.3,8.43,8.43,0,0,0-.55,10.9c2.64,3.4,8,4,11.78,1.39.36-.26.7-.56,1-.85a1.12,1.12,0,0,1,1.69.17c.57.58.17,1.07-.25,1.48C126.52,297.5,123.94,298.43,119.73,298.39Z"/><path class="cls-1" d="M148.36,298.39c-5,0-9-2.87-10.18-7.39a10.35,10.35,0,0,1,4.74-11.91,11.08,11.08,0,0,1,12.66,1.39c.5.48,1.65.9.75,2s-1.49.26-2.19-.34a8.54,8.54,0,0,0-12.3.91A8.35,8.35,0,0,0,143,294.4a8.87,8.87,0,0,0,10.38.37c.42-.29.83-.6,1.22-.92a1.05,1.05,0,0,1,1.67.1c.51.61.12,1.07-.3,1.49A9.87,9.87,0,0,1,148.36,298.39Z"/><path class="cls-1" d="M96.79,314.09c0,2.05-.07,4.1,0,6.14.11,2.32,1.44,3.59,3.77,3.81a3.92,3.92,0,0,0,4.61-3.08,11.19,11.19,0,0,0,.32-3q0-5.18,0-10.36c0-.67.08-1.34,1-1.39s1.08.55,1.07,1.26c0,4.42.13,8.84-.13,13.24a5.93,5.93,0,0,1-6.07,5.73c-3.62.08-6.24-1.91-6.69-5.5-.56-4.45-.16-8.94-.19-13.42,0-.69.25-1.28,1.08-1.31s1.18.63,1.18,1.4c0,2.18,0,4.35,0,6.53Z"/><path class="cls-1" d="M205.23,326.39a6.51,6.51,0,0,1-5.72-3.25c-.38-.6-.61-1.14.17-1.62a1.07,1.07,0,0,1,1.63.36c.88,1.21,1.86,2.26,3.58,2.2a3.11,3.11,0,0,0,2.6-5c-1.41-1.95-3.53-3.12-5.31-4.67-2-1.77-2.6-4-1.52-6.16a4.64,4.64,0,0,1,4.41-2.55,6,6,0,0,1,4.84,2.73c.35.46.09.83-.31,1.12s-.86.63-1.38.22a13.67,13.67,0,0,0-1.29-1.14c-1.29-.83-2.65-1.08-3.85.11-1.05,1-.87,2.72.46,3.91s2.68,2.17,4.06,3.21a8.42,8.42,0,0,1,1.92,2.12,5,5,0,0,1,.35,5.45A5.51,5.51,0,0,1,205.23,326.39Z"/><path class="cls-1" d="M32.77,326.4c-2.48-.06-4.09-1.44-5.4-3.28-.43-.6-.48-1.16.24-1.63s1.19-.18,1.58.44A3.85,3.85,0,0,0,33,324.05a3,3,0,0,0,2.77-1.75,3,3,0,0,0-.37-3.25,19.91,19.91,0,0,0-4.14-3.69,8.27,8.27,0,0,1-2.8-3.1,4.49,4.49,0,0,1,2.33-6.09c2.39-1.08,5.95,0,6.93,2.09a1,1,0,0,1-.35,1.33.9.9,0,0,1-1.36,0,7.28,7.28,0,0,0-1.46-1.22c-1.29-.66-2.66-.79-3.66.45s-.58,2.44.34,3.49A12.22,12.22,0,0,0,33.08,314,20.67,20.67,0,0,1,37,317.38c1.37,1.71,2,3.6,1,5.71A5.63,5.63,0,0,1,32.77,326.4Z"/><path class="cls-1" d="M120.12,317.06c0-2.24-.06-4.48,0-6.72,0-1.49-.51-2.14-2-2a6.06,6.06,0,0,1-1.34-.07,1,1,0,0,1-.86-1.08c0-.61.3-1.05.88-1.05q4.4-.06,8.81,0a1,1,0,0,1,1,1.18c0,.72-.52,1-1.16,1a8.88,8.88,0,0,1-1.15,0c-1.46-.13-1.89.62-1.87,2,0,4,0,8.06,0,12.09,0,.58,0,1.15,0,1.73,0,.85-.06,1.79-1.26,1.74s-1-.95-1-1.71c0-2.37,0-4.73,0-7.1Z"/><path class="cls-1" d="M76.39,316c0-2.68,0-5.36,0-8,0-.82-.05-1.82,1.17-1.79s1.13,1,1.13,1.84c0,4.47.06,9,0,13.42,0,1.65.52,2.37,2.21,2.23a32.89,32.89,0,0,1,3.44,0c.87,0,2-.17,2,1.2s-1,1.1-1.84,1.11c-2,0-4.09,0-6.14,0-1.38,0-2-.51-1.94-1.91C76.43,321.39,76.39,318.71,76.39,316Z"/><path class="cls-1" d="M136.69,316.09c0,2.61,0,5.23,0,7.85,0,.86.16,2-1.2,1.94s-1.11-1-1.11-1.84q0-7.95,0-15.9c0-.86-.15-2,1.2-1.95s1.09,1.2,1.1,2C136.72,310.85,136.69,313.47,136.69,316.09Z"/></g></g></svg>