<svg xmlns="http://www.w3.org/2000/svg" viewBox="0 0 515.74 250.92"><defs><style>.cls-1{fill:#fff;}</style></defs><title>3 - Pulse Engagement</title><g id="Capa_2" data-name="Capa 2"><g id="Capa_1-2" data-name="Capa 1"><path class="cls-1" d="M210.29,217.64a1.44,1.44,0,0,1-.58,1c-1,.88-2,1.76-3,2.62a129.82,129.82,0,0,1-12.14,9.11,14.9,14.9,0,0,1-1.39.82.74.74,0,0,1-1-.22,13.73,13.73,0,0,1-.8-1.19q-5.35-9.24-10.68-18.47c-1-1.71-1-1.73.66-2.83a105.35,105.35,0,0,0,9.88-7.6c1.29-1.11,1.44-1.13,2.67.09l15.47,15.47a7.91,7.91,0,0,1,.71.81A1.52,1.52,0,0,1,210.29,217.64Z"/><path class="cls-1" d="M209.69,70.83a2.65,2.65,0,0,1-.6-.43,12,12,0,0,1-.84-1.18A84.19,84.19,0,0,0,201,59.78a7.82,7.82,0,0,1-.67-.85c-.44-.63-.43-.89.05-1.44.28-.31.59-.6.89-.9q7.41-7.43,14.84-14.84c1.57-1.57,1.6-1.6,3.05,0a111.54,111.54,0,0,1,7.42,9.1c1.31,1.81,2.55,3.66,3.82,5.5.27.4.53.81.76,1.23a.81.81,0,0,1-.24,1.12,7.92,7.92,0,0,1-.92.58l-16.6,9.58c-.94.54-1.88,1.09-2.83,1.62A4.91,4.91,0,0,1,209.69,70.83Z"/><path class="cls-1" d="M12.72,130.37H23.39c1.92,0,2,.12,2.14,2a118.66,118.66,0,0,0,1.57,12c.36,2,.25,2.11-1.67,2.63L5.34,152.44l-.53.13C3,153,2.77,152.9,2.4,151c-.65-3.25-1.24-6.51-1.61-9.8-.34-3-.71-6-.76-9,0-.3,0-.6,0-.9a.81.81,0,0,1,.79-.84,14.53,14.53,0,0,1,1.62-.08Z"/><path class="cls-1" d="M170.89,36a6.83,6.83,0,0,1-.83-.29c-1.21-.54-2.42-1.09-3.62-1.66A82.18,82.18,0,0,0,158,30.75c-1.85-.62-1.89-.67-1.37-2.59,1.87-7.06,3.77-14.11,5.65-21.16a3.57,3.57,0,0,1,.1-.35c.31-1,.62-1.15,1.63-.81,2.17.73,4.34,1.48,6.48,2.29a108.43,108.43,0,0,1,11.4,5.08c.32.17.65.32,1,.51.7.43.8.72.37,1.49-1.63,2.89-3.29,5.77-4.94,8.64-2.08,3.61-4.18,7.21-6.27,10.81a10.53,10.53,0,0,1-.67,1.06C171.27,35.86,171.08,35.92,170.89,36Z"/><path class="cls-1" d="M236.31,183.48a2.66,2.66,0,0,1-1.15-.46l-6.88-4L217,172.54c-2.55-1.48-2.42-1.39-1.27-3.84A88.18,88.18,0,0,0,220,158.32c.07-.23.15-.45.23-.68.53-1.42.63-1.49,2.12-1.09l21.13,5.66.17,0c1.66.48,1.75.64,1.22,2.28a117.7,117.7,0,0,1-7.35,17.68,8.73,8.73,0,0,1-.55.93A.81.81,0,0,1,236.31,183.48Z"/><path class="cls-1" d="M94.48,221.4c-.08.37-.18.91-.32,1.43-1,3.67-2,7.33-2.94,11-.8,3-1.59,5.94-2.39,8.91-.14.52-.26,1-.45,1.56-.25.71-.64.91-1.41.74a10.53,10.53,0,0,1-1.21-.37,122.14,122.14,0,0,1-17.14-7.22l-.32-.17c-1.14-.63-1.21-.82-.55-2Q73.12,226,78.5,216.68c1.25-2.13,1-2.23,3.44-1.07A99.72,99.72,0,0,0,92.63,220c.45.16.91.32,1.35.51A.87.87,0,0,1,94.48,221.4Z"/><path class="cls-1" d="M29.26,94.44c-.14,0-.43-.08-.72-.16L7.75,88.71c-.46-.13-.93-.25-1.38-.42s-.71-.54-.58-1.15c.08-.35.2-.69.31-1a110.7,110.7,0,0,1,7.3-17.5c.06-.11.11-.22.17-.32.62-1.13.83-1.2,2-.55l16.29,9.4c1.09.64,2.2,1.26,3.28,1.91s1.16.8.55,2c-1.08,2.16-2,4.37-2.94,6.6-.7,1.73-1.33,3.49-2,5.23A8.53,8.53,0,0,1,30.19,94C30,94.32,29.75,94.44,29.26,94.44Z"/><path class="cls-1" d="M130.45,238.08c0-3.5,0-7,0-10.49,0-2.1.19-2.25,2.24-2.36a87.58,87.58,0,0,0,10.58-1.3c.65-.11,1.29-.27,1.95-.37,1-.14,1.26.05,1.58,1,.21.63.39,1.27.56,1.91q2.64,9.85,5.27,19.73a5.54,5.54,0,0,1,.19.88.84.84,0,0,1-.61,1,9.49,9.49,0,0,1-1.39.37c-4.08.83-8.18,1.44-12.32,1.9-2.1.23-4.22.15-6.3.54a2.89,2.89,0,0,1-.72,0,1,1,0,0,1-1-.89,14.71,14.71,0,0,1-.07-1.63C130.44,245,130.45,241.51,130.45,238.08Z"/><path class="cls-1" d="M57.81,19.56c.51-.06.71.08.85.28a10.74,10.74,0,0,1,.56.92q5.16,8.91,10.31,17.83c.39.68.77,1.36,1.13,2.06a.77.77,0,0,1-.28,1.1c-.33.26-.69.49-1,.73a92.49,92.49,0,0,0-9.44,7.27l-.14.12c-1.47,1.25-1.53,1.25-2.93-.14L41.63,34.52l-.25-.25c-1-1.08-1.06-1.2,0-2.17s2.23-2,3.38-3a132.39,132.39,0,0,1,12-8.94A3.68,3.68,0,0,1,57.81,19.56Z"/><path class="cls-1" d="M120.39,12.69v10c0,.49,0,1,0,1.45-.06.93-.27,1.16-1.16,1.32a19.48,19.48,0,0,1-2.15.29,80.09,80.09,0,0,0-10.57,1.41c-2.15.4-2.14.4-2.7-1.7L98.44,5.48c-.12-.46-.25-.93-.34-1.4-.19-1,0-1.32,1-1.52,2.72-.52,5.45-1,8.19-1.45,2.92-.42,5.86-.72,8.8-1A24.17,24.17,0,0,1,119.18,0c.81,0,1.09.32,1.17,1.09.05.54,0,1.09,0,1.63Z"/><path class="cls-1" d="M50.87,192.54a1.48,1.48,0,0,1-.2.45c-.27.32-.57.63-.86.93q-7.62,7.62-15.24,15.23c-1.46,1.46-1.57,1.41-2.93-.13-2.87-3.26-5.6-6.64-8.14-10.17-1.26-1.76-2.46-3.58-3.66-5.39-.47-.72-.39-1,.34-1.49,1.12-.7,2.28-1.35,3.43-2l15.52-9c.52-.3,1.06-.57,1.6-.83a.78.78,0,0,1,1,.24,12,12,0,0,1,.86,1.16,93.84,93.84,0,0,0,7.74,10A1.7,1.7,0,0,1,50.87,192.54Z"/><path class="cls-1" d="M238.26,120.31h-9.95c-.42,0-.84,0-1.26,0-1.43,0-1.61-.24-1.73-1.71a107.76,107.76,0,0,0-1.57-12c-.41-2.09-.32-2.24,1.68-2.79q5.92-1.62,11.86-3.21c2.85-.77,5.71-1.51,8.56-2.27l.17,0c1.86-.49,2-.44,2.39,1.51.3,1.41.58,2.83.83,4.26.62,3.62,1.06,7.26,1.41,10.92.14,1.43.13,2.89.17,4.33,0,.7-.24.93-1,1-.48,0-1,0-1.44,0Z"/><path class="cls-1" d="M12.65,119.87h-8c-.3,0-.6,0-.91,0-1.58,0-1.85-.33-1.83-2a14.4,14.4,0,0,1,.17-1.61c0-.42.15-.84.16-1.26a53.35,53.35,0,0,1,.84-7.35c.25-1.67.56-3.33.86-5a6.4,6.4,0,0,1,.3-1.22.94.94,0,0,1,1-.65,4.34,4.34,0,0,1,1.07.17c5.65,1.52,11.29,3,16.93,4.58,1.72.47,1.72.52,1.5,2.23-.33,2.51-.69,5-1,7.52-.1.77-.07,1.56-.1,2.34a9.94,9.94,0,0,1-.05,1.09,1.06,1.06,0,0,1-1,1.07,11.56,11.56,0,0,1-1.44.06Z"/><path class="cls-1" d="M238.17,132.19h8.51c2.12,0,2.34.34,2,2.5-.23,1.67-.37,3.36-.55,5-.34,3.06-.85,6.09-1.49,9.1a3.46,3.46,0,0,1-.22.69.91.91,0,0,1-1,.59,10.5,10.5,0,0,1-1.24-.26l-17-4.52a3.39,3.39,0,0,1-.52-.15c-.65-.24-.84-.5-.75-1.24.17-1.38.4-2.75.56-4.12.23-1.86.42-3.71.62-5.57,0-.3,0-.6.05-.9.11-.75.4-1,1.19-1.11a13.85,13.85,0,0,1,1.44,0Z"/><path class="cls-1" d="M132.3,12.74V4.42c0-.48,0-1,0-1.44s.28-.79.79-.79a19.73,19.73,0,0,1,2.88.05c4.06.53,8.13,1,12.14,1.78,2.17.44,2.23.49,1.68,2.58-1.17,4.43-2.38,8.84-3.56,13.26-.25.93-.48,1.87-.72,2.8-.1.41-.19.82-.33,1.22a1.31,1.31,0,0,1-1.66,1c-1.85-.23-3.7-.46-5.54-.75a16.31,16.31,0,0,0-2.7-.23,6.18,6.18,0,0,1-2.12-.36,1.19,1.19,0,0,1-.85-1.06c0-.48,0-1,0-1.44Z"/><path class="cls-1" d="M118.53,238.08c0,2.84,0,5.67,0,8.51,0,2-.21,2.23-2.18,2.17a40.49,40.49,0,0,1-4.67-.41c-3-.45-6.07-1-9.1-1.49a10.62,10.62,0,0,1-1.24-.29c-.51-.15-.71-.41-.61-.93.17-.89.39-1.77.62-2.64.73-2.74,1.48-5.47,2.22-8.21.59-2.21,1.14-4.44,1.77-6.64.49-1.7.57-2.44,3-2a39,39,0,0,0,7.71.87,4.37,4.37,0,0,1,.72.06c1.28.21,1.67.61,1.69,1.91,0,1.93,0,3.86,0,5.79Z"/><path class="cls-1" d="M27.69,159.1a1.09,1.09,0,0,1,1.13.6,19.38,19.38,0,0,1,.91,2.16c.74,2.24,1.76,4.37,2.64,6.55.11.28.26.54.36.82a1.19,1.19,0,0,1-.62,1.67c-1.05.59-2.13,1.13-3.17,1.74-1.88,1.08-3.73,2.21-5.6,3.3-1.09.63-2.2,1.25-3.31,1.85A37.73,37.73,0,0,0,16.31,180c-.83.58-1.21.44-1.72-.46-.15-.26-.28-.54-.41-.81-2-4.27-3.82-8.59-5.41-13a5.16,5.16,0,0,1-.16-.52.87.87,0,0,1,.5-1.05,5,5,0,0,1,.85-.3l17.12-4.61C27.31,159.18,27.55,159.14,27.69,159.1Z"/><path class="cls-1" d="M223.09,91.8a1,1,0,0,1-1.05-.48,6.73,6.73,0,0,1-.43-1,84.41,84.41,0,0,0-3.35-8.2,5.38,5.38,0,0,1-.27-.66.89.89,0,0,1,.37-1.11c.66-.43,1.33-.82,2-1.21L231.19,73c.94-.54,1.86-1.12,2.79-1.67a9.81,9.81,0,0,1,1-.52.75.75,0,0,1,1.09.29,7.59,7.59,0,0,1,.44.79c1.72,3.45,3.19,7,4.6,10.61.33.84.66,1.68.95,2.54.47,1.38.3,1.71-1.06,2.09s-2.79.77-4.19,1.14l-12.23,3.25C224,91.61,223.47,91.71,223.09,91.8Z"/><path class="cls-1" d="M159,223a.93.93,0,0,1,.57-1c.95-.38,1.91-.73,2.86-1.12,1.85-.75,3.68-1.52,5.52-2.27q.75-.32,1.53-.57a.8.8,0,0,1,1,.27,7.9,7.9,0,0,1,.61.9q4.16,7.2,8.29,14.42c1.12,2,1.08,2.07-1,3.08a102.18,102.18,0,0,1-13,5.43c-.85.28-1.09.19-1.39-.6a13.35,13.35,0,0,1-.5-1.55c-1.24-4.66-2.46-9.33-3.69-14-.17-.64-.38-1.27-.55-1.91C159.17,223.72,159.1,223.3,159,223Z"/><path class="cls-1" d="M91.77,27.79c0,.65-.14.94-.5,1.12a4.4,4.4,0,0,1-.5.21c-3,1-6,2.31-8.91,3.53a5.52,5.52,0,0,1-.67.27.67.67,0,0,1-.79-.29c-.8-1.28-1.67-2.52-2.36-3.85-2.09-4-4.48-7.85-6.72-11.78l-.09-.16c-.8-1.38-.74-1.63.65-2.36a90.22,90.22,0,0,1,8.57-3.87c1.35-.54,2.69-1.07,4-1.59a9.56,9.56,0,0,1,1.39-.39.65.65,0,0,1,.75.38,15,15,0,0,1,.62,1.7q2.11,7.86,4.21,15.73C91.59,27,91.7,27.49,91.77,27.79Z"/><path class="cls-1" d="M402.73,115V100.14c0-.6,0-1.21.07-1.81a.91.91,0,0,1,.94-.91,10.79,10.79,0,0,1,1.27,0h15.93c.64.06,1.44-.21,1.83.45a3.25,3.25,0,0,1,.11,2.63.75.75,0,0,1-.68.52,14.66,14.66,0,0,1-1.62.09H409c-2.52,0-2.53,0-2.53,2.49q0,2.89,0,5.79a9.92,9.92,0,0,0,0,1.09c.08.75.36,1,1.17,1.1.48,0,1,0,1.44,0H420a12.62,12.62,0,0,1,1.63.07c.78.1,1.1.41,1.14,1.16.15,2.38.07,2.72-2.31,2.71-3.86,0-7.72,0-11.58,0-2.3,0-2.37.07-2.38,2.3,0,3,0,5.91,0,8.87,0,.3,0,.6,0,.9.08.95.3,1.19,1.19,1.25.48,0,1,0,1.45,0h11.4c2.1,0,2.35.12,2.24,2.42,0,.89-.33,1.16-1.23,1.24-.41,0-.84,0-1.26,0h-15c-2.45,0-2.5-.05-2.5-2.55Z"/><path class="cls-1" d="M227.91,193.53a2.87,2.87,0,0,1-.62,1.4c-1.74,2.23-3.37,4.55-5.07,6.81a14.22,14.22,0,0,1-2.45,2.87,6.3,6.3,0,0,0-.9,1.13,6.8,6.8,0,0,1-.69.82,1,1,0,0,1-1.47,0,9.12,9.12,0,0,1-.79-.74l-11.77-11.77-.38-.39c-.81-.88-.82-1.12-.08-2a86,86,0,0,0,5.29-6.88c1.23-1.79,1.26-1.82,3.1-.79,2.53,1.42,5,2.88,7.53,4.33,2.35,1.35,4.71,2.69,7.06,4a6.67,6.67,0,0,1,.91.58A2.08,2.08,0,0,1,227.91,193.53Z"/><path class="cls-1" d="M193.47,22.9a1.76,1.76,0,0,1,1,.46c1.94,1.42,3.91,2.82,5.82,4.29s3.58,2.85,5.36,4.28c.19.16.36.33.53.5.63.68.66,1,.07,1.72-.27.31-.58.61-.88.9L194.21,46.18a14.13,14.13,0,0,1-1,1,1.1,1.1,0,0,1-1.63,0c-1.3-1.46-3.13-2.25-4.45-3.67a4.14,4.14,0,0,0-1.19-.82A12.34,12.34,0,0,1,183.75,41a.94.94,0,0,1-.32-1.28,6.8,6.8,0,0,1,.42-.8q4.44-7.66,8.89-15.33a3.9,3.9,0,0,1,.41-.59A.93.93,0,0,1,193.47,22.9Z"/><path class="cls-1" d="M47.43,58.72a1.29,1.29,0,0,1-.41.74,67.46,67.46,0,0,0-5.36,6.79c-1,1.51-1.33,1.58-2.93.65-2.55-1.49-5.09-3-7.64-4.46C29.73,61.66,28.33,61,27,60.18s-2.47-1.52-3.69-2.29a.65.65,0,0,1-.23-.94,11.91,11.91,0,0,1,.77-1.22,106.51,106.51,0,0,1,6.91-9,18.71,18.71,0,0,1,1.88-2.19.82.82,0,0,1,1.28,0c.27.24.52.5.78.76L46.19,56.77a12.32,12.32,0,0,1,1,1.07A1.14,1.14,0,0,1,47.43,58.72Z"/><path class="cls-1" d="M67.58,210.71a7.79,7.79,0,0,1-.32.72q-2,3.45-4,6.88c-1.63,2.82-3.27,5.62-4.89,8.44-.77,1.35-.89,1.37-2.21.63a53.64,53.64,0,0,1-4.5-3.31c-1.47-1-2.89-2.15-4.33-3.23a3.5,3.5,0,0,1-.43-.33,10,10,0,0,0-2.3-2,.92.92,0,0,1-.22-1.42,7.76,7.76,0,0,1,.73-.8L57,204.4c.17-.17.34-.35.52-.51.72-.63,1-.65,1.72-.07.94.74,1.86,1.52,2.82,2.25,1.58,1.2,3.19,2.37,4.78,3.56A1.33,1.33,0,0,1,67.58,210.71Z"/><path class="cls-1" d="M328.2,110.86c0,3.49,0,7,0,10.49a16.64,16.64,0,0,0,.17,2.34,6.1,6.1,0,0,0,3,4.51,8.21,8.21,0,0,0,7.44.91,7.16,7.16,0,0,0,4.87-6.2,57.85,57.85,0,0,0,.33-6.31c.05-5.49,0-11,0-16.47,0-.6,0-1.2.07-1.8a.91.91,0,0,1,.94-.91c2.49-.18,2.72,0,2.72,2.28,0,6.64,0,13.27,0,19.9a31.52,31.52,0,0,1-.68,5.56,10.72,10.72,0,0,1-9.17,8.09,13.33,13.33,0,0,1-6.41-.73,10.29,10.29,0,0,1-7-9.23c-.26-2.83-.28-5.66-.28-8.49,0-5,0-10,0-15,0-2.49.31-2.47,2.64-2.4,1,0,1.23.31,1.31,1.35,0,.48,0,1,0,1.44v10.68Z"/><path class="cls-1" d="M295.26,114.8V100.51c0-.3,0-.6,0-.9,0-2.12.13-2.24,2.26-2.24,3.26,0,6.51,0,9.77,0a11.72,11.72,0,0,1,4.92,1A8.25,8.25,0,0,1,317.4,106c0,.54,0,1.08,0,1.62a8,8,0,0,1-5.27,7.51,16.18,16.18,0,0,1-5.84,1.09c-1.5.06-3,0-4.52,0-.42,0-.84,0-1.26,0-.91.06-1.17.31-1.24,1.2,0,.48,0,1,0,1.45,0,3.55,0,7.11,0,10.67,0,.42,0,.84,0,1.26-.07,1.35-.32,1.6-1.59,1.65-2,.08-2.35-.21-2.36-2.21,0-5.18,0-10.37,0-15.55Zm4-7.89h0c0,1.21,0,2.41,0,3.61a8.79,8.79,0,0,0,.09,1.26.84.84,0,0,0,.7.73,5.47,5.47,0,0,0,.9.08c2.1,0,4.21,0,6.31,0a8.16,8.16,0,0,0,2.31-.39,5.56,5.56,0,0,0-.15-10.75,6.76,6.76,0,0,0-1.59-.3q-3.62-.08-7.22,0c-1,0-1.3.31-1.33,1.31C299.21,103.91,299.24,105.41,299.24,106.91Z"/><path class="cls-1" d="M386,133.33a10.45,10.45,0,0,1-7.88-3.09,14.22,14.22,0,0,1-2.73-3.58c-.38-.74-.3-1,.41-1.51.15-.1.3-.2.46-.29,1.74-1.08,1.81-1,2.83.56a17.47,17.47,0,0,0,1.42,1.88,6.38,6.38,0,0,0,7.88,1.56,5.49,5.49,0,0,0,2.44-7.54,11.72,11.72,0,0,0-1.62-2.16,57.7,57.7,0,0,0-6.19-5.28c-.79-.64-1.61-1.27-2.39-1.93a10.36,10.36,0,0,1-3.19-4.73A8.18,8.18,0,0,1,382,97.3a9.29,9.29,0,0,1,8,.23,11.83,11.83,0,0,1,4.48,4.12.81.81,0,0,1-.18,1.27,20,20,0,0,1-1.73,1.3.72.72,0,0,1-1-.1c-.37-.4-.7-.83-1.06-1.24a7,7,0,0,0-3.59-2.31,4.64,4.64,0,0,0-4,.62,4.33,4.33,0,0,0-1.5,5.46,7,7,0,0,0,2.19,2.83c1.18.93,2.39,1.83,3.58,2.76s2.5,1.89,3.7,2.91a15.1,15.1,0,0,1,3.62,4.47,9.28,9.28,0,0,1-4.88,12.91A8.44,8.44,0,0,1,386,133.33Z"/><path class="cls-1" d="M87.59,66.49a.84.84,0,0,1-.23.8,7.82,7.82,0,0,1-.85.67,61.06,61.06,0,0,0-6,4.62c-1.36,1.18-1.69,1.17-3-.14q-4.87-4.84-9.71-9.71a5.51,5.51,0,0,1-.61-.67.92.92,0,0,1,.06-1.44c.91-.87,1.86-1.71,2.84-2.51a84.39,84.39,0,0,1,7.24-5.39c.2-.13.4-.27.61-.39,1-.57,1.19-.52,1.77.34.1.15.19.31.28.47q3.66,6.33,7.32,12.66A5.33,5.33,0,0,1,87.59,66.49Z"/><path class="cls-1" d="M129.05,203.62v-6.15c0-.36,0-.73,0-1.09.09-1.17.34-1.43,1.54-1.56a80.84,80.84,0,0,0,8.06-1.09c.3-.06.6-.09.9-.12a.86.86,0,0,1,1,.65c.13.4.24.81.35,1.22q1.76,6.54,3.52,13.1c.5,1.87.43,2-1.48,2.42a67.71,67.71,0,0,1-8.76,1.27c-1,.06-1.92.21-2.88.3a5.58,5.58,0,0,1-1.08,0c-.76-.07-1-.35-1.12-1.15,0-.48,0-1,0-1.45Z"/><path class="cls-1" d="M184.31,87.36a1.52,1.52,0,0,1-.45-.21,3.81,3.81,0,0,1-.57-.69A65.51,65.51,0,0,0,178.38,80c-.19-.23-.39-.46-.56-.71a.86.86,0,0,1,0-1,8.93,8.93,0,0,1,.7-.82q5-5.06,10.1-10.09a6.28,6.28,0,0,1,.66-.61.72.72,0,0,1,1.12.09c.62.66,1.23,1.32,1.81,2a95.81,95.81,0,0,1,6.08,8.08c.17.25.34.5.49.76.51.89.45,1.2-.47,1.75-2,1.18-3.94,2.33-5.92,3.48l-6.72,3.89A3.27,3.27,0,0,1,184.31,87.36Z"/><path class="cls-1" d="M98.91,208.46c-.19-.05-.55-.12-.89-.24a87.9,87.9,0,0,1-11.36-4.7l-.48-.25c-.87-.52-1-.84-.44-1.77q3.75-6.5,7.53-13c.56-.95.91-1,2-.59s2.29,1.08,3.46,1.56c1.45.6,2.92,1.13,4.38,1.7,1.13.44,1.26.63,1,1.74q-1.84,7-3.73,14a5.58,5.58,0,0,1-.46,1.17C99.69,208.36,99.4,208.48,98.91,208.46Z"/><path class="cls-1" d="M147.29,58.17l.19-.7q1.78-6.72,3.59-13.44c.54-2,.56-2,2.59-1.35a80.22,80.22,0,0,1,11.15,4.7c.21.11.43.22.63.34.57.35.67.62.39,1.19S165.27,50,165,50.5q-3.21,5.55-6.43,11.1a1.29,1.29,0,0,1-.09.16c-1,1.68-1,1.67-2.81.84-2.19-1-4.4-2-6.67-2.76-.4-.14-.8-.28-1.18-.45S147.19,58.82,147.29,58.17Z"/><path class="cls-1" d="M67.07,163.49a2.22,2.22,0,0,1,.46.24,4.84,4.84,0,0,1,.57.7,80,80,0,0,0,5.19,6.71,4.46,4.46,0,0,1,.33.43.77.77,0,0,1-.05,1c-.31.37-.65.71-1,1.05L63.26,183l-.26.25c-1.13,1.16-1.5,1.45-2.83-.07A117,117,0,0,1,53,173.84a10.82,10.82,0,0,1-.67-1.08.76.76,0,0,1,.27-1.1,11.9,11.9,0,0,1,1.06-.68l11.41-6.61c.47-.27,1-.51,1.45-.74A3.53,3.53,0,0,1,67.07,163.49Z"/><path class="cls-1" d="M202.22,165.15a2.32,2.32,0,0,1-1.22-.46l-3.75-2.19c-2.86-1.66-5.73-3.31-8.59-5-1.46-.86-1.5-1-.76-2.58,1.07-2.23,2-4.52,2.84-6.83a12,12,0,0,1,.49-1.17.82.82,0,0,1,.89-.47c.54.09,1.07.21,1.59.35l12.91,3.48.35.1c1.32.41,1.5.67,1.08,2-.55,1.66-1.12,3.31-1.8,4.92-1,2.27-2,4.5-3.05,6.75a4.76,4.76,0,0,1-.58.9A1.12,1.12,0,0,1,202.22,165.15Z"/><path class="cls-1" d="M58.48,103.79c-1.12-.29-2.4-.6-3.68-.94q-4.89-1.29-9.78-2.62c-.35-.09-.69-.19-1-.31-1.46-.47-1.56-.65-1.12-2,.33-1,.68-2.07,1-3.08a74.73,74.73,0,0,1,3.8-8.59c.08-.16.16-.32.25-.48.4-.67.67-.76,1.32-.42s1,.6,1.57.9L62,92.62c.26.15.53.29.78.46.73.5.83.82.47,1.69-.8,1.88-1.63,3.75-2.42,5.65-.36.89-.63,1.82-1,2.71C59.55,103.7,59.22,103.86,58.48,103.79Z"/><path class="cls-1" d="M47.48,128.9H53.8c.43,0,.85,0,1.27,0,.8.07,1,.31,1.17,1.1.09.6.12,1.2.2,1.8.3,2.2.62,4.41.92,6.61.21,1.54.15,1.64-1.3,2-4.47,1.22-9,2.42-13.44,3.63l-.7.16c-1.17.24-1.43.13-1.66-1-.39-2-.74-3.9-1-5.87s-.48-3.7-.65-5.56c-.26-3,0-3,2.57-2.94Z"/><path class="cls-1" d="M203.46,121.36h-6.32c-.43,0-.85,0-1.27,0-.91-.07-1.2-.31-1.28-1.19-.24-2.83-.65-5.63-1.13-8.42a6.69,6.69,0,0,1-.08-.9.69.69,0,0,1,.44-.71,10.55,10.55,0,0,1,1.2-.4l13.63-3.64c.23-.06.46-.13.7-.17a.84.84,0,0,1,1.12.62,12.52,12.52,0,0,1,.38,1.58c.63,3.32,1,6.67,1.4,10a14.29,14.29,0,0,1,0,2.17c0,.66-.36.95-1,1-.48,0-1,0-1.45,0Z"/><path class="cls-1" d="M122.19,47.09c0,2.17,0,4.33,0,6.5a14.06,14.06,0,0,1-.06,1.45,1.06,1.06,0,0,1-.92,1,3.39,3.39,0,0,1-.71.11,51,51,0,0,0-7.88,1l-.54.08a1.06,1.06,0,0,1-1.24-.8,11.07,11.07,0,0,1-.44-1.38c-1.13-4.19-2.25-8.37-3.35-12.57-.57-2.16-.52-2.25,1.77-2.68a67.89,67.89,0,0,1,11.1-1.37,9.92,9.92,0,0,1,1.44.07.83.83,0,0,1,.73.7,10,10,0,0,1,.1,1.44Q122.2,43.84,122.19,47.09Z"/><path class="cls-1" d="M172.44,177.39a2.54,2.54,0,0,1,.41.23c.32.27.62.57.92.87l9.58,9.58a12.6,12.6,0,0,1,.88.91.73.73,0,0,1,0,1.12,9.45,9.45,0,0,1-.9.89,96.23,96.23,0,0,1-9.46,7.24c-1.47,1-1.63,1-2.49-.54q-3.53-6.09-7-12.2c-.18-.32-.36-.63-.52-1a.77.77,0,0,1,.27-1.11c.91-.68,1.88-1.3,2.78-2,1.58-1.21,3.12-2.45,4.68-3.68A1.22,1.22,0,0,1,172.44,177.39Z"/><path class="cls-1" d="M402.42,161.7c0,1.51,0,3,0,4.52a32.52,32.52,0,0,1-.35,5.4,7.51,7.51,0,0,1-4.63,6.24,11.71,11.71,0,0,1-11.4-1,7.44,7.44,0,0,1-2.55-3.21.62.62,0,0,1,.53-.92,2.24,2.24,0,0,1,2.38.9,6.71,6.71,0,0,0,5.48,2.66,8.72,8.72,0,0,0,4.25-.64,5.29,5.29,0,0,0,3.42-4.31,6.49,6.49,0,0,0,.2-2.32c-.05-.23-.38-.42-.56-.3a6.92,6.92,0,0,0-.86.65c-3.11,2.79-9.23,2.66-12.5-.45a9.05,9.05,0,0,1-3-6.37,9.7,9.7,0,0,1,1.1-5.42,9.47,9.47,0,0,1,8.34-5.13,9,9,0,0,1,5.89,1.91c.38.29.75.61,1.15.87a.28.28,0,0,0,.43-.17c.09-.47.11-1,.2-1.43s.46-.72,1.08-.75,1.18.2,1.28.73a7.7,7.7,0,0,1,.11,1.44Q402.43,158.18,402.42,161.7Zm-17,.21c-.26,4,3.12,7.14,7.2,7.17a7,7,0,0,0,7.27-7.14c0-4.79-3.12-7.51-7.26-7.55A7.31,7.31,0,0,0,385.4,161.91Z"/><path class="cls-1" d="M354.63,162.05c0,2.41,0,4.82,0,7.23a10.8,10.8,0,0,1-1.06,4.9,7.63,7.63,0,0,1-4.32,3.9,12.53,12.53,0,0,1-9-.1,8.73,8.73,0,0,1-4.05-3.47,5.11,5.11,0,0,1-.45-1,.55.55,0,0,1,.38-.71,2.27,2.27,0,0,1,2.33.57c.25.27.51.51.75.78a6.76,6.76,0,0,0,5,2.18,9.75,9.75,0,0,0,4.43-.7,5,5,0,0,0,3.14-3.69,10.89,10.89,0,0,0,.25-1.24c.06-.59.33-1.38-.14-1.73s-1.05.32-1.5.66a10.17,10.17,0,0,1-11.8-.34,8.91,8.91,0,0,1-3.42-6.15,9.65,9.65,0,0,1,3.41-8.89,9.05,9.05,0,0,1,5.43-2.22,8.93,8.93,0,0,1,7.25,2.58c.16.16.38.36.63.17a.85.85,0,0,0,.2-.47,3.27,3.27,0,0,0,0-.54c0-.12,0-.24,0-.36a1,1,0,0,1,1.11-1c.94,0,1.34.28,1.38,1.25.05,1.5,0,3,0,4.52v3.8Zm-2.48-.05h-.08c0-.42,0-.84,0-1.26a7,7,0,0,0-6.72-6.36,7.42,7.42,0,0,0-6.15,2.88c-1.78,2.25-2.67,6.92.74,10a7.11,7.11,0,0,0,6.22,1.72c2.88-.49,5-2,5.74-5A16.18,16.18,0,0,0,352.15,162Z"/><path class="cls-1" d="M430.25,161.75c0-2.29,0-4.58,0-6.87a13.87,13.87,0,0,1,.06-1.44.94.94,0,0,1,.93-.93,1,1,0,0,1,1.24.76c.09.29.12.59.21.88a.48.48,0,0,0,.83.26c.28-.23.53-.49.8-.73,2.06-1.83,4.47-2,7-1.28a4.76,4.76,0,0,1,2.67,2.07c.24.34.43.72.68,1.06a.4.4,0,0,0,.63.06c.3-.3.55-.64.83-1a7.34,7.34,0,0,1,6.81-2.52,6,6,0,0,1,4.81,4.37,12.85,12.85,0,0,1,.48,3.39c0,3.13,0,6.27,0,9.4,0,.3,0,.61,0,.91a1.29,1.29,0,0,1-2,.95.92.92,0,0,1-.45-.74c0-.54-.07-1.09-.07-1.63,0-2.65,0-5.3,0-7.95a15.15,15.15,0,0,0-.36-3.23,3.5,3.5,0,0,0-3.58-3,5.38,5.38,0,0,0-5.55,3.5,8,8,0,0,0-.63,3.17c0,2.53,0,5.07,0,7.6,0,.54,0,1.08-.06,1.62a.91.91,0,0,1-1.1.91c-.95-.08-1.33-.4-1.37-1.34,0-1.14,0-2.29,0-3.43a58,58,0,0,0-.3-8.12,5.75,5.75,0,0,0-.57-2.08,3.19,3.19,0,0,0-2.21-1.71,5.29,5.29,0,0,0-5.92,2.47,6.83,6.83,0,0,0-1.08,3.59c-.07,2.83-.46,5.65-.32,8.49a4.91,4.91,0,0,1-.07,1.08,1,1,0,0,1-1.13.9.92.92,0,0,1-1-.84,11.58,11.58,0,0,1-.08-1.44C430.24,166.58,430.25,164.16,430.25,161.75Z"/><path class="cls-1" d="M356,115V100.12a17.93,17.93,0,0,1,.08-1.8.9.9,0,0,1,.95-.91c2.58-.17,2.71,0,2.71,2.3q0,13.13,0,26.24c0,.6,0,1.21,0,1.81.06.79.32,1,1.16,1.08.48,0,1,0,1.44,0h8.69c1.89,0,2.12.21,2.07,2.24a5,5,0,0,1-.06.54.94.94,0,0,1-.84.83,11.48,11.48,0,0,1-1.44.08H358.35c-2.2,0-2.3-.11-2.31-2.39Z"/><path class="cls-1" d="M296,158.62c0-3.38,0-6.76,0-10.14a12.56,12.56,0,0,1,.08-1.62,1,1,0,0,1,1-.91,7.81,7.81,0,0,1,1.08,0h10.5a7.62,7.62,0,0,1,1.26.08c.64.1.92.55.88,1.35a1,1,0,0,1-1,1.1,14.53,14.53,0,0,1-1.62.06c-2.47,0-4.94,0-7.42,0-1.68,0-1.87.21-1.9,1.87,0,1.51,0,3,0,4.53,0,1.2.29,1.46,1.54,1.48,2.17,0,4.34,0,6.51,0,.84,0,1.69,0,2.53.06s1,.49,1,1.25a1.06,1.06,0,0,1-1,1.23A14.05,14.05,0,0,1,308,159c-2.41,0-4.82,0-7.23,0-1.68,0-1.87.21-1.9,1.88,0,2,0,4,0,6a5.37,5.37,0,0,0,.06.9,1,1,0,0,0,.92.94,14.08,14.08,0,0,0,1.45.07h6.87a8.64,8.64,0,0,1,1.44.09c.59.09.87.51.87,1.18s-.27,1.14-.83,1.22a12.47,12.47,0,0,1-1.62.1c-2.41,0-4.83,0-7.24,0-1.14,0-2.28.11-3.43.15-.84,0-1.21-.28-1.3-1.14a14.61,14.61,0,0,1-.05-1.62C296,165.37,296,162,296,158.62Z"/><path class="cls-1" d="M417.38,162.23h-6c-.42,0-.85,0-1.27,0-.75.06-1,.32-.91,1a6.65,6.65,0,0,0,6.11,6.14,6.9,6.9,0,0,0,6.75-3c.21-.29.43-.58.67-.85a.75.75,0,0,1,.82-.26c1.47.47,1.71.91.94,2.17a9.67,9.67,0,0,1-9.83,4.35,11.27,11.27,0,0,1-2.79-.74,8.21,8.21,0,0,1-3.61-3.19,10.18,10.18,0,0,1-.94-10.15,10,10,0,0,1,4.12-4.67,7,7,0,0,1,3.25-1,10.65,10.65,0,0,1,6.47,1.24,9.65,9.65,0,0,1,4.59,7.79.87.87,0,0,1-.8,1,10,10,0,0,1-1.44.09ZM416,160h5.06a8.66,8.66,0,0,0,1.25-.1.54.54,0,0,0,.42-.69,5.16,5.16,0,0,0-.16-.52,6.86,6.86,0,0,0-12.91.36.62.62,0,0,0,.55.9,6.94,6.94,0,0,0,.91.05Z"/><path class="cls-1" d="M473.27,162.23h-5.42c-.42,0-.84,0-1.26,0-1.27.07-1.62.5-1.42,1.7a6.76,6.76,0,0,0,5.75,5.48,7.28,7.28,0,0,0,6.88-2.78c.22-.28.42-.59.65-.86a1,1,0,0,1,1.27-.36c1.12.42,1.28.89.68,1.91a9.79,9.79,0,0,1-18.13-5.06c0-4,1.49-7.37,5.25-9.22a9.65,9.65,0,0,1,14.11,7.52c.17,1.16-.16,1.56-1.31,1.64-.42,0-.84,0-1.26,0ZM472,160c1.63,0,3.26,0,4.88,0a6.46,6.46,0,0,0,1.25-.11.56.56,0,0,0,.45-.68,3.68,3.68,0,0,0-.28-.85,6.68,6.68,0,0,0-6.38-4,6.43,6.43,0,0,0-6.23,4.14c-.38.93-.1,1.38.89,1.46.42,0,.84,0,1.27,0Z"/><path class="cls-1" d="M378.52,161.86v6.87a14,14,0,0,1,0,1.45,1.29,1.29,0,0,1-2,.95,1.1,1.1,0,0,1-.34-.4,3,3,0,0,1-.13-.52c-.14-.43.22-1.09-.39-1.26-.42-.11-.69.41-1,.69A9.18,9.18,0,0,1,364.5,171a10.2,10.2,0,0,1-2.06-16.79,8.94,8.94,0,0,1,5.42-2.18,9.06,9.06,0,0,1,7.25,2.59c.17.17.39.36.63.17s.15-.3.2-.47a1.42,1.42,0,0,0,0-.36c0-.12,0-.24,0-.36a1.28,1.28,0,0,1,2-1,.9.9,0,0,1,.46.73c.05.48.07,1,.08,1.44ZM376,162a7,7,0,0,0-4.1-6.85,6.93,6.93,0,0,0-8,1.27,7.62,7.62,0,0,0-1.07,9.88A7.19,7.19,0,0,0,376,162Z"/><path class="cls-1" d="M130.16,55.07a2.1,2.1,0,0,1-.39-1.58c0-3.73,0-7.46,0-11.19,0-1.69.24-2.27,2.27-2,2.5.32,5,.69,7.49,1.06a13.55,13.55,0,0,1,1.76.4,1,1,0,0,1,.7,1.11,5.94,5.94,0,0,1-.14.71q-1.23,4.62-2.48,9.23c-.08.29-.18.58-.27.86-.33,1-.58,1.29-1.86,1.15a34.56,34.56,0,0,0-4.66-.49A3.19,3.19,0,0,0,130.16,55.07Z"/><path class="cls-1" d="M47.34,121.32h-4.7c-.42,0-.84,0-1.26-.06a.9.9,0,0,1-.9-1.1c.07-1,.1-1.92.24-2.87q.51-3.57,1.11-7.13c.14-.84.56-1.08,1.44-.93.36.06.71.15,1.06.24L53.57,112l.52.16c.81.32,1.1.68,1,1.5s-.18,1.92-.31,2.87a32.26,32.26,0,0,0-.33,3.41c0,1-.37,1.37-1.47,1.39-1.87,0-3.73,0-5.6,0Z"/><path class="cls-1" d="M120.34,203.79c0,1.63,0,3.25,0,4.87a6.62,6.62,0,0,1-.08,1.26,1,1,0,0,1-1.57.78,4.47,4.47,0,0,0-1.38-.32c-2-.29-4-.6-6.06-.9a9.06,9.06,0,0,1-1.06-.23c-.69-.19-.91-.52-.79-1.18,0-.17.09-.35.13-.52l2.52-9.6c.06-.23.12-.46.2-.69.38-1.06.64-1.23,1.72-1.12l5,.52c1,.1,1.31.38,1.33,1.36,0,1.92,0,3.85,0,5.77Z"/><path class="cls-1" d="M210.14,132.68c-.32,2.39-.58,5.09-1.18,7.73-.18.79-.59,1-1.52.76-1.93-.48-3.84-1-5.76-1.51-1.22-.33-2.44-.66-3.65-1a10.46,10.46,0,0,1-1.37-.45,1.28,1.28,0,0,1-.89-1.57c.2-1.67.4-3.34.64-5,.13-.91.4-1.14,1.28-1.22a9.74,9.74,0,0,1,1.08,0h9.38C209.89,130.43,210.15,130.69,210.14,132.68Z"/><path class="cls-1" d="M181.64,62a1.3,1.3,0,0,1-.15.43,9.15,9.15,0,0,1-.83.94l-6.38,6.39c-.22.21-.43.43-.66.62-.56.48-.87.51-1.44.09-1.46-1.06-2.91-2.12-4.35-3.21-.9-.68-1-1.15-.51-2.17s1-1.9,1.58-2.83c1.12-1.93,2.25-3.85,3.37-5.77.16-.26.31-.52.49-.76a.68.68,0,0,1,1.09-.15c1.27.9,2.56,1.79,3.8,2.75s2.32,1.92,3.47,2.88A1.15,1.15,0,0,1,181.64,62Z"/><path class="cls-1" d="M60.47,155.86a1,1,0,0,1-.49.9c-.88.52-1.75,1.06-2.65,1.53a61.47,61.47,0,0,0-6.1,3.52c-.2.13-.4.27-.61.38-.93.45-1.5.31-1.91-.63-1.09-2.48-2.14-5-3.17-7.48-.35-.85-.18-1.19.75-1.48,1.73-.53,3.47-1,5.21-1.48s3.38-.91,5.07-1.33c1.11-.28,1.51-.06,2,1q.9,2.17,1.76,4.35A4.22,4.22,0,0,1,60.47,155.86Z"/><path class="cls-1" d="M194.23,101.27a1,1,0,0,1-1-.47,2,2,0,0,1-.16-.33c-.64-1.62-1.29-3.24-1.9-4.87-.3-.79-.21-1.06.51-1.51.92-.57,1.87-1.09,2.81-1.63L201,88.67l.16-.09c.63-.33.92-.24,1.31.43a8.67,8.67,0,0,1,.49,1c.85,2,1.69,4,2.51,6a7.6,7.6,0,0,1,.4,1.39.76.76,0,0,1-.46.89,5,5,0,0,1-.85.29c-3,.83-6,1.64-9.06,2.46C195.05,101.11,194.57,101.2,194.23,101.27Z"/><path class="cls-1" d="M162.74,201.38a2.2,2.2,0,0,1-.25.51,2.73,2.73,0,0,1-.6.4,56.37,56.37,0,0,1-7.79,3.34c-.73.26-1,.15-1.21-.59q-.87-2.94-1.68-5.9c-.43-1.57-.83-3.14-1.23-4.72-.26-1-.1-1.32.81-1.69,1.56-.64,3.13-1.25,4.69-1.86.73-.29,1.05-.21,1.52.51.62,1,1.18,2,1.75,3q1.75,3,3.5,6.1C162.43,200.74,162.58,201.07,162.74,201.38Z"/><path class="cls-1" d="M95.19,60.21a.94.94,0,0,1-.75-.53c-.4-.67-.8-1.35-1.19-2q-2-3.43-4-6.88l-.09-.15c-.7-1.28-.62-1.53.7-2.23A70,70,0,0,1,97.2,45.3c.76-.31,1.15-.11,1.38.66.45,1.56.85,3.13,1.28,4.7.51,1.92,1,3.84,1.54,5.76a4.51,4.51,0,0,1,.12.72A.77.77,0,0,1,101,58l-5.37,2.12A2.43,2.43,0,0,1,95.19,60.21Z"/><path class="cls-1" d="M486,161.88V155c0-.42,0-.84,0-1.26.08-1,.53-1.37,1.54-1.26.56.06.8.33.95.92s-.22,1.26.43,1.4.86-.57,1.25-.93a8,8,0,0,1,8.95-.85,5.82,5.82,0,0,1,1.89,1.9,8.76,8.76,0,0,1,1.26,4.29c.06,3.5,0,7,0,10.49a2.17,2.17,0,0,1,0,.36,1.19,1.19,0,0,1-1.58,1.21.92.92,0,0,1-.85-.8,12.57,12.57,0,0,1-.09-1.62c0-2.84,0-5.67,0-8.5a9.34,9.34,0,0,0-.48-3c-.8-2.37-2.72-3.18-5-2.92-2.73.33-4.4,2.08-5.29,4.59a9.09,9.09,0,0,0-.45,3c0,2.23,0,4.46,0,6.69a13.85,13.85,0,0,1,0,1.44,1.28,1.28,0,0,1-2,.94.93.93,0,0,1-.44-.75q-.06-.72-.06-1.44Q486,165.41,486,161.88Z"/><path class="cls-1" d="M314.74,161.82V155a14,14,0,0,1,.06-1.45c.08-.72.46-1,1.23-1a1,1,0,0,1,1.23,1c.06.36.07.72.12,1.08a.36.36,0,0,0,.57.2c.32-.27.63-.56.94-.84a7.54,7.54,0,0,1,7.1-1.68,6.07,6.07,0,0,1,4.42,4.17,12.12,12.12,0,0,1,.67,3.91c0,3,0,6,0,9a5.7,5.7,0,0,1,0,.72,1.27,1.27,0,0,1-2,1.05.84.84,0,0,1-.48-.71c-.05-.54-.07-1.09-.08-1.63,0-2.71,0-5.43,0-8.14a10.17,10.17,0,0,0-.33-2.69,4.56,4.56,0,0,0-5.65-3.47,6.5,6.5,0,0,0-5.17,5.8,14.8,14.8,0,0,0-.06,1.63c0,2.41,0,4.83,0,7.24a9.74,9.74,0,0,1-.13,1.62.75.75,0,0,1-.78.62c-1.08.05-1.55-.37-1.63-1.45,0-.42,0-.85,0-1.27Z"/><path class="cls-1" d="M66.14,84.15a4.56,4.56,0,0,1-.73-.27c-1.38-.72-2.8-1.39-4.11-2.22s-2.86-1.78-4.33-2.6a10.61,10.61,0,0,1-1.06-.68.62.62,0,0,1-.18-.94c.35-.56.69-1.13,1.09-1.65,1.19-1.59,2.41-3.15,3.62-4.72a5.56,5.56,0,0,1,.62-.66.85.85,0,0,1,1.15-.07,9.25,9.25,0,0,1,.81.72l6.5,6.51c.13.12.26.25.38.38.85.94.83,1,0,2.1s-1.84,2.36-2.76,3.54A1.16,1.16,0,0,1,66.14,84.15Z"/><path class="cls-1" d="M185.2,166.75a6.61,6.61,0,0,1,.89.32c.8.43,1.57.89,2.35,1.34,2.19,1.27,4.38,2.54,6.55,3.83.82.49.92.83.39,1.61-.92,1.34-1.9,2.63-2.87,3.94-.42.58-.83,1.17-1.29,1.73a9.73,9.73,0,0,1-1,1,.72.72,0,0,1-1,0,6.17,6.17,0,0,1-.54-.48c-2.26-2.25-4.53-4.5-6.77-6.77-1.14-1.15-1.12-1.46-.1-2.75.82-1,1.6-2.1,2.41-3.16A1.33,1.33,0,0,1,185.2,166.75Z"/><path class="cls-1" d="M84.34,185a3,3,0,0,1-.54,1.44c-.9,1.56-1.82,3.12-2.72,4.67-.7,1.19-1.39,2.39-2.1,3.58s-.87,1.14-2,.37c-.79-.56-1.52-1.19-2.31-1.74-1.43-1-2.76-2.09-4.1-3.2a.58.58,0,0,1-.11-.93,9.11,9.11,0,0,1,.73-.79Q74.61,185,78,181.6c.21-.21.42-.43.65-.62a.76.76,0,0,1,1.13,0l3.86,3A1.42,1.42,0,0,1,84.34,185Z"/><path class="cls-1" d="M73.05,127.49h3.8c.42,0,.85,0,1.27.07a1,1,0,0,1,1,.91l0,.17c.25,1.86.52,3.71.74,5.56.1.83-.07,1.06-.91,1.29-3,.84-6,1.65-9.08,2.46a4.48,4.48,0,0,1-.72.11.77.77,0,0,1-.84-.54,2.21,2.21,0,0,1-.14-.52,58.67,58.67,0,0,1-1-7.34c-.16-1.88.11-2.13,1.94-2.16,1.32,0,2.65,0,4,0Z"/><path class="cls-1" d="M164.6,99.9a2.88,2.88,0,0,1-.46-.24,2.29,2.29,0,0,1-.36-.4l-3.44-4.41a.87.87,0,0,1,0-1.3,4.61,4.61,0,0,1,.37-.4l6.38-6.39.4-.37c.58-.47.89-.48,1.42,0a7.49,7.49,0,0,1,.87.91,56.42,56.42,0,0,1,4,5.33,9.07,9.07,0,0,1,.63,1.09.63.63,0,0,1-.22.8,7.61,7.61,0,0,1-.75.51l-7.65,4.44A2.41,2.41,0,0,1,164.6,99.9Z"/><path class="cls-1" d="M156.76,174.5a2.43,2.43,0,0,1-.58-.43c-.35-.49-.66-1-1-1.53l-3.8-6.58-.27-.47c-.44-.86-.41-1.13.32-1.7q2.11-1.69,4.27-3.35a1.1,1.1,0,0,1,1.63,0,7.86,7.86,0,0,1,.8.73q2.82,2.81,5.63,5.63c.17.17.35.34.5.52.56.66.56,1,0,1.55-.17.18-.34.35-.52.51a50.85,50.85,0,0,1-6,4.62A7.77,7.77,0,0,1,156.76,174.5Z"/><path class="cls-1" d="M123.26,73v3.8a10.69,10.69,0,0,1-.08,1.27.93.93,0,0,1-.79.87l-.53.1c-1.73.24-3.46.5-5.19.71-1,.12-1.17,0-1.43-1-.61-2.21-1.19-4.43-1.78-6.65-.24-.87-.51-1.73-.71-2.62s0-1.24.91-1.41c1.6-.3,3.21-.55,4.82-.79,1-.13,1.92-.21,2.88-.29a5.41,5.41,0,0,1,.9,0,1,1,0,0,1,.94.93c0,.42,0,.84.06,1.26Z"/><path class="cls-1" d="M127.58,177.65c0-1.32,0-2.64,0-4a6.34,6.34,0,0,1,.07-1.07,1,1,0,0,1,.93-.94q2.76-.39,5.54-.72a1.12,1.12,0,0,1,1.41.82,8.63,8.63,0,0,1,.28.86L138,181a3.12,3.12,0,0,1,.11.53.76.76,0,0,1-.62.94c-1.06.23-2.12.46-3.19.61-1.48.22-3,.39-4.47.54a7,7,0,0,1-1.44-.05.81.81,0,0,1-.73-.69,8.8,8.8,0,0,1-.11-1.26C127.57,180.3,127.58,179,127.58,177.65Z"/><path class="cls-1" d="M100,86a2.32,2.32,0,0,1-.22.52,2.74,2.74,0,0,1-.51.51q-2.15,1.65-4.3,3.29c-.6.46-.89.47-1.43,0s-1.12-1.09-1.68-1.64L87,83.85a7.76,7.76,0,0,1-.72-.8.73.73,0,0,1,0-1,6.14,6.14,0,0,1,.76-.77c1.85-1.54,3.74-3,5.73-4.39.2-.14.4-.27.61-.39.71-.4,1-.33,1.47.43q2.42,4.13,4.78,8.29A7.07,7.07,0,0,1,100,86Z"/><path class="cls-1" d="M177.67,123.17h-3.78a10.66,10.66,0,0,1-1.26-.08,1,1,0,0,1-.86-.8c0-.23-.08-.47-.11-.71-.22-1.55-.45-3.09-.65-4.64-.16-1.29,0-1.47,1.16-1.8,1.91-.53,3.83-1,5.75-1.54,1-.26,2-.54,3-.79,1.3-.32,1.55-.17,1.84,1.2.21,1,.39,2,.54,3,.17,1.19.3,2.39.43,3.58a7.7,7.7,0,0,1,0,1.44,1,1,0,0,1-1,1.07c-.41,0-.84,0-1.26.06Z"/><path class="cls-1" d="M139.82,80.31c0-.13.07-.37.13-.6.75-2.85,1.49-5.71,2.27-8.55.4-1.46.61-1.57,2-1.08a52.09,52.09,0,0,1,7,2.92,6.37,6.37,0,0,1,.63.35.77.77,0,0,1,.38,1.07,4.37,4.37,0,0,1-.25.48c-1.51,2.61-3,5.22-4.53,7.81-.79,1.34-.86,1.33-2.28.72s-3.12-1.27-4.67-1.92C139.91,81.26,139.76,81,139.82,80.31Z"/><path class="cls-1" d="M111,170.41c0,.19-.08.48-.16.77l-2.22,8.18a5.87,5.87,0,0,1-.36,1,.77.77,0,0,1-.87.49,4.41,4.41,0,0,1-.7-.16,58.54,58.54,0,0,1-7.32-3.05c-1-.52-1.12-.77-.54-1.83.74-1.38,1.54-2.72,2.32-4.08s1.61-2.82,2.45-4.2c.45-.73.72-.81,1.5-.44,1.68.79,3.42,1.47,5.17,2.12C111,169.47,111.1,169.74,111,170.41Z"/><path class="cls-1" d="M82.5,164.66a3.52,3.52,0,0,1-.69-.53c-.87-1-1.77-2-2.57-3-.92-1.19-1.78-2.42-2.62-3.67-.46-.68-.37-1.06.32-1.5.86-.55,1.76-1,2.64-1.55q2.49-1.46,5-2.89c.26-.15.52-.3.79-.43.94-.45,1.15-.41,1.79.49a44.1,44.1,0,0,0,3.09,4,2.77,2.77,0,0,1,.41.6.76.76,0,0,1-.07.84,6.35,6.35,0,0,1-.6.68q-3,3.06-6.12,6.12a6.88,6.88,0,0,1-.82.7A1.7,1.7,0,0,1,82.5,164.66Z"/><path class="cls-1" d="M170.68,139.81c.13,0,.42.09.71.17l8.21,2.21c1.49.41,1.61.6,1.14,2a59.56,59.56,0,0,1-2.92,7,4.66,4.66,0,0,1-.47.77.69.69,0,0,1-.8.25,3.54,3.54,0,0,1-.66-.28l-8-4.63c-.21-.13-.42-.26-.61-.4a.75.75,0,0,1-.26-1c.75-1.85,1.52-3.68,2.29-5.52C169.55,139.94,170,139.74,170.68,139.81Z"/><path class="cls-1" d="M83.9,104.6c-.06.15-.12.38-.22.6-.77,1.57-1.4,3.2-2,4.83-.37,1-.6,1.12-1.65.85-2.22-.56-4.42-1.17-6.63-1.76-.93-.25-1.87-.49-2.79-.77-.7-.22-.86-.51-.64-1.23A43.47,43.47,0,0,1,73.37,99a.77.77,0,0,1,1.21-.36c.9.48,1.78,1,2.67,1.51l5.32,3a10.73,10.73,0,0,1,1.05.71A.8.8,0,0,1,83.9,104.6Z"/><path class="cls-1" d="M509.58,162.78V157c0-.42,0-.85,0-1.26a1,1,0,0,0-1-1c-.48-.07-1-.07-1.44-.15a.89.89,0,0,1-.68-.94.93.93,0,0,1,.75-1.07,8.85,8.85,0,0,1,.9-.09c1.36-.14,1.49-.27,1.53-1.69,0-1,0-2.05,0-3.07a8.79,8.79,0,0,1,.09-1.26c.09-.57.52-.85,1.21-.84s1.09.27,1.18.86a11.58,11.58,0,0,1,.08,1.44c0,1,0,2.06,0,3.08s.27,1.38,1.38,1.47c.42,0,.84,0,1.26.07a1,1,0,0,1,.94,1.09.91.91,0,0,1-.86,1c-.54.07-1.09.06-1.63.12-.69.07-1,.34-1,1a14.61,14.61,0,0,0-.05,1.62c0,3.86,0,7.73,0,11.59a11,11,0,0,1-.1,1.62c-.08.5-.48.75-1.07.77s-1.18-.21-1.28-.74a9.87,9.87,0,0,1-.11-1.44c0-2.11,0-4.23,0-6.34Z"/><path class="cls-1" d="M128.37,73.13c0-1-.05-1.93,0-2.89a1,1,0,0,1,1.06-1,2.44,2.44,0,0,1,.54,0c1.54.24,3.09.46,4.62.73a.86.86,0,0,1,.78,1.18c-.47,1.87-1,3.72-1.47,5.58-.11.43-.35.81-.85.8a13.1,13.1,0,0,1-3.58-.28,1.38,1.38,0,0,1-1.14-1.41c0-.9,0-1.8,0-2.7Z"/><path class="cls-1" d="M122.47,177.81c0,1,0,1.93,0,2.89a1,1,0,0,1-1.22,1c-1.62-.19-3.23-.42-4.82-.71-.86-.15-1.11-.61-.9-1.45q.66-2.62,1.39-5.24c.2-.72.43-.89,1.17-.87a13.24,13.24,0,0,1,2.88.18c1.25.3,1.5.58,1.55,1.83,0,.78,0,1.57,0,2.35Z"/><path class="cls-1" d="M162.36,83.92a1.9,1.9,0,0,1-.31.54c-1.22,1.25-2.45,2.5-3.71,3.7-.59.56-1,.55-1.54-.06-.69-.78-1.6-1.28-2.34-2-.49-.46-.55-.71-.24-1.27.83-1.46,1.66-2.93,2.52-4.38.41-.69.85-.8,1.49-.32,1.2.9,2.38,1.85,3.55,2.79A1.34,1.34,0,0,1,162.36,83.92Z"/><path class="cls-1" d="M73.14,121.28c-.91,0-1.81,0-2.71,0a1,1,0,0,1-1.08-1.17c.12-1.31.33-2.62.56-3.92a.75.75,0,0,1,.94-.64,42,42,0,0,1,5.92,1.57,1,1,0,0,1,.72,1.12c-.07.72-.18,1.43-.3,2.14a1,1,0,0,1-1,.9,9.76,9.76,0,0,1-1.08,0h-2Z"/><path class="cls-1" d="M181.48,131.54c-.18.92-.38,2.11-.64,3.28-.12.52-.42.67-.94.62a5.73,5.73,0,0,1-.7-.13c-1.57-.43-3.14-.83-4.7-1.29-1.08-.31-1.32-.73-1.16-1.87a11.31,11.31,0,0,1,.27-1.41c.18-.77.42-1,1.24-1.05,1.74,0,3.48-.05,5.23,0C181.21,129.71,181.55,130.15,181.48,131.54Z"/><path class="cls-1" d="M145.31,170.08a1.71,1.71,0,0,1,.43.21,3.38,3.38,0,0,1,.57.69q1.29,2.18,2.54,4.38a.74.74,0,0,1-.36,1.19c-1,.49-2.08.95-3.15,1.37a1,1,0,0,1-1.36-.53,4.33,4.33,0,0,1-.31-.85c-.35-1.34-.7-2.68-1-4-.26-1.17-.08-1.45,1.05-1.94.39-.16.79-.3,1.19-.44A2,2,0,0,1,145.31,170.08Z"/><path class="cls-1" d="M178.05,106.23a2.73,2.73,0,0,1-.31.47,1.21,1.21,0,0,1-.47.26c-1.68.46-3.36.94-5.06,1.36-.8.2-1.1,0-1.46-.67a8.85,8.85,0,0,1-.43-1c-.48-1.28-.65-1.47.82-2.24s2.6-1.51,3.91-2.24c.72-.4,1.13-.27,1.48.42.44.86.85,1.73,1.24,2.61A7.47,7.47,0,0,1,178.05,106.23Z"/><path class="cls-1" d="M80.76,145.27a1,1,0,0,1-.54,1c-1.52.84-3,1.68-4.57,2.5a.8.8,0,0,1-1.24-.31A15.57,15.57,0,0,1,72.88,145a.69.69,0,0,1,.39-.9,3.24,3.24,0,0,1,.67-.27c1.57-.41,3.13-.85,4.71-1.22.78-.18,1.08,0,1.45.71A7,7,0,0,1,80.76,145.27Z"/><path class="cls-1" d="M108.32,78.87a1.15,1.15,0,0,1-.48,1.07,5.91,5.91,0,0,1-.79.41c-1.74.78-2,.6-2.74-.79s-1.51-2.58-2.24-3.9c-.35-.63-.24-1,.41-1.32,1-.49,2.08-.93,3.15-1.33a.88.88,0,0,1,1.28.61,13.55,13.55,0,0,1,.4,1.38c.27,1,.54,2,.8,3C108.2,78.31,108.27,78.66,108.32,78.87Z"/><path class="cls-1" d="M85.4,96.81a4.64,4.64,0,0,1-1.7-.68c-1.14-.68-2.26-1.38-3.38-2.09-.61-.38-.69-.73-.24-1.34.63-.88,1.29-1.74,2-2.59.39-.49.82-.56,1.24-.15,1.31,1.25,2.58,2.54,3.85,3.82a.79.79,0,0,1,.15,1,6.29,6.29,0,0,1-1.43,1.85A1.54,1.54,0,0,1,85.4,96.81Z"/><path class="cls-1" d="M96.8,165.3a1.62,1.62,0,0,1-.07.38c-.91,1.63-1.8,3.26-2.74,4.86a.89.89,0,0,1-1.26.33,9,9,0,0,1-2.62-2.14.94.94,0,0,1,.06-1.44q1.62-1.69,3.31-3.31a1.12,1.12,0,0,1,1.62-.18c.5.32,1,.71,1.43,1.08A1.58,1.58,0,0,1,96.8,165.3Z"/><path class="cls-1" d="M171.05,157.79a1.76,1.76,0,0,1-.25.56c-.61.73-1.23,1.46-1.89,2.16a.88.88,0,0,1-1.42.1q-1.83-1.74-3.56-3.57a1,1,0,0,1-.08-1.48l.1-.15c1-1.47,1.24-1.57,2.76-.75,1.32.72,2.58,1.53,3.87,2.31A.9.9,0,0,1,171.05,157.79Z"/></g></g></svg>