<svg xmlns="http://www.w3.org/2000/svg" viewBox="0 0 272.12 334.33"><defs><style>.cls-1{fill:#fff;}</style></defs><title>6 - DML 360</title><g id="Capa_2" data-name="Capa 2"><g id="Capa_1-2" data-name="Capa 1"><path class="cls-1" d="M141.4,258.21c0-3.74,0-7.47,0-11.21,0-2.44.2-2.56,2.69-2.72a105,105,0,0,0,11.31-1.43l1.4-.26c2.12-.38,2.19-.34,2.78,1.82q2.91,10.83,5.81,21.66a15.75,15.75,0,0,1,.4,1.78,1.06,1.06,0,0,1-.78,1.27,8.24,8.24,0,0,1-1.38.36c-4.07.74-8.13,1.56-12.27,1.9-2.3.19-4.59.46-6.89.67a12.42,12.42,0,0,1-1.83,0,1.12,1.12,0,0,1-1.11-1,13.8,13.8,0,0,1-.13-1.82C141.39,265.55,141.4,261.88,141.4,258.21Z"/><path class="cls-1" d="M141.4,13.65c0-3.68,0-7.36,0-11,0-2.53.14-2.7,2.67-2.6,2,.08,4.07.22,6.1.46,4.39.52,8.77,1.13,13.11,2a15.46,15.46,0,0,1,1.78.45,1,1,0,0,1,.75,1.28,8.84,8.84,0,0,1-.23,1q-2.94,11.06-5.9,22.1a14,14,0,0,1-.5,1.55,1,1,0,0,1-1.28.73c-.74-.08-1.48-.21-2.22-.34a79.92,79.92,0,0,0-11.74-1.43h-.2c-2-.14-2.32-.45-2.33-2.51,0-3.88,0-7.76,0-11.64Z"/><path class="cls-1" d="M258.41,130.73H248c-.47,0-1,0-1.43,0-1.77-.07-2.15-.37-2.2-2.19a76.91,76.91,0,0,0-.91-8.72c-.2-1.42-.5-2.82-.73-4.23-.09-.53-.15-1.08-.19-1.62a.88.88,0,0,1,.63-.94,11.19,11.19,0,0,1,1.16-.37l14.79-4c2.62-.71,5.25-1.41,7.89-2.08,1.88-.48,2.08-.35,2.5,1.55q1.15,5.28,1.78,10.66.44,3.54.74,7.1a34.57,34.57,0,0,1,.06,3.67,1,1,0,0,1-1,1.08,13.93,13.93,0,0,1-1.83.09C265.62,130.74,262,130.73,258.41,130.73Z"/><path class="cls-1" d="M13.64,130.73h-10c-.4,0-.81,0-1.22,0-2.28,0-2.59-.31-2.37-2.66.38-4.19.69-8.39,1.37-12.55.4-2.48.82-5,1.35-7.42.4-1.85.68-2,2.49-1.54l22.06,5.89c2.93.78,2.57,1,2.13,3.34a106.27,106.27,0,0,0-1.64,12.93c0,.13,0,.27,0,.4-.13,1.11-.45,1.46-1.51,1.57-.54.05-1.08,0-1.63,0C21,130.74,17.31,130.73,13.64,130.73Z"/><path class="cls-1" d="M76.93,227.47a7,7,0,0,1-.38.91q-1.71,3-3.45,6-4.12,7.16-8.27,14.3a17.73,17.73,0,0,1-1.11,1.7.84.84,0,0,1-1.1.26,11.67,11.67,0,0,1-1.41-.81,133,133,0,0,1-13.33-10.07c-1.12-1-2.26-2-3.35-3-.61-.58-.58-.93,0-1.57.27-.3.57-.58.86-.87l16.15-16.16c1.75-1.74,1.75-1.72,3.59-.08a109.2,109.2,0,0,0,10.33,8c.39.27.78.54,1.15.84A2.17,2.17,0,0,1,76.93,227.47Z"/><path class="cls-1" d="M250.92,63.18a.8.8,0,0,1-.37.47c-.81.5-1.62,1-2.44,1.48L230.25,75.44c-.65.38-1.31.74-2,1s-1.09.25-1.6-.42-1.1-1.55-1.64-2.33c-2.17-3.15-4.57-6.1-7-9a9.73,9.73,0,0,1-.65-.79,1,1,0,0,1,0-1.48,12,12,0,0,1,1-1.05l16.17-16.18c1.69-1.68,1.78-1.62,3.31.11A146.68,146.68,0,0,1,247,56.8c1.19,1.66,2.31,3.37,3.45,5.06A2.24,2.24,0,0,1,250.92,63.18Z"/><path class="cls-1" d="M13.83,141.37h12c1.61.07,1.83.3,1.95,1.93a110.52,110.52,0,0,0,1.63,12.94c.1.53.22,1.06.28,1.6a1.09,1.09,0,0,1-.8,1.26,7.79,7.79,0,0,1-1.16.36L5.71,165.39c-2.44.65-2.54.6-3-2A114.49,114.49,0,0,1,.74,150.94c-.19-2.16-.49-4.32-.66-6.48-.23-2.94,0-3.11,2.74-3.1C6.49,141.38,10.16,141.37,13.83,141.37Z"/><path class="cls-1" d="M44.75,195.23a2.33,2.33,0,0,1,.53.37c.53.7,1.07,1.41,1.56,2.14a93.27,93.27,0,0,0,7.52,9.63c.13.16.27.3.4.46.66.85.66,1.19,0,2-.23.25-.48.48-.72.73L37.74,226.81c-1.64,1.63-1.67,1.65-3.3-.13A126.82,126.82,0,0,1,25,214.89c-.87-1.22-1.71-2.45-2.57-3.67-.19-.28-.38-.57-.55-.86-.81-1.34-.77-1.64.54-2.43,2.16-1.3,4.34-2.55,6.51-3.81l12.72-7.33c.76-.44,1.54-.87,2.32-1.29A5.91,5.91,0,0,1,44.75,195.23Z"/><path class="cls-1" d="M258.4,141.37h11.43c2.12,0,2.36.23,2.28,2.38s-.25,4.34-.47,6.5c-.46,4.33-1.14,8.63-2,12.91a17.23,17.23,0,0,1-.5,2,.8.8,0,0,1-1,.58,13.37,13.37,0,0,1-1.4-.29l-22.67-6.08a7,7,0,0,1-.78-.24c-.78-.29-1-.55-.85-1.38.06-.54.17-1.08.27-1.61A84,84,0,0,0,244.32,144c.12-2.32.38-2.59,2.65-2.61,3.81,0,7.62,0,11.43,0Z"/><path class="cls-1" d="M130.76,14V24.4c0,.34,0,.68,0,1-.05,2-.29,2.3-2.2,2.37a87.88,87.88,0,0,0-12.94,1.64c-2.3.42-2.32.42-2.93-1.85q-2.94-10.95-5.87-21.89a18,18,0,0,1-.4-1.8A.83.83,0,0,1,107,3a7.62,7.62,0,0,1,.79-.2A112.72,112.72,0,0,1,119.49.81c2.23-.25,4.46-.5,6.7-.7A24,24,0,0,1,129.25,0c1.1,0,1.39.35,1.48,1.51,0,.54,0,1.09,0,1.63Q130.76,8.57,130.76,14Z"/><path class="cls-1" d="M209.05,55.09a2,2,0,0,1-1.17-.56c-1.36-1.13-2.73-2.24-4.09-3.38-2.2-1.84-4.56-3.44-6.9-5.09-1.72-1.21-1.78-1.38-.8-3.09q4.89-8.51,9.8-17c.74-1.3,1.48-2.6,2.25-3.89.65-1.07.94-1.16,1.94-.49,2,1.31,4,2.65,5.9,4a144.46,144.46,0,0,1,11.28,9.08,6.25,6.25,0,0,1,.58.57.9.9,0,0,1,0,1.29,12,12,0,0,1-1,1L210.74,53.81a13.57,13.57,0,0,1-1.05,1A3.45,3.45,0,0,1,209.05,55.09Z"/><path class="cls-1" d="M130.76,258.28c0,3.74,0,7.48,0,11.22,0,2.49-.26,2.77-2.66,2.58a146.54,146.54,0,0,1-19.57-2.65c-.33-.07-.67-.11-1-.2-1.07-.29-1.3-.66-1-1.79q1.55-5.93,3.14-11.82c.94-3.55,1.88-7.09,2.86-10.63.88-3.22.91-2.75,3.58-2.27a102.56,102.56,0,0,0,12.72,1.59,5.42,5.42,0,0,1,.81.08,1.1,1.1,0,0,1,1.06,1.05,16,16,0,0,1,.07,1.83Q130.76,252.77,130.76,258.28Z"/><path class="cls-1" d="M177.52,6.25c.34.08.87.19,1.38.36,3.68,1.23,7.3,2.59,10.85,4.14,2.43,1.06,4.81,2.23,7.2,3.36.37.17.74.36,1.1.55,1.26.7,1.36.95.63,2.24-1.79,3.12-3.62,6.22-5.42,9.34-2.11,3.65-4.2,7.3-6.32,10.94-1.25,2.16-1.26,2.14-3.42,1.13-3.88-1.82-7.84-3.44-11.86-4.91-2.2-.8-2.22-.85-1.62-3.08q3-11.22,6-22.44a6.06,6.06,0,0,1,.43-1.14C176.65,6.42,177,6.26,177.52,6.25Z"/><path class="cls-1" d="M39.09,184.94c0,.49-.09.75-.32.91-.56.39-1.13.77-1.71,1.11q-5.2,3-10.41,6l-9.2,5.29c-.36.2-.7.43-1.06.61a.86.86,0,0,1-1.24-.32,8.51,8.51,0,0,1-.5-.89,131.23,131.23,0,0,1-7.9-18.79c-.79-2.34-.73-2.43,1.64-3.07l21.48-5.77c2.91-.78,2.9-.78,3.89,2.07a107.22,107.22,0,0,0,4.68,11.31C38.7,184,38.92,184.55,39.09,184.94Z"/><path class="cls-1" d="M265.86,177.67c-.09.33-.21.8-.36,1.25a140.64,140.64,0,0,1-7.88,18.8c-.86,1.66-.91,1.68-2.61.7l-20.84-12a4.93,4.93,0,0,1-.68-.44.86.86,0,0,1-.29-1.09c.15-.37.33-.74.5-1.12a112,112,0,0,0,5.08-12.45c0-.07.05-.13.07-.2.58-1.5.83-1.67,2.46-1.24,4.6,1.2,9.2,2.44,13.8,3.67l8.47,2.28a14.68,14.68,0,0,1,1.56.47C265.74,176.48,266,176.91,265.86,177.67Z"/><path class="cls-1" d="M102.49,31.63c0,.65-.13,1-.53,1.23a11.55,11.55,0,0,1-1.5.62,90.93,90.93,0,0,0-11.67,4.87l-.36.18c-1.79.84-1.86.82-2.85-.9q-5.79-10-11.56-20c-1.23-2.13-1.17-2.37,1.1-3.51a133,133,0,0,1,18.3-7.52l.19-.06c1.86-.57,2-.5,2.58,1.39.74,2.62,1.45,5.25,2.15,7.87q1.88,7,3.73,14C102.24,30.5,102.38,31.17,102.49,31.63Z"/><path class="cls-1" d="M169.7,240.32a1.06,1.06,0,0,1,.58-1.15,11.14,11.14,0,0,1,1.13-.46,106.16,106.16,0,0,0,12.23-5.09c2-1,2.05-.9,3.15,1q5.76,10,11.54,19.95c1.14,2,1.11,2.18-1,3.21a139.59,139.59,0,0,1-18.65,7.69c-2,.63-2.16.53-2.7-1.46l-6-22.26C169.89,241.23,169.79,240.69,169.7,240.32Z"/><path class="cls-1" d="M55.28,63.31a9.78,9.78,0,0,1-.63,1c-.86,1-1.76,2.07-2.63,3.12-2.08,2.51-4,5.14-5.86,7.83C45,77,44.78,77.06,42.89,76q-6.36-3.66-12.71-7.36c-2.53-1.46-5.07-2.91-7.6-4.39-1.45-.84-1.53-1.12-.62-2.55A120.14,120.14,0,0,1,29.34,51.4a80.23,80.23,0,0,1,5.3-6.2c.23-.25.45-.51.69-.75.6-.57.89-.57,1.57,0,.2.17.39.37.58.56L54.22,61.77a8.75,8.75,0,0,1,.82.91A2.6,2.6,0,0,1,55.28,63.31Z"/><path class="cls-1" d="M31.68,102.4c-.33-.07-.73-.15-1.12-.25L12.45,97.27c-1.71-.46-3.43-.88-5.12-1.37-1-.29-1.22-.7-.89-1.69.86-2.58,1.75-5.15,2.7-7.69,1.42-3.83,3.24-7.49,4.94-11.19A11.44,11.44,0,0,1,15,73.74c.51-.79.83-.88,1.7-.41,1.2.64,2.37,1.33,3.55,2l17.29,10c1.89,1.09,1.95,1.2,1,3.16a115.57,115.57,0,0,0-5,11.84c-.16.45-.31.9-.5,1.33A1.11,1.11,0,0,1,31.68,102.4Z"/><path class="cls-1" d="M240.41,102.41a1,1,0,0,1-1.06-.46,6,6,0,0,1-.42-.93,141.25,141.25,0,0,0-5.56-13.35c-.46-1-.38-1.3.55-1.85,2.09-1.26,4.22-2.46,6.34-3.69l14.65-8.45c1.76-1,1.84-1,2.75.78a130.9,130.9,0,0,1,7.79,18.59c.79,2.32.69,2.5-1.62,3.13l-16.33,4.39c-1.9.51-3.8,1-5.71,1.53C241.27,102.24,240.73,102.34,240.41,102.41Z"/><path class="cls-1" d="M102.51,240.34c-.09.41-.21,1-.36,1.6-1.17,4.4-2.36,8.79-3.54,13.19-.73,2.76-1.48,5.51-2.22,8.27-.14.52-.27,1.05-.45,1.56a1,1,0,0,1-1.4.81,10.31,10.31,0,0,1-1.17-.34,132.93,132.93,0,0,1-19-8l-.36-.18c-1.09-.61-1.17-.8-.55-1.91,1.19-2.14,2.41-4.26,3.64-6.37q3.85-6.72,7.74-13.42c.4-.71.83-1.4,1.28-2.08a1,1,0,0,1,1.24-.39c.38.15.75.33,1.12.5a97.94,97.94,0,0,0,11.09,4.64,23.25,23.25,0,0,1,2.26.92A1.17,1.17,0,0,1,102.51,240.34Z"/><path class="cls-1" d="M228.13,236a1.35,1.35,0,0,1-.62,1.05c-1.75,1.51-3.45,3.07-5.25,4.53a127.82,127.82,0,0,1-11.18,8.21c-2.19,1.42-2.21,1.43-3.52-.83l-11.35-19.61c-.1-.17-.21-.35-.3-.53-.76-1.45-.73-1.69.7-2.64q4.24-2.83,8.2-6.07c1.16-.94,2.28-1.94,3.45-2.87.59-.48.87-.44,1.44.05.31.27.59.57.88.86l16.31,16.31c.34.34.67.68,1,1A3,3,0,0,1,228.13,236Z"/><path class="cls-1" d="M250.91,209.19a2.16,2.16,0,0,1-.49,1c-1.47,2.13-2.88,4.3-4.43,6.37a121.93,121.93,0,0,1-8.8,10.72c-.86.91-1,.93-2,.05-.2-.18-.39-.38-.59-.57l-16.16-16.17c-1.74-1.74-1.78-1.79-.22-3.62a107.25,107.25,0,0,0,8.12-10.74c.15-.22.31-.44.48-.65a.88.88,0,0,1,1.1-.29,9.21,9.21,0,0,1,1.08.56q9.9,5.73,19.79,11.46c.59.34,1.15.71,1.72,1.09A.82.82,0,0,1,250.91,209.19Z"/><path class="cls-1" d="M63.28,55.06a3.36,3.36,0,0,1-.67-.36c-.41-.35-.8-.74-1.18-1.12q-8-8-16-16c-1.9-1.9-1.57-1.71.1-3.23a129,129,0,0,1,16.19-12.4A4,4,0,0,1,62,21.7c1.23-.74,1.45-.69,2.22.62.56.94,1.09,1.89,1.63,2.83Q71,34,76.09,42.83c1.14,2,1.17,2-.67,3.2a102.61,102.61,0,0,0-10,7.69c-.47.4-1,.75-1.47,1.1A2.78,2.78,0,0,1,63.28,55.06Z"/><path class="cls-1" d="M81.15,312.42c-.37,2.54-.69,4.68-1,6.82-.57,4.17-1.12,8.35-1.68,12.53,0,.2,0,.41-.07.61a1.4,1.4,0,0,1-1.5,1.35c-1.35.09-1.89-.4-1.73-1.81.25-2.22.6-4.44.91-6.66q1.16-8.29,2.33-16.57c.21-1.48.43-3,.67-4.43a4.68,4.68,0,0,1,.31-1,.47.47,0,0,1,.7-.11,4.72,4.72,0,0,1,.6.81c.44.84.86,1.7,1.28,2.55l9,18.31c.24.49.48,1,.75,1.46.39.69.82.71,1.19.06s.57-1.08.84-1.63l9.6-19.61c.24-.49.49-1,.75-1.46.16-.3.38-.62.75-.6s.51.39.58.73c.1.54.23,1.07.3,1.61q1.3,9.18,2.6,18.38c.32,2.28.66,4.57,1,6.86a14.86,14.86,0,0,1,.18,1.62c0,1-.42,1.45-1.5,1.46s-1.62-.35-1.79-1.5c-.44-3.1-.85-6.2-1.27-9.29s-.84-6.2-1.28-9.3c0-.18-.12-.44-.26-.5-.34-.15-.46.17-.58.4-.22.42-.42.85-.63,1.28q-4.09,8.22-8.18,16.45c-.27.55-.53,1.1-.85,1.63-.51.84-1.17.81-1.71-.07-.25-.41-.45-.84-.66-1.27L81.74,313.3C81.65,313.12,81.52,313,81.15,312.42Z"/><path class="cls-1" d="M44.56,318.17c0-4.28,0-8.57,0-12.85,0-2.5.12-2.6,2.69-2.61,2.24,0,4.48,0,6.73,0a25.72,25.72,0,0,1,5.46.66,13.29,13.29,0,0,1,10.33,9.16,16.93,16.93,0,0,1-.86,13.85,12.66,12.66,0,0,1-10.12,7,97.71,97.71,0,0,1-12.22.35h-.2c-1.37-.1-1.69-.4-1.79-1.7,0-.54,0-1.09,0-1.63Zm3.33.1v9.38c0,.55,0,1.09,0,1.63.07.77.38,1.06,1.17,1.14.34,0,.68,0,1,0a44.69,44.69,0,0,0,7.93-.45,10,10,0,0,0,8.58-6.9,13.57,13.57,0,0,0-.14-9.4,10.61,10.61,0,0,0-8.07-7.06,36.4,36.4,0,0,0-9.14-.57c-1,0-1.29.36-1.37,1.39,0,.54,0,1.08,0,1.63Z"/><path class="cls-1" d="M132.76,51.05c0,2.44,0,4.89,0,7.34,0,2.2-.25,2.44-2.48,2.49a53.45,53.45,0,0,0-5.67.65c-.88.11-1.74.3-2.62.43-1.11.16-1.41,0-1.82-1.13a8.51,8.51,0,0,1-.3-1Q118,53,116.19,46.05c0-.13-.07-.26-.1-.39-.45-1.9-.37-2,1.56-2.45a90.69,90.69,0,0,1,13.74-1.72c.84-.05,1.22.3,1.32,1.19a14.79,14.79,0,0,1,0,1.63c0,2.25,0,4.49,0,6.74Z"/><path class="cls-1" d="M132.77,221q0,3.26,0,6.53c0,.54,0,1.09,0,1.63-.1.89-.42,1.24-1.29,1.26a20.84,20.84,0,0,1-3.26-.05c-3.44-.42-6.89-.79-10.29-1.5-2.26-.47-2.31-.56-1.7-2.85q1.84-6.9,3.68-13.79c.62-2.3.81-2.42,3.1-2,2.61.44,5.23.83,7.88,1a4.2,4.2,0,0,1,.61.06,1.3,1.3,0,0,1,1.26,1.36,14.64,14.64,0,0,1,0,1.63Q132.78,217.64,132.77,221Z"/><path class="cls-1" d="M51.48,132.37H43.93c-1.58,0-2.14-.27-2-2.15a97.17,97.17,0,0,1,1.63-12.73c.46-2.23.55-2.31,2.66-1.75q7.1,1.86,14.19,3.78c1.9.51,2.21.8,1.83,2.85a46.58,46.58,0,0,0-1,8.08,3.73,3.73,0,0,1-.16,1,1,1,0,0,1-.86.78,9.74,9.74,0,0,1-1.62.13c-2.38,0-4.76,0-7.14,0Z"/><path class="cls-1" d="M85.83,79.6a3,3,0,0,1-.63-.28,15.82,15.82,0,0,1-1.73-1.43c-3.34-3.3-6.65-6.63-10-10a8.19,8.19,0,0,1-.68-.76.89.89,0,0,1,.06-1.28,9.63,9.63,0,0,1,1-1A98.35,98.35,0,0,1,84.28,57c1.47-1,1.66-.89,2.52.59L94,69.93c.3.53.6,1.07.85,1.63.43.94.34,1.23-.52,1.9a8,8,0,0,1-.67.47,65.51,65.51,0,0,0-6.3,4.85A2.57,2.57,0,0,1,85.83,79.6Z"/><path class="cls-1" d="M205.88,199.8a2.28,2.28,0,0,1-.46-.24c-.68-.56-1.38-1.1-2-1.72-3.23-3.2-6.44-6.43-9.66-9.65l-.43-.43c-.83-.93-.84-1.13-.09-2.08,1.3-1.66,2.61-3.3,3.89-5,.71-.92,1.34-1.89,2-2.81.51-.7.81-.78,1.55-.38,1.31.71,2.61,1.45,3.9,2.2,3.36,1.93,6.71,3.86,10.05,5.82,1.67,1,1.71,1.21.65,2.84a83.89,83.89,0,0,1-8.5,10.92C206.42,199.71,206.21,199.83,205.88,199.8Z"/><path class="cls-1" d="M85.94,192.26a4.72,4.72,0,0,1,.68.41c2.46,2.16,5.08,4.1,7.73,6,.85.61.94,1,.43,1.92-1,1.85-2.08,3.66-3.14,5.49-1.49,2.59-3,5.19-4.5,7.78-1.24,2.12-1.34,2.12-3.4.8a93.88,93.88,0,0,1-10.35-8,4.55,4.55,0,0,1-.57-.59.84.84,0,0,1,0-1.12,13.57,13.57,0,0,1,1-1.06L84.26,193.4a13.57,13.57,0,0,1,1.07-.94A1.9,1.9,0,0,1,85.94,192.26Z"/><path class="cls-1" d="M216,85a.85.85,0,0,1-.31.79,13.8,13.8,0,0,1-1.34.92q-6.27,3.65-12.54,7.27c-1.79,1-2,1-3.17-.61a87.9,87.9,0,0,0-5.5-7.1c-.61-.7-.57-1,.07-1.77.23-.25.47-.49.71-.73q5.21-5.2,10.4-10.4c1.65-1.64,1.76-1.59,3.29.2a92.4,92.4,0,0,1,7.67,10.06A3.78,3.78,0,0,1,216,85Z"/><path class="cls-1" d="M140.13,50.91V44c0-.41,0-.82.05-1.22.1-1,.47-1.32,1.46-1.27a87.89,87.89,0,0,1,10.72,1.2c1.2.22,2.41.41,3.6.67.92.19,1.15.53,1,1.45-.25,1.19-.56,2.38-.88,3.56-1,3.87-2.11,7.73-3.1,11.61-.53,2.08-.93,2.2-2.8,1.87a45.63,45.63,0,0,0-8.08-1,3.59,3.59,0,0,1-.8-.11,1.19,1.19,0,0,1-1-1.09,12.71,12.71,0,0,1-.08-1.63Q140.13,54.47,140.13,50.91Z"/><path class="cls-1" d="M107.24,46a1.07,1.07,0,0,1,1.3.66c.14.38.24.78.35,1.17l3.9,14.56c.07.26.15.52.2.79a1.07,1.07,0,0,1-.66,1.33c-.3.15-.63.26-.94.38A71.66,71.66,0,0,0,103.88,68c-.25.12-.49.24-.74.34-.93.36-1.29.23-1.86-.65-.12-.17-.2-.35-.31-.53q-3.66-6.35-7.33-12.7c-1.23-2.12-1.15-2.45,1.11-3.51a98.52,98.52,0,0,1,11.11-4.56C106.37,46.21,106.89,46.06,107.24,46Z"/><path class="cls-1" d="M208.39,158.81c.23,0,.64.09,1,.19l14.78,4,.39.11c1.26.43,1.48.82,1.08,2.15a78,78,0,0,1-3.11,8.2c-.45,1.06-.93,2.11-1.42,3.16-.32.68-.66,1.35-1,2a.83.83,0,0,1-1.21.39c-.37-.17-.72-.38-1.08-.58l-9.54-5.5c-1.42-.81-2.84-1.61-4.23-2.46-.82-.5-.92-.84-.55-1.7.51-1.18,1.12-2.33,1.61-3.52.74-1.83,1.42-3.68,2.14-5.51A1.16,1.16,0,0,1,208.39,158.81Z"/><path class="cls-1" d="M51.64,139.73h6.52c.48,0,1,0,1.43,0,1.19.09,1.59.42,1.64,1.63a48.76,48.76,0,0,0,.51,5.26c.2,1.34.45,2.68.64,4,.12.81-.07,1.14-.81,1.43a11.71,11.71,0,0,1-1.55.51c-4.59,1.23-9.17,2.46-13.77,3.67-2.19.57-2.26.52-2.68-1.66A91.85,91.85,0,0,1,41.9,141.3c-.06-1.1.25-1.49,1.39-1.53,2-.06,4.08,0,6.11,0Z"/><path class="cls-1" d="M140.13,220.85v-6.72c0-.48,0-.95,0-1.43.09-1,.38-1.36,1.36-1.43,3-.22,6.07-.66,9.08-1.18,1.37-.23,1.77.07,2.19,1.49.34,1.17.64,2.36,1,3.54q1.55,5.81,3.08,11.61a5.66,5.66,0,0,1,.16.8.82.82,0,0,1-.59.94,5.88,5.88,0,0,1-.78.25,80.62,80.62,0,0,1-8,1.31,38.63,38.63,0,0,1-5.27.45c-1.89-.06-2.14-.24-2.17-2.09,0-2.51,0-5,0-7.54Z"/><path class="cls-1" d="M180,53a6.42,6.42,0,0,1-.37.83q-3.83,6.6-7.67,13.2a9.71,9.71,0,0,1-.54.87c-.48.68-.79.8-1.55.48-.94-.39-1.84-.87-2.78-1.26-1.76-.72-3.53-1.41-5.29-2.12-.44-.18-.88-.35-1.31-.57a1.09,1.09,0,0,1-.59-1.19,5.66,5.66,0,0,1,.16-.8q2-7.47,4-14.94a7.87,7.87,0,0,1,.32-1,.93.93,0,0,1,1.16-.57,7.81,7.81,0,0,1,1.17.33,88.35,88.35,0,0,1,12,5.06,9.85,9.85,0,0,1,1,.64C179.93,52.13,180.05,52.37,180,53Z"/><path class="cls-1" d="M53.05,92.47a4.47,4.47,0,0,1,1.67.7c2.65,1.52,5.29,3.06,7.93,4.58l4.76,2.76a11.17,11.17,0,0,1,1,.64,1,1,0,0,1,.39,1.25,6.42,6.42,0,0,1-.39.94,74,74,0,0,0-3.22,7.7,9.71,9.71,0,0,1-.38.94,1,1,0,0,1-1.16.63c-.34-.06-.67-.15-1-.23l-14.37-3.85c-2.24-.6-2.32-.74-1.6-2.93a103.28,103.28,0,0,1,4.72-11.48,8.41,8.41,0,0,1,.72-1.23A.91.91,0,0,1,53.05,92.47Z"/><path class="cls-1" d="M63.49,159.46a1.21,1.21,0,0,1,1.35.66,11.72,11.72,0,0,1,.56,1.31,79.37,79.37,0,0,0,3.14,7.51,4.89,4.89,0,0,1,.3.75.92.92,0,0,1-.32,1.09,12,12,0,0,1-1,.67l-13.38,7.77a4,4,0,0,1-.73.34.86.86,0,0,1-1.08-.32,8.46,8.46,0,0,1-.63-1,87.23,87.23,0,0,1-4.92-11.62c-.82-2.36-.75-2.46,1.58-3.09L62.5,159.7C62.89,159.59,63.29,159.5,63.49,159.46Z"/><path class="cls-1" d="M113,208.8c-.38,1.45-.75,2.9-1.14,4.34q-1.5,5.63-3,11.24c-.52,1.92-.68,2-2.52,1.42a84.33,84.33,0,0,1-12.42-5.18,6,6,0,0,1-.88-.52.66.66,0,0,1-.24-.89c.23-.5.48-1,.75-1.45L100.91,205a8.1,8.1,0,0,1,.42-.7c.57-.82.93-.94,1.9-.53,2,.84,4,1.73,6,2.56,1,.42,2.05.74,3.05,1.15A1,1,0,0,1,113,208.8Z"/><path class="cls-1" d="M159.84,208.69a1,1,0,0,1,.45-1,7.38,7.38,0,0,1,1.11-.5c2.29-.86,4.59-1.71,6.8-2.78a18.18,18.18,0,0,1,1.89-.76.92.92,0,0,1,1.1.31,10.58,10.58,0,0,1,.81,1.17q3.69,6.35,7.37,12.71c.07.12.13.24.19.36.76,1.46.7,1.76-.82,2.52a95,95,0,0,1-12.44,5.15,5.69,5.69,0,0,1-.59.16c-.81.18-1.15,0-1.45-.72a6.71,6.71,0,0,1-.31-1q-1.92-7.2-3.83-14.4C160,209.5,159.92,209,159.84,208.69Z"/><path class="cls-1" d="M226.51,107.13c0,.53-.17.77-.41.88a6.07,6.07,0,0,1-1.15.41l-14.59,3.89-.19,0c-1.92.45-2,.44-2.64-1.46-.86-2.51-1.95-4.93-3-7.36-.16-.37-.34-.74-.48-1.12a1,1,0,0,1,.39-1.27,9.48,9.48,0,0,1,.85-.55c4.36-2.52,8.71-5,13.08-7.54,1.86-1.07,1.89-1,2.85.86a81.82,81.82,0,0,1,4.91,11.86C226.3,106.29,226.42,106.82,226.51,107.13Z"/><path class="cls-1" d="M80.15,186.55a2,2,0,0,1-.26.55,10.05,10.05,0,0,1-.83.9L68.23,198.83c-.19.2-.38.39-.58.57-.7.61-1.08.6-1.72-.14A102.71,102.71,0,0,1,57.22,188a6.1,6.1,0,0,1-.41-.7.77.77,0,0,1,.31-1.06c.28-.2.57-.38.86-.55l14-8.06c.81-.47,1.16-.44,1.6.17A101.38,101.38,0,0,0,79.9,186,2,2,0,0,1,80.15,186.55Z"/><path class="cls-1" d="M200.28,66.37a2.4,2.4,0,0,1-.26.6,11.67,11.67,0,0,1-.82.9L188.37,78.7l-.44.43c-.85.78-1.07.81-1.9.09-1.9-1.66-3.9-3.19-5.93-4.68-.55-.4-1.12-.77-1.66-1.18-.91-.66-1-.9-.44-1.85q1.45-2.58,2.93-5.15,2.4-4.15,4.82-8.3a13.82,13.82,0,0,1,1-1.52.59.59,0,0,1,.74-.18,7.83,7.83,0,0,1,1.06.6,91.66,91.66,0,0,1,9.26,7c.66.6,1.36,1.14,2,1.73A3,3,0,0,1,200.28,66.37Z"/><path class="cls-1" d="M220.82,131.62h-6.73c-.48,0-1,0-1.43,0-1-.08-1.27-.29-1.5-1.31a6.73,6.73,0,0,1-.24-1.4,72.16,72.16,0,0,0-1-7.48c-.25-1.73-.17-1.89,1.43-2.33q7.47-2,15-4a5.39,5.39,0,0,1,.8-.16,1,1,0,0,1,1.23.83,12,12,0,0,1,.4,1.57,73.51,73.51,0,0,1,1.32,9.69c0,.88.24,1.75.29,2.63.09,1.58-.25,2-1.81,2-1.91,0-3.81,0-5.71,0Z"/><path class="cls-1" d="M187.07,192.39a2.33,2.33,0,0,1,.47.24,8.18,8.18,0,0,1,.75.69l11,11c1.13,1.12,1.29,1.36,0,2.53a91.37,91.37,0,0,1-9.8,7.64c-.28.19-.56.39-.85.57-1.42.87-1.71.83-2.56-.63-2.68-4.57-5.34-9.17-8-13.75-.07-.12-.14-.24-.2-.36a1,1,0,0,1,.33-1.43c.76-.57,1.57-1.07,2.32-1.65,1.89-1.46,3.75-2.93,5.62-4.41A1.38,1.38,0,0,1,187.07,192.39Z"/><path class="cls-1" d="M66.86,72.26a2.23,2.23,0,0,1,.42.15,2.93,2.93,0,0,1,.48.39L79.28,84.32a3.57,3.57,0,0,1,.4.46,1.07,1.07,0,0,1,0,1.48c-.62.81-1.28,1.59-1.93,2.37a55.82,55.82,0,0,0-3.54,4.72,7.76,7.76,0,0,1-.74,1,.91.91,0,0,1-1.1.28c-.62-.28-1.24-.56-1.83-.9L58.24,86.56c-.35-.21-.71-.41-1-.65a.85.85,0,0,1-.29-1.23c.19-.36.42-.7.64-1a100.58,100.58,0,0,1,7.64-10,11.36,11.36,0,0,1,1.16-1.14A1.39,1.39,0,0,1,66.86,72.26Z"/><path class="cls-1" d="M230.4,140.72c-.16,1.89-.24,3.31-.41,4.73-.35,2.83-.68,5.66-1.28,8.45-.47,2.22-.64,2.35-2.87,1.76-4.66-1.23-9.31-2.5-14-3.76-.46-.12-.92-.25-1.37-.41a1,1,0,0,1-.68-1.12c0-.27.06-.54.1-.8.4-2.55.79-5.1,1-7.67s.4-2.61,2.85-2.62h14.06c.28,0,.55,0,.82,0C230.11,139.37,230.42,139.73,230.4,140.72Z"/><path class="cls-1" d="M212.87,317.83a25.42,25.42,0,0,1-.41,6.34,14.08,14.08,0,0,1-4.05,7.84c-3,2.83-9,3.29-12.48-.1a11.69,11.69,0,0,1-3.39-6,30.51,30.51,0,0,1-.69-10.94,36.92,36.92,0,0,1,.53-4,15.6,15.6,0,0,1,2-4.68,9.32,9.32,0,0,1,15.65-.13,18,18,0,0,1,2.85,9C212.93,316.23,212.87,317.25,212.87,317.83Zm-3.32.35c0-1.08.07-2.18,0-3.26a12.91,12.91,0,0,0-2.32-7.08,5.94,5.94,0,0,0-5.68-2.55,6.25,6.25,0,0,0-4.39,2.7,10.29,10.29,0,0,0-1.76,4.53,34,34,0,0,0,0,11.38,9.5,9.5,0,0,0,2.91,5.71,5.79,5.79,0,0,0,8,0,7.88,7.88,0,0,0,2.24-3.35A20.57,20.57,0,0,0,209.55,318.18Z"/><path class="cls-1" d="M154.87,334.32a16.37,16.37,0,0,1-2.23-.17c-4.13-.87-6.56-3.39-7.66-7.57a1.8,1.8,0,0,1,0-.8.73.73,0,0,1,.37-.44,2.26,2.26,0,0,1,3,1.12c.17.36.31.75.49,1.12a6.54,6.54,0,0,0,7.15,3.54,7.38,7.38,0,0,0,4.29-2.13,6.14,6.14,0,0,0-2.47-10.12,9.17,9.17,0,0,0-2.79-.56c-1.76,0-2-.79-1.79-2.42A1,1,0,0,1,154,315c.52-.14,1.06-.24,1.59-.36a9,9,0,0,0,2.28-.86c3.27-1.74,2.65-6.11.24-7.65a5.62,5.62,0,0,0-7.87,1.6c-.26.4-.47.83-.71,1.24a2.48,2.48,0,0,1-3.18.89.82.82,0,0,1-.38-1.06,9.51,9.51,0,0,1,2.68-4.51,9.32,9.32,0,0,1,13.07.62,7.66,7.66,0,0,1,2,4.38,6.33,6.33,0,0,1-1.58,5.1c-.36.41-.77.77-1.15,1.16-.57.6-.56.8.09,1.28.22.16.47.29.68.45,4.61,3.53,4.48,8.82,1.94,12.52A9.8,9.8,0,0,1,154.87,334.32Z"/><path class="cls-1" d="M179.11,334.28c-4.87.23-9.1-3.49-9.48-9a11.67,11.67,0,0,1,1.72-6.43c.55-1,1.16-2,1.8-3,2.59-3.92,5.21-7.81,7.81-11.72l.34-.5c1.12-1.72,1.66-1.61,3.26-.34a.83.83,0,0,1,.22,1.1,15.31,15.31,0,0,1-.83,1.41q-2.41,3.66-4.85,7.31c-.22.34-.47.67-.67,1s-.76.77-.52,1.25.85.22,1.3.19a8.7,8.7,0,0,1,8.9,5.5,9.36,9.36,0,0,1-9,13.14Zm.18-15.6a6.25,6.25,0,1,0,0,12.5,6.24,6.24,0,0,0,6.19-6.29C185.52,322.16,183.23,318.49,179.29,318.68Z"/><path class="cls-1" d="M115.54,318.3V306c0-.54,0-1.09,0-1.63.07-1.34.45-1.69,1.74-1.68,1.11,0,1.49.34,1.58,1.41.05.61,0,1.23,0,1.84q0,10.83,0,21.65c0,2.81,0,2.82,2.84,2.82h7.15c1.53.07,2,.58,1.75,2a1.25,1.25,0,0,1-1.18,1.2,11.32,11.32,0,0,1-1.43.07H117.43c-1.59-.09-1.87-.33-1.88-2,0-4.5,0-9,0-13.48Z"/><path class="cls-1" d="M108.54,93.62a2.1,2.1,0,0,1-.4.53c-.65.51-1.34.95-2,1.45-1,.75-1.9,1.54-2.86,2.3s-1.16.64-2-.07c-.46-.41-.88-.85-1.31-1.28l-5.49-5.49a11.92,11.92,0,0,1-.84-.9.8.8,0,0,1,.11-1.25,15.81,15.81,0,0,1,1.66-1.51c1.78-1.37,3.59-2.7,5.39-4a5,5,0,0,1,.7-.42.86.86,0,0,1,1.25.23,3.48,3.48,0,0,1,.34.51l5,8.66A2,2,0,0,1,108.54,93.62Z"/><path class="cls-1" d="M192.78,133.62h-4.07a9.88,9.88,0,0,1-1.22-.05,1.16,1.16,0,0,1-1.18-1.17c-.17-1.14-.29-2.29-.44-3.43-.1-.74-.24-1.47-.33-2.21-.14-1.14.05-1.49,1.12-1.82s2.35-.67,3.53-1c1.9-.52,3.81-1,5.71-1.52.27-.07.53-.15.79-.19.85-.15,1.24.1,1.47,1a15.83,15.83,0,0,1,.38,1.79q.41,2.93.78,5.86a6.77,6.77,0,0,1,.06,1c0,1.33-.31,1.66-1.71,1.7-1.63.05-3.26,0-4.89,0Z"/><path class="cls-1" d="M178.91,163.56a4.74,4.74,0,0,1,.63.26l9,5.21a3,3,0,0,1,.5.35.77.77,0,0,1,.23.92,4,4,0,0,1-.38.71,55.5,55.5,0,0,1-5.23,6.77,6.23,6.23,0,0,1-.58.57.81.81,0,0,1-1.11.06,7,7,0,0,1-.76-.68l-6.49-6.49a8.81,8.81,0,0,1-.79-.93.89.89,0,0,1,0-1.14c1.31-1.73,2.64-3.45,4-5.17A1.05,1.05,0,0,1,178.91,163.56Z"/><path class="cls-1" d="M79.46,133.63H75.59a13.58,13.58,0,0,1-1.43,0c-1-.11-1.34-.52-1.29-1.46.08-1.29.17-2.58.34-3.85.19-1.48.47-3,.72-4.42a5.79,5.79,0,0,1,.12-.6c.25-.85.64-1.12,1.49-1a7,7,0,0,1,.79.18c3,.82,6,1.62,9,2.45,1.37.38,1.47.53,1.32,1.82-.24,1.88-.5,3.77-.8,5.64-.15.91-.45,1.2-1.34,1.22-1.7.06-3.4,0-5.09,0Z"/><path class="cls-1" d="M140.69,72.74A72.34,72.34,0,0,1,148.91,74c.86.21,1.14.63.94,1.5-.34,1.45-.75,2.89-1.14,4.33-.51,1.91-1,3.81-1.56,5.7-.29,1-.62,1.19-1.64,1.06l-5.66-.73c-1-.13-1.3-.44-1.34-1.45,0-1.43,0-2.86,0-4.28,0-1.63,0-3.26,0-4.9,0-.4,0-.81,0-1.22.1-.86.43-1.16,1.32-1.23Z"/><path class="cls-1" d="M165.33,191.58a1.78,1.78,0,0,1-.3.57,4.43,4.43,0,0,1-.84.57,50.07,50.07,0,0,1-7.9,3.29c-1.17.37-1.52.21-1.82-.9-.89-3.21-1.74-6.43-2.6-9.65a5.37,5.37,0,0,1-.15-.8,1,1,0,0,1,.53-1,2.58,2.58,0,0,1,.37-.19c1.82-.74,3.65-1.49,5.48-2.22a1.11,1.11,0,0,1,1.59.44c.2.27.38.56.56.85,1.53,2.65,3.07,5.3,4.59,7.95A11.91,11.91,0,0,1,165.33,191.58Z"/><path class="cls-1" d="M185.27,151.64l.83.21,8.45,2.27a12.08,12.08,0,0,1,1.17.35.86.86,0,0,1,.59,1.13,6.78,6.78,0,0,1-.27,1,69.76,69.76,0,0,1-2.76,6.78,9.93,9.93,0,0,1-.57,1.07c-.49.79-.82.91-1.67.42q-4.6-2.61-9.17-5.28c-.82-.47-.89-.8-.52-1.7q1.1-2.62,2.23-5.24C184,151.73,184.32,151.53,185.27,151.64Z"/><path class="cls-1" d="M120.47,185c-.1.45-.22,1-.36,1.51q-1,3.95-2.09,7.89c-.09.33-.18.66-.29,1-.29.77-.63,1-1.41.79-.26-.07-.52-.16-.77-.25a63.11,63.11,0,0,1-7.16-3,8.55,8.55,0,0,1-.9-.48c-.58-.37-.67-.72-.37-1.39a4.58,4.58,0,0,1,.28-.54q2.38-4.17,4.78-8.32a6.24,6.24,0,0,1,.46-.68,1,1,0,0,1,1.27-.34l.19.07c1.83.74,3.66,1.48,5.48,2.24A1.22,1.22,0,0,1,120.47,185Z"/><path class="cls-1" d="M138.48,192.84c0-1.43,0-2.86,0-4.29a9.73,9.73,0,0,1,.11-1.43,1,1,0,0,1,.78-.84,5.82,5.82,0,0,1,.6-.14c1.95-.27,3.9-.55,5.86-.78.71-.09,1,.12,1.22.8.28.84.51,1.69.75,2.55q.85,3.15,1.69,6.31c.1.39.2.79.28,1.19.24,1.21,0,1.58-1.23,1.87-.73.17-1.47.28-2.21.4a37.33,37.33,0,0,1-5.88.6c-1.81,0-1.93-.08-2-2C138.46,195.69,138.48,194.26,138.48,192.84Z"/><path class="cls-1" d="M151.79,86.72c0-.07.14-.53.26-1,.67-2.49,1.33-5,2-7.47.16-.59.3-1.18.51-1.75a1,1,0,0,1,1.25-.73,5.25,5.25,0,0,1,1,.27,67.48,67.48,0,0,1,7.12,3,9.67,9.67,0,0,1,.89.5.86.86,0,0,1,.34,1.23c-.22.49-.48,1-.75,1.44-1.45,2.53-2.92,5-4.38,7.58-.14.23-.28.46-.44.68a.93.93,0,0,1-1.07.37l-.2-.06-6-2.52C151.81,88.07,151.61,87.65,151.79,86.72Z"/><path class="cls-1" d="M116.83,75.76a.71.71,0,0,1,.68.4,6.42,6.42,0,0,1,.4,1.14c.81,3,1.6,5.9,2.39,8.84a7.66,7.66,0,0,1,.18.8,1.14,1.14,0,0,1-.82,1.44q-2.79,1.2-5.63,2.35c-.76.32-1.07.23-1.52-.51-.88-1.45-1.73-2.92-2.58-4.38-1-1.65-1.91-3.29-2.84-4.94-.35-.64-.25-1.06.35-1.38a47.24,47.24,0,0,1,9-3.72A2.73,2.73,0,0,1,116.83,75.76Z"/><path class="cls-1" d="M87.23,120.37l-1.76-.49-7.68-2c-.45-.12-.91-.26-1.35-.42a.83.83,0,0,1-.56-1,4.33,4.33,0,0,1,.19-.79A83.39,83.39,0,0,1,79.26,108a4.13,4.13,0,0,1,.41-.7.9.9,0,0,1,1.23-.35,5,5,0,0,1,.73.37c2.59,1.49,5.18,3,7.75,4.48,2,1.16,2,1.23,1,3.36-.45,1-.83,2-1.25,3-.23.56-.45,1.13-.72,1.68A1,1,0,0,1,87.23,120.37Z"/><path class="cls-1" d="M169.85,98.35a4.63,4.63,0,0,1-.7-.36c-1.68-1.27-3.36-2.54-5-3.82a1,1,0,0,1-.27-1.44c1.78-3.12,3.58-6.24,5.41-9.33.46-.78.9-.86,1.71-.3,1.72,1.2,3.41,2.46,5.09,3.72.65.49,1.26,1,1.87,1.57,1.07.94,1.07,1.21.05,2.3-.28.3-.57.58-.86.87L171.65,97a15.51,15.51,0,0,1-1.2,1.09A2.09,2.09,0,0,1,169.85,98.35Z"/><path class="cls-1" d="M89.86,178.63a1.64,1.64,0,0,1-.51-.12,4.39,4.39,0,0,1-.76-.66,62.35,62.35,0,0,1-5.21-6.79,4.16,4.16,0,0,1-.4-.71.74.74,0,0,1,.19-.92,8.47,8.47,0,0,1,1-.69c2.65-1.54,5.3-3.06,8-4.59a6.1,6.1,0,0,1,.72-.37c.75-.33,1.09-.28,1.6.37q1.95,2.47,3.85,5a.83.83,0,0,1-.07,1.27c-.41.46-.85.88-1.28,1.32q-3.09,3.09-6.21,6.19A9.32,9.32,0,0,1,89.86,178.63Z"/><path class="cls-1" d="M191.65,106.84a.88.88,0,0,1,.81.36,9.52,9.52,0,0,1,.52.87,64.7,64.7,0,0,1,3.11,7.33,5.42,5.42,0,0,1,.25,1,.86.86,0,0,1-.53,1,6.74,6.74,0,0,1-.95.34L186,120.13c-.13,0-.26.06-.4.09-1.38.3-1.51.25-2-1q-1.12-2.62-2.2-5.28c-.34-.85-.25-1.15.61-1.67,1.52-.92,3.05-1.8,4.59-2.68q2-1.17,4.08-2.31A10.31,10.31,0,0,1,191.65,106.84Z"/><path class="cls-1" d="M87.25,151.62a1.18,1.18,0,0,1,1.21.58c.09.18.18.36.26.55.67,1.64,1.35,3.27,2,4.91.48,1.18.44,1.41-.58,2-3,1.77-6,3.5-9,5.23-.8.46-1.18.34-1.64-.52A47.06,47.06,0,0,1,76,155.92c-.27-.9-.07-1.28.81-1.54,2-.57,3.93-1.1,5.9-1.63,1.18-.31,2.37-.61,3.55-.9Z"/><path class="cls-1" d="M189.35,101.92a1,1,0,0,1-.41.72c-.45.29-.9.59-1.38.86l-7.41,4.25c-.36.2-.71.4-1.08.57A.86.86,0,0,1,178,108a3.92,3.92,0,0,1-.25-.32c-1.11-1.46-2.23-2.9-3.33-4.37-.84-1.12-.86-1.34,0-2.26,2.38-2.41,4.79-4.81,7.2-7.19.72-.71,1.18-.75,1.74-.12a59.29,59.29,0,0,1,5.79,7.6A2.45,2.45,0,0,1,189.35,101.92Z"/><path class="cls-1" d="M101.86,189.09a3,3,0,0,1-.64-.28,61.64,61.64,0,0,1-7.27-5.6c-.67-.6-.64-1,.09-1.71,2.44-2.47,4.9-4.92,7.35-7.37a2.61,2.61,0,0,1,.31-.27.87.87,0,0,1,1.28,0q2.44,1.85,4.86,3.72c.82.64.91,1,.37,1.93-1.2,2.14-2.45,4.25-3.68,6.36-.51.89-1,1.77-1.55,2.64A1.15,1.15,0,0,1,101.86,189.09Z"/><path class="cls-1" d="M133.66,79.36c0,1.64,0,3.27,0,4.9,0,1.15-.34,1.43-1.44,1.57l-5.46.7c-.93.11-1.24-.06-1.58-.89a7.87,7.87,0,0,1-.32-1q-1.17-4.33-2.31-8.67a7.1,7.1,0,0,1-.17-.8c-.1-.7.08-1.06.76-1.21,1.39-.29,2.8-.56,4.21-.78s2.56-.31,3.84-.45a7,7,0,0,1,1,0c1,.05,1.35.32,1.44,1.32a13.58,13.58,0,0,1,0,1.43v3.87Z"/><path class="cls-1" d="M133.66,192.92c0,1.7,0,3.4,0,5.1,0,.84-.31,1.1-1.13,1.09a45.75,45.75,0,0,1-8.88-1.07,2.81,2.81,0,0,1-.58-.19.9.9,0,0,1-.7-1.08,8.25,8.25,0,0,1,.25-1.2c.79-2.95,1.6-5.9,2.4-8.85a5.41,5.41,0,0,1,.27-.77.93.93,0,0,1,1-.6c.2,0,.4,0,.6.05,1.62.21,3.24.39,4.85.65,1.86.29,1.95.43,2,2.38,0,1.5,0,3,0,4.49Z"/><path class="cls-1" d="M79.43,138.47c1.7,0,3.4,0,5.1,0,.94,0,1.22.25,1.37,1.19.33,2,.59,4,.86,6.05a.94.94,0,0,1-.69,1.1c-.39.13-.77.27-1.17.38l-8.47,2.27a9.42,9.42,0,0,1-1.2.23.9.9,0,0,1-1.07-.72,9.21,9.21,0,0,1-.28-1.18,63.45,63.45,0,0,1-1-7.89c-.08-1,.22-1.41,1.23-1.44,1.77,0,3.53,0,5.3,0Z"/><path class="cls-1" d="M199.37,140.44a78.46,78.46,0,0,1-1.11,7.9,5,5,0,0,1-.23.78.88.88,0,0,1-1,.6,8.42,8.42,0,0,1-1.2-.22l-8.64-2.34-.2,0c-1.45-.45-1.63-.73-1.44-2.18.24-1.75.45-3.5.71-5.24.13-.9.41-1.14,1.34-1.22.47,0,1,0,1.42,0h7.54c.47,0,1,0,1.42,0,1,.08,1.29.41,1.35,1.41Z"/><path class="cls-1" d="M89.68,93.38a2,2,0,0,1,.37.14,8.24,8.24,0,0,1,.78.66q3.61,3.58,7.22,7.2c.7.69.73,1,.06,1.72a44.77,44.77,0,0,0-3.51,4.49c-.69,1-.92,1-2,.42s-2.25-1.26-3.37-1.91c-1.83-1-3.66-2.09-5.47-3.17-1-.57-1.08-.91-.5-1.79a50.41,50.41,0,0,1,5.6-7.25A1.4,1.4,0,0,1,89.68,93.38Z"/><path class="cls-1" d="M169.91,173.53a4.14,4.14,0,0,1,.65.41c.79.75,1.56,1.52,2.33,2.29q2.31,2.29,4.61,4.61a13.7,13.7,0,0,1,1,1,.78.78,0,0,1,0,1.1,5.86,5.86,0,0,1-.42.44,49.11,49.11,0,0,1-7,5.32c-1,.61-1.35.49-2-.54-1-1.69-2-3.4-3-5.11-.75-1.29-1.51-2.58-2.23-3.9-.36-.65-.29-1,.27-1.42q2.55-2,5.15-4A2.65,2.65,0,0,1,169.91,173.53Z"/><path class="cls-1" d="M222.63,302c3.92.16,7.23,2.79,7.38,7.21a7.36,7.36,0,1,1-14.71.08A7.51,7.51,0,0,1,222.63,302Zm4.49,7.16a6.82,6.82,0,0,0-.08-.82,4.42,4.42,0,0,0-5-3.63,4.69,4.69,0,0,0-3.8,4.42,4.9,4.9,0,0,0,3.59,4.83,3.37,3.37,0,0,0,1.61,0A4.56,4.56,0,0,0,227.12,309.12Z"/></g></g></svg>