<svg xmlns="http://www.w3.org/2000/svg" viewBox="0 0 237.95 291.97"><defs><style>.cls-1{fill:#fff;}</style></defs><title>4 - Pulse</title><g id="Capa_2" data-name="Capa 2"><g id="Capa_1-2" data-name="Capa 1"><path class="cls-1" d="M225.71,114.29h-9.2c-.47,0-.94,0-1.41,0-1-.07-1.17-.27-1.34-1.29a18.2,18.2,0,0,1-.25-1.93,78,78,0,0,0-1.32-10c-.38-2.1-.4-2.09,1.66-2.64L233,93.29c.45-.12.91-.24,1.37-.32s.91.1,1,.7c.27,1.21.52,2.42.74,3.64.61,3.3,1,6.63,1.41,10,.17,1.58.28,3.17.39,4.76a8.32,8.32,0,0,1-.06,1.41.79.79,0,0,1-.68.72,10.41,10.41,0,0,1-1.58.12Z"/><path class="cls-1" d="M12.17,123.55H22.26c1.57,0,1.84.42,2,1.86a106.4,106.4,0,0,0,1.59,11.91,4.3,4.3,0,0,1,.08.88.88.88,0,0,1-.55.83,7.49,7.49,0,0,1-1,.34Q14.68,142,5,144.54c-2.34.63-2.38.61-2.84-1.84A107.62,107.62,0,0,1,.31,129.22C.23,128,.09,126.87,0,125.7a7.35,7.35,0,0,1,0-1.24.85.85,0,0,1,.79-.82,14.12,14.12,0,0,1,1.59-.09Z"/><path class="cls-1" d="M182.79,219.34c-.15-.08-.35-.13-.44-.25a10,10,0,0,1-.78-1.18l-9.13-15.8c-.51-.87-1-1.74-1.48-2.63-.32-.64-.25-.93.35-1.36,1.25-.9,2.52-1.76,3.77-2.65,2.22-1.57,4.28-3.35,6.38-5.07.23-.18.45-.38.69-.55a.75.75,0,0,1,1,0,11.94,11.94,0,0,1,.91.83l14.41,14.41c1.17,1.17,1.35,1.34-.06,2.6a119.68,119.68,0,0,1-13.88,10.69c-.4.26-.8.52-1.2.76A4.47,4.47,0,0,1,182.79,219.34Z"/><path class="cls-1" d="M89.61,210c-.07.32-.15.78-.27,1.24q-2.62,9.84-5.27,19.67c-.44,1.62-.66,1.74-2.22,1.23a103.4,103.4,0,0,1-10.74-4.13c-2-.9-4-1.82-5.92-2.79-1.49-.74-1.56-1-.75-2.45q5.11-8.9,10.26-17.79l.08-.15c.76-1.31,1.13-1.24,2.29-.7,1.39.65,2.79,1.29,4.19,1.9,2.27,1,4.59,1.88,6.93,2.69a6.53,6.53,0,0,1,1,.41A.9.9,0,0,1,89.61,210Z"/><path class="cls-1" d="M155.28,5.51c.35.1,1,.23,1.6.44,1.23.41,2.46.84,3.67,1.3q6,2.27,11.7,5.07c2.3,1.13,2.05,1.28,1,3.13q-4.29,7.44-8.59,14.88c-.53.92-1,1.86-1.6,2.76-.73,1.15-.95,1.21-2.15.67s-2.68-1.25-4-1.87c-2.26-1-4.6-1.86-6.92-2.73a8.8,8.8,0,0,1-1.14-.47.79.79,0,0,1-.46-.88,13.23,13.23,0,0,1,.3-1.39q2.57-9.57,5.15-19.16a9.14,9.14,0,0,1,.47-1.33C154.39,5.65,154.67,5.51,155.28,5.51Z"/><path class="cls-1" d="M210.54,148.4c.86.21,1.89.46,2.92.73l17.09,4.61c2.18.58,2.17.58,1.47,2.76a107.52,107.52,0,0,1-6.65,16c-.94,1.85-1,1.86-2.74.82l-17-9.8c-.46-.26-.92-.54-1.36-.84a.82.82,0,0,1-.35-1.21c.45-1,.91-2.05,1.39-3.06,1.22-2.56,2.22-5.21,3.2-7.87a15.72,15.72,0,0,1,.59-1.48C209.35,148.47,209.7,148.31,210.54,148.4Z"/><path class="cls-1" d="M114.23,12.11v9c0,.41,0,.83,0,1.24,0,1.61-.21,1.8-1.87,1.86A86,86,0,0,0,102,25.53c-.76.12-1.52.25-2.28.34a.77.77,0,0,1-.85-.5,11.6,11.6,0,0,1-.38-1.18Q96.56,17.1,94.66,10c-.51-1.89-1-3.77-1.49-5.66-.35-1.39-.19-1.68,1.2-2,2.88-.62,5.79-1.13,8.72-1.51,1.76-.23,3.52-.46,5.28-.61C110,.1,111.55.05,113.15,0c.67,0,1,.26,1,.94s0,1.07,0,1.6Z"/><path class="cls-1" d="M27.58,89.54l-.74-.17L7.16,84.1c-1.88-.51-2-.7-1.34-2.61A109.67,109.67,0,0,1,12.75,65c.7-1.34.89-1.41,2.15-.69Q21,67.8,27,71.31l5.83,3.37c.31.18.61.36.9.56a.86.86,0,0,1,.31,1.1c-.13.33-.29.65-.44,1a92,92,0,0,0-4.35,10.47,10.21,10.21,0,0,1-.44,1.16C28.58,89.48,28.31,89.61,27.58,89.54Z"/><path class="cls-1" d="M39,170.78a2.59,2.59,0,0,1,.58.34,5.8,5.8,0,0,1,.65.83,95.21,95.21,0,0,0,7.32,9.53l.34.41a1,1,0,0,1-.06,1.43,10.29,10.29,0,0,1-.85.9L32.84,198.36c-1.47,1.46-1.42,1.41-2.81-.14a125.18,125.18,0,0,1-7.85-9.8c-1.1-1.53-2.15-3.1-3.18-4.68-.62-1-.54-1.27.43-1.85,2-1.2,4.06-2.39,6.1-3.57l11-6.36q.84-.48,1.71-.93A7.07,7.07,0,0,1,39,170.78Z"/><path class="cls-1" d="M219.3,55.21c0,.13-.14.32-.34.45-.69.44-1.39.88-2.11,1.29l-15.63,9c-.61.35-1.25.67-1.89,1a.78.78,0,0,1-1-.22,12.19,12.19,0,0,1-.76-1c-1.64-2.31-3.28-4.61-5.09-6.8-.83-1-1.67-2-2.49-3-.49-.6-.48-.83,0-1.38.28-.31.58-.59.87-.88l13.77-13.77a3,3,0,0,1,.25-.25c1.51-1.49,1.52-1.51,3,.1a95.5,95.5,0,0,1,7,8.66,67.18,67.18,0,0,1,3.92,5.67A1.93,1.93,0,0,1,219.3,55.21Z"/><path class="cls-1" d="M67.12,38.88a1,1,0,0,1-.44.75c-.57.42-1.14.84-1.72,1.25a95.67,95.67,0,0,0-8.53,6.61c-.14.11-.26.24-.4.35-.59.45-.87.45-1.41,0-.31-.27-.6-.57-.89-.86l-14-14c-1.36-1.37-1.73-1.49.12-3.1A128.57,128.57,0,0,1,53.45,19.44c1.9-1.25,1.9-1.25,3,.7q5,8.74,10.07,17.49A3.11,3.11,0,0,1,67.12,38.88Z"/><path class="cls-1" d="M123.73,225.8c0-3.36,0-6.72,0-10.08,0-1.9.16-2.06,2-2.13A78.26,78.26,0,0,0,136,212.3c.69-.12,1.39-.23,2.09-.33a.81.81,0,0,1,1,.62q.53,1.68,1,3.39,2.33,8.63,4.63,17.26c.46,1.71.33,2-1.35,2.31-4,.83-8.12,1.45-12.23,1.9-2,.22-4,.2-6,.44l-.18,0c-.85,0-1.13-.22-1.2-1.14,0-.47,0-.94,0-1.41Z"/><path class="cls-1" d="M11.94,113.6c-2.65,0-5.31,0-8,0-2.08,0-2.25-.25-2-2.26.21-1.63.36-3.28.49-4.92A79.16,79.16,0,0,1,4,97a3.07,3.07,0,0,1,.21-.67.88.88,0,0,1,1-.59A11.88,11.88,0,0,1,6.7,96c4.39,1.17,8.78,2.36,13.17,3.54.85.23,1.72.42,2.57.67,1,.29,1.15.48,1,1.5s-.27,1.75-.38,2.63c-.32,2.57-.65,5.14-.75,7.74,0,1.14-.34,1.44-1.54,1.46-2.95,0-5.9,0-8.86,0Z"/><path class="cls-1" d="M183.8,22a6.21,6.21,0,0,1,.82.44c2,1.49,4.13,2.94,6.12,4.51s4,3.31,6,5c.57.47.6.8.14,1.34-.19.22-.4.43-.61.64L184.73,45.37a7.56,7.56,0,0,1-.79.71.57.57,0,0,1-.8-.06,42.42,42.42,0,0,0-6.5-5.38c-.72-.52-1.41-1.06-2.1-1.61s-.74-.81-.37-1.51S175,36,175.46,35.2q2.41-4.22,4.85-8.43,1.24-2.13,2.52-4.26A1,1,0,0,1,183.8,22Z"/><path class="cls-1" d="M112.42,225.82c0,2.66,0,5.32,0,8,0,2-.33,2.27-2.32,2.1s-4-.42-6-.71c-2.21-.32-4.43-.67-6.63-1.07s-2.15-.57-1.61-2.58q1.9-7.09,3.82-14.2c.18-.68.38-1.36.62-2,.29-.82.6-1,1.48-.88,1.69.23,3.39.45,5.08.74a15.61,15.61,0,0,0,2.46.21c.3,0,.59,0,.89,0,1.76.13,2.16.53,2.18,2.28C112.44,220.39,112.42,223.11,112.42,225.82Z"/><path class="cls-1" d="M136,23.5c-.7-.11-1.39-.23-2.09-.31-2.34-.26-4.68-.49-7-.74-1-.1-1.29-.37-1.36-1.46,0-.41,0-.82,0-1.24V4.55a14,14,0,0,1,0-1.59,1,1,0,0,1,1.23-1c3.81.36,7.61.75,11.38,1.47,1,.2,2.09.35,3.13.58s1.12.52.87,1.52c-.39,1.55-.78,3.09-1.2,4.62q-1.51,5.64-3.07,11.26c-.08.28-.14.57-.23.85C137.39,23.31,137.05,23.54,136,23.5Z"/><path class="cls-1" d="M225.71,125.66h8c1.94,0,2.19.24,2.12,2.14a39.64,39.64,0,0,1-.4,4.22c-.43,2.86-.76,5.74-1.39,8.57-.42,1.89-.48,2-2.33,1.48-4.28-1.13-8.55-2.3-12.83-3.45-1.14-.3-2.29-.56-3.43-.89-1-.28-1.14-.56-1-1.53.18-1.47.35-2.93.59-4.39a25.77,25.77,0,0,0,.28-2.63,18.55,18.55,0,0,1,.36-2.45c.16-.76.42-1,1.22-1,.52,0,1.06,0,1.59,0Z"/><path class="cls-1" d="M211.66,87c-.72,0-1-.2-1.11-.55-.25-.6-.49-1.2-.71-1.82-.7-1.94-1.44-3.87-2.3-5.75-.18-.38-.32-.77-.46-1.16-.32-.94-.22-1.3.58-1.78,1.47-.88,3-1.74,4.44-2.59l8.44-4.87c.77-.44,1.54-.87,2.33-1.28a.7.7,0,0,1,1,.33,1.92,1.92,0,0,1,.18.31c1.95,4.24,3.84,8.5,5.39,12.91.38,1.1.2,1.44-1,1.78-1.53.44-3.07.84-4.61,1.25l-10.45,2.79C212.75,86.75,212.06,86.9,211.66,87Z"/><path class="cls-1" d="M170.75,223.19a.73.73,0,0,1-.29.62,5.8,5.8,0,0,1-.9.54c-3.19,1.4-6.32,2.93-9.6,4.12-.94.34-1.87.71-2.82,1.05s-1.33.21-1.67-.89c-.29-.95-.56-1.92-.82-2.89q-1.78-6.68-3.56-13.35c0-.17-.1-.33-.14-.51a1,1,0,0,1,.61-1.3,13.75,13.75,0,0,1,1.64-.67c2.35-.79,4.6-1.83,6.89-2.78,1.16-.48,1.3-.45,2,.66.57.9,1.08,1.83,1.61,2.75l6.7,11.66A2,2,0,0,1,170.75,223.19Z"/><path class="cls-1" d="M31.07,160.69a1.22,1.22,0,0,1-.34.94,4.55,4.55,0,0,1-1.28.94,61.86,61.86,0,0,0-6.12,3.53c-1,.68-2.16,1.2-3.24,1.81l-4.46,2.53c-1,.55-1.26.47-1.8-.54s-.93-1.78-1.35-2.7q-2.22-4.92-4.09-10a4.83,4.83,0,0,1-.16-.5.73.73,0,0,1,.47-1c.61-.23,1.23-.43,1.85-.6q7.09-1.92,14.18-3.81c2.12-.56,2.29-.71,3.12,1.5.9,2.37,1.77,4.75,2.9,7A6.47,6.47,0,0,1,31.07,160.69Z"/><path class="cls-1" d="M81.6,8.19a.81.81,0,0,1,.69.62c.3,1,.6,2,.88,3.06L86.65,25c.57,2.16.39,2.14-1.46,2.81a72.42,72.42,0,0,0-7.19,3,4.81,4.81,0,0,1-.82.32.84.84,0,0,1-.94-.34c-.2-.29-.36-.61-.54-.92l-7.53-13c-.27-.46-.51-.93-.75-1.41-.49-1-.47-1.06.57-1.6,2.62-1.35,5.33-2.52,8.06-3.63,1.53-.63,3.08-1.2,4.63-1.78C81,8.32,81.35,8.26,81.6,8.19Z"/><path class="cls-1" d="M199.81,173.86c.21.11.43.2.63.31l11.31,6.59c1.17.68,2.36,1.33,3.53,2,.9.52,1,.79.36,1.67-1.09,1.55-2.2,3.07-3.33,4.58s-2.39,3.2-3.64,4.75a29.71,29.71,0,0,0-2.12,2.36.43.43,0,0,1-.64,0,7.47,7.47,0,0,1-.8-.69l-11.39-11.38c-1.07-1.07-1.2-1.33-.14-2.62,1.8-2.18,3.44-4.49,5.16-6.74a5.18,5.18,0,0,1,.57-.67A1.8,1.8,0,0,1,199.81,173.86Z"/><path class="cls-1" d="M44.83,55.43a2.35,2.35,0,0,1-.17.49c-.31.5-.61,1-1,1.48-1.5,2-3,3.9-4.55,5.85-.07.09-.13.19-.21.28-.54.67-.75.71-1.48.28l-3-1.81c-2.58-1.54-5.27-2.88-7.79-4.52-1.24-.8-2.56-1.46-3.85-2.16-1.11-.6-1.17-.78-.48-1.89.28-.45.57-.9.89-1.33,2.43-3.25,4.83-6.54,7.55-9.57.12-.13.22-.27.35-.39a.49.49,0,0,1,.65-.06,6.49,6.49,0,0,1,.8.69q5.7,5.68,11.38,11.38a8.88,8.88,0,0,1,.71.79A2,2,0,0,1,44.83,55.43Z"/><path class="cls-1" d="M64,199.82c-.21.41-.38.78-.58,1.13L59.2,208.3q-2,3.38-3.88,6.75a7.17,7.17,0,0,1-.46.75.58.58,0,0,1-.79.18A21.54,21.54,0,0,1,52,214.7c-2.45-1.83-4.88-3.67-7.28-5.56a28,28,0,0,0-2.37-2.1.62.62,0,0,1-.09-.94,7.94,7.94,0,0,1,.81-.93L54.29,193.9c.16-.16.33-.33.51-.49.57-.5.83-.52,1.37-.06A83.45,83.45,0,0,0,63,198.64a3.33,3.33,0,0,1,.68.56A3.26,3.26,0,0,1,64,199.82Z"/><path class="cls-1" d="M122.38,193.13v-5.84a13.29,13.29,0,0,1,.05-1.41c.08-.66.32-.9,1-1a15.9,15.9,0,0,1,1.92-.29,53.83,53.83,0,0,0,6-.8c.35-.06.7-.13,1.05-.16a.83.83,0,0,1,.85.52,7,7,0,0,1,.41,1.16q1.62,6.08,3.23,12.14c.06.22.12.45.17.68.29,1.35.13,1.64-1.28,2-2.24.49-4.51.85-6.79,1.12-.82.1-1.64.21-2.46.26s-1.88.12-2.83.11-1.16-.31-1.24-1.16a13.47,13.47,0,0,1,0-1.42Z"/><path class="cls-1" d="M163.36,168.06a2,2,0,0,1,.55.18,10.17,10.17,0,0,1,.92.82q4.57,4.56,9.13,9.14c1.39,1.39,1.41,1.48,0,2.78a69,69,0,0,1-9.39,7.2,3,3,0,0,1-.46.26.75.75,0,0,1-1.08-.27c-.33-.49-.64-1-.93-1.5-2.11-3.62-4.2-7.25-6.3-10.87a8.46,8.46,0,0,1-.41-.79.8.8,0,0,1,.27-1.09c.13-.11.28-.21.42-.31a54.91,54.91,0,0,0,6.58-5.08A5.35,5.35,0,0,1,163.36,168.06Z"/><path class="cls-1" d="M63.58,155a1.11,1.11,0,0,1,.43.17,3.11,3.11,0,0,1,.58.67,63,63,0,0,0,4.93,6.46,4.23,4.23,0,0,1,.32.42.76.76,0,0,1,0,1,10.29,10.29,0,0,1-.84.91l-9,9c-1.48,1.48-1.58,1.51-3-.13A77.35,77.35,0,0,1,51.79,167c-.67-1-1.37-1.92-2-2.91-.44-.68-.34-1,.38-1.45,1.81-1.09,3.65-2.16,5.48-3.23,2.19-1.28,4.39-2.54,6.59-3.81A3.29,3.29,0,0,1,63.58,155Z"/><path class="cls-1" d="M44.94,122.12h6c.35,0,.71,0,1.06,0,.93.08,1.2.33,1.4,1.28a3.38,3.38,0,0,1,.1.7,56.17,56.17,0,0,0,.88,7.2c0,.23.08.46.1.7a.85.85,0,0,1-.62.95c-.84.28-1.69.53-2.55.76q-5.3,1.44-10.59,2.84c-2.23.59-2.37.47-2.8-1.74-.63-3.18-1-6.41-1.33-9.63a11.54,11.54,0,0,1,0-2.12.89.89,0,0,1,.91-.9,11.1,11.1,0,0,1,1.41-.07Z"/><path class="cls-1" d="M116,44.81c0,1.89,0,3.78,0,5.67,0,.35,0,.71,0,1.06-.07,1.13-.21,1.3-1.31,1.53a7.5,7.5,0,0,1-1.23.2,48.86,48.86,0,0,0-6.14.79c-.35.06-.7.13-1,.16a.92.92,0,0,1-1.09-.68,8.15,8.15,0,0,1-.39-1.18q-1.64-6.07-3.24-12.15c-.51-2-.41-2.13,1.51-2.49a64.34,64.34,0,0,1,7.7-1.12c1-.07,2-.21,3-.3a6.25,6.25,0,0,1,1.06,0c.79.06,1.08.32,1.16,1.06a13.47,13.47,0,0,1,0,1.42C116,40.8,116,42.8,116,44.81Z"/><path class="cls-1" d="M60.19,89.18c-.12.33-.21.61-.33.88a78.36,78.36,0,0,0-3,7.37,4.29,4.29,0,0,1-.19.5.86.86,0,0,1-1,.54c-.34-.07-.69-.16-1-.26L42,94.85l-.17,0c-1.64-.45-1.73-.59-1.16-2.21a87.7,87.7,0,0,1,4.25-10.29c.16-.31.31-.63.5-.93.38-.61.7-.72,1.33-.44a12.51,12.51,0,0,1,1.26.65l10.71,6.2a8.52,8.52,0,0,1,1.16.8C60,88.73,60.09,89,60.19,89.18Z"/><path class="cls-1" d="M182.46,138.92c.26.06.61.13.95.22,4.1,1.1,8.21,2.19,12.3,3.32,1.94.54,2.06.75,1.43,2.58a76.79,76.79,0,0,1-4.48,10.58,6,6,0,0,1-.35.61.76.76,0,0,1-1.08.27,4.09,4.09,0,0,1-.46-.25c-3.93-2.28-7.86-4.55-11.78-6.85-1.45-.85-1.48-1-.78-2.51a54.38,54.38,0,0,0,2.61-6.38,7,7,0,0,1,.41-1A1,1,0,0,1,182.46,138.92Z"/><path class="cls-1" d="M157.34,46.1a4.16,4.16,0,0,1-.26.67c-.58,1-1.17,2-1.77,3.07L150,59a6,6,0,0,1-.4.58.74.74,0,0,1-.79.27,6,6,0,0,1-1-.4A67.41,67.41,0,0,0,141,56.64c-.28-.1-.56-.21-.82-.33a.78.78,0,0,1-.45-.88,9.12,9.12,0,0,1,.21-1q1.64-6.16,3.29-12.32c.09-.34.2-.68.32-1,.34-1,.57-1.08,1.6-.78.68.2,1.35.43,2,.67a76.68,76.68,0,0,1,8.94,3.85,8.46,8.46,0,0,1,.91.55A.88.88,0,0,1,157.34,46.1Z"/><path class="cls-1" d="M98.7,182.73c-.24,1-.52,2.1-.82,3.24q-1.27,4.78-2.57,9.58c-.68,2.5-.69,2.52-3.08,1.68a79.35,79.35,0,0,1-9.48-4c-.31-.16-.64-.31-.94-.48-.87-.51-1-.83-.45-1.73,1.82-3.17,3.66-6.34,5.49-9.51.56-1,1.11-2,1.71-2.9.5-.79.77-.86,1.62-.47,2.52,1.18,5.07,2.27,7.69,3.2C98.62,181.64,98.78,181.92,98.7,182.73Z"/><path class="cls-1" d="M188.83,74.44a.93.93,0,0,1-.52.81c-.91.54-1.83,1.07-2.75,1.6-2.91,1.68-5.82,3.37-8.73,5-2.45,1.4-2.13,1.28-3.58-.75a72.45,72.45,0,0,0-4.47-5.71c-.5-.56-.48-.82,0-1.37.19-.23.41-.43.61-.64q4.64-4.62,9.26-9.26c.25-.25.5-.5.77-.73a.72.72,0,0,1,1.1,0,13.28,13.28,0,0,1,1.12,1.13,74.42,74.42,0,0,1,6.73,8.87A1.93,1.93,0,0,1,188.83,74.44Z"/><path class="cls-1" d="M74.88,69.66a1.77,1.77,0,0,1-.41-.21c-.31-.27-.6-.56-.89-.85l-9-9c-.25-.25-.51-.5-.75-.76-.5-.57-.51-.84,0-1.37a9,9,0,0,1,.89-.86,82.51,82.51,0,0,1,9.18-6.91c.15-.09.3-.19.45-.27a.76.76,0,0,1,1.09.22,8.38,8.38,0,0,1,.46.75l6.37,11c.21.36.41.72.59,1.09.43.91.39,1.18-.5,1.76a80.44,80.44,0,0,0-6.6,5A1.09,1.09,0,0,1,74.88,69.66Z"/><path class="cls-1" d="M192.9,115.07h-6a13.47,13.47,0,0,1-1.42,0,1,1,0,0,1-1-.88,3.34,3.34,0,0,1-.08-.7,52.1,52.1,0,0,0-.86-7c0-.23-.1-.46-.13-.69-.1-.87.08-1.2.9-1.47s1.93-.57,2.9-.83c3.47-.94,7-1.87,10.44-2.79,1.63-.43,1.81-.34,2.17,1.3a66.36,66.36,0,0,1,1.27,8.75c0,.59.14,1.17.19,1.76a12.09,12.09,0,0,1,.07,1.59c0,.63-.36.93-1,1a13.28,13.28,0,0,1-1.41,0Z"/><path class="cls-1" d="M160.51,291.29h-5.32a13.31,13.31,0,0,1-1.41-.07.86.86,0,0,1-.84-.77,7.41,7.41,0,0,1-.1-1.24q0-11.34,0-22.69c0-1.95.22-2.17,2.12-2.18,3.78,0,7.56,0,11.34,0,.24,0,.47,0,.71,0,1.15.11,1.52.59,1.41,1.77-.07.66-.34,1-1,1a13.39,13.39,0,0,1-1.42,0h-8.15c-2,0-2.08.14-2.09,2.15,0,1.54,0,3.08,0,4.61,0,1,.29,1.23,1.29,1.3.47,0,.94,0,1.42,0h7.44a11.24,11.24,0,0,1,1.42.06,1,1,0,0,1,1,1.06,3.61,3.61,0,0,1,0,.87.92.92,0,0,1-.83.81c-.52.05-1.06.08-1.59.08h-8c-2,0-2.13.09-2.14,2.06s0,4,0,6a9.32,9.32,0,0,0,0,1.06c.07.69.33,1,1,1a13.47,13.47,0,0,0,1.42,0h7.62a12,12,0,0,1,1.59.08,1,1,0,0,1,.92.92,3.24,3.24,0,0,1,0,.88,1,1,0,0,1-.91.93,11.16,11.16,0,0,1-1.42.07Z"/><path class="cls-1" d="M71.3,278c0-3.71,0-7.43,0-11.14,0-2.35.13-2.42,2.53-2.49a75.27,75.27,0,0,1,8,.34,6.5,6.5,0,0,1,5.77,3.8,7.11,7.11,0,0,1-.56,7.4,6.48,6.48,0,0,1-4.1,2.57,15.34,15.34,0,0,1-3.51.44q-1.77,0-3.54,0c-1.08,0-1.35.3-1.37,1.4,0,2.66,0,5.31,0,8a17.16,17.16,0,0,1,0,1.76c-.1.93-.44,1.21-1.4,1.24a5.21,5.21,0,0,1-.88-.06.82.82,0,0,1-.7-.7,10.4,10.4,0,0,1-.11-1.58Q71.29,283.44,71.3,278Zm3.18-6.36h0c0,1,0,2,0,3s.33,1.36,1.41,1.38c1.7,0,3.41,0,5.12,0a5.38,5.38,0,0,0,1.37-.28,3.73,3.73,0,0,0,2.7-3.37,5.54,5.54,0,0,0,0-1.41,3.86,3.86,0,0,0-3-3.28,27,27,0,0,0-6.34-.36c-.89,0-1.18.31-1.22,1.18C74.45,269.47,74.48,270.53,74.48,271.59Z"/><path class="cls-1" d="M111.07,274.92v7.62a15.82,15.82,0,0,1-.32,2.82,8.29,8.29,0,0,1-8.66,6.6,9.12,9.12,0,0,1-6.76-3,7,7,0,0,1-1.73-3.62,27.57,27.57,0,0,1-.34-4.06c0-4.79,0-9.57,0-14.36a13.48,13.48,0,0,1,0-1.42,1.1,1.1,0,0,1,1.16-1.09c1.16-.09,1.63.31,1.7,1.48,0,.47,0,.94,0,1.42,0,4.6,0,9.21,0,13.82a23.15,23.15,0,0,0,.31,3.53,4.56,4.56,0,0,0,2.45,3.49,6.37,6.37,0,0,0,5.28.63,5.64,5.64,0,0,0,3.87-5,23.57,23.57,0,0,0,.08-2.66v-14a14,14,0,0,1,.06-1.59,1.09,1.09,0,0,1,1.17-1.08c1.15-.08,1.65.32,1.67,1.5,0,2.54,0,5.08,0,7.62v1.42Z"/><path class="cls-1" d="M140.18,263.88a6.16,6.16,0,0,1,3.69,1.07,10.81,10.81,0,0,1,2.79,2.69c.18.24.35.55.17.82a3.22,3.22,0,0,1-1.8,1.33.68.68,0,0,1-.63-.26l-1.24-1.26a4.5,4.5,0,0,0-2.11-1.26,3.48,3.48,0,0,0-3.72,1,3.3,3.3,0,0,0-.44,3.65,5.19,5.19,0,0,0,1.76,2.18q2.32,1.75,4.63,3.56a11.51,11.51,0,0,1,3.6,4.3,6.59,6.59,0,0,1-.95,7.44,7.89,7.89,0,0,1-11.62.49,12.88,12.88,0,0,1-2.09-2.62.84.84,0,0,1,.27-1.23,2.64,2.64,0,0,1,.29-.21c1.18-.79,1.53-.77,2.28.41a6.78,6.78,0,0,0,2.33,2.37,4.48,4.48,0,0,0,4.87,0,4.15,4.15,0,0,0,1.07-6.4,24.66,24.66,0,0,0-3.57-3.43c-1.21-.94-2.39-1.92-3.6-2.87a6.9,6.9,0,0,1-1.51-1.72,6.34,6.34,0,0,1,5.53-10.05Z"/><path class="cls-1" d="M123.07,44.55c0-1.47,0-2.95,0-4.42a7.21,7.21,0,0,1,.1-1.23.79.79,0,0,1,.9-.68c2.11.23,4.21.46,6.32.73,1.05.13,2.09.33,3.13.56s1.24.62,1,1.67c-.54,2-1.12,4.09-1.66,6.15-.32,1.19-.6,2.4-.93,3.6-.24.89-.45,1-1.39,1a6.42,6.42,0,0,1-1.24-.1,13.42,13.42,0,0,0-3.16-.28,6,6,0,0,1-2.09-.33A1.23,1.23,0,0,1,123.1,50c0-.41,0-.83,0-1.24C123.06,47.39,123.07,46,123.07,44.55Z"/><path class="cls-1" d="M44.9,115H40.48a8.38,8.38,0,0,1-1.23-.07.84.84,0,0,1-.78-1c.06-.88.1-1.77.23-2.64.33-2.27.68-4.53,1.07-6.8.13-.79.45-1,1.25-.84a9,9,0,0,1,1,.23L49.91,106c.57.15,1.13.35,1.68.54a.78.78,0,0,1,.58.79,2,2,0,0,1,0,.35c-.24,2-.44,4.09-.73,6.13-.14,1-.41,1.2-1.41,1.22-1.71,0-3.42,0-5.12,0Z"/><path class="cls-1" d="M114.2,193.28c0,1.35,0,2.71,0,4.06,0,.41,0,.83,0,1.24-.09.84-.46,1.18-1.28,1.07-2-.29-4-.37-5.94-.81-.8-.18-1.62-.28-2.42-.48-.6-.15-.77-.43-.66-1s.27-1.27.44-1.9c.69-2.55,1.39-5.11,2.09-7.66.08-.28.15-.57.25-.84a1.25,1.25,0,0,1,1.51-.92c1.64.2,3.27.43,4.89.68.85.13,1.06.4,1.13,1.3,0,.41,0,.83,0,1.24Z"/><path class="cls-1" d="M192.77,123.53H197a9.39,9.39,0,0,1,1.06,0c.84.09,1.12.39,1.19,1.25a4.41,4.41,0,0,1,0,.89c-.33,2.33-.54,4.69-1,7a4.37,4.37,0,0,1-.22.67.72.72,0,0,1-.7.44,5.22,5.22,0,0,1-1-.16q-4.8-1.28-9.58-2.59c-.95-.26-1-.44-.95-1.37.14-1.65.51-3.27.52-4.93,0-.84.37-1.18,1.22-1.2,1.77,0,3.54,0,5.32,0Z"/><path class="cls-1" d="M54,142.08a1.21,1.21,0,0,1,1.23.55,4.73,4.73,0,0,1,.31.64c.5,1.25,1,2.52,1.52,3.77a1.25,1.25,0,0,1-.69,1.89c-.89.46-1.72,1-2.61,1.49-2,1-3.93,2.15-5.84,3.32-.15.09-.29.19-.45.27a.63.63,0,0,1-.79-.22,2.07,2.07,0,0,1-.37-.6c-.9-2.18-2-4.27-2.76-6.51-.07-.23-.15-.45-.21-.68-.2-.8-.08-1,.76-1.28,1.19-.35,2.38-.67,3.58-1l4.78-1.28C53,142.29,53.56,142.17,54,142.08Z"/><path class="cls-1" d="M117.37,277.85V267c0-.53,0-1.06.06-1.59a1.06,1.06,0,0,1,1-1.05c1.21-.18,1.79.27,1.86,1.47,0,.53,0,1.07,0,1.6q0,9,0,18.06c0,.54,0,1.07,0,1.6.06,1,.32,1.23,1.33,1.25,2.12,0,4.25,0,6.37,0a14,14,0,0,1,1.59.07.91.91,0,0,1,.88.94,4.6,4.6,0,0,1,0,1.05.79.79,0,0,1-.68.72,8.5,8.5,0,0,1-1.23.1h-9.22c-.23,0-.47,0-.7,0-.88-.09-1.14-.34-1.22-1.2a13.47,13.47,0,0,1,0-1.42Z"/><path class="cls-1" d="M184.21,96a1,1,0,0,1-1.08-.66c-.33-.83-.62-1.66-.95-2.49s-.59-1.41-.87-2.13-.17-.87.35-1.22c.93-.62,1.89-1.21,2.86-1.77,1.63-1,3.27-1.89,4.91-2.82.36-.2.73-.39,1.11-.56.92-.41,1.21-.33,1.67.62.57,1.17,1.08,2.36,1.58,3.56s.9,2.19,1.3,3.3c.29.79.07,1.22-.76,1.48-1.18.36-2.38.68-3.58,1l-5.65,1.51C184.76,95.87,184.41,95.92,184.21,96Z"/><path class="cls-1" d="M154.09,191a1,1,0,0,1-.49.71c-.41.24-.83.46-1.25.67a52.07,52.07,0,0,1-5.88,2.45c-.92.34-1.32.13-1.59-.82-.58-2-1.11-4.1-1.65-6.16-.33-1.25-.66-2.51-1-3.77-.15-.62,0-.83.56-1.13.32-.15.64-.29,1-.42,1.21-.49,2.41-1,3.62-1.44.76-.28,1-.18,1.48.5q.4.58.75,1.2c1.35,2.35,2.69,4.71,4,7.07A2.15,2.15,0,0,1,154.09,191Z"/><path class="cls-1" d="M92.41,43a.77.77,0,0,1,.86.41,3,3,0,0,1,.25.65c.82,3,1.65,6,2.43,9,.43,1.64.36,1.71-1.23,2.31l-2.79,1.1c-.33.13-.66.26-1,.37a1.12,1.12,0,0,1-1.39-.48c-.32-.5-.62-1-.91-1.51L84.72,48c-.09-.16-.18-.31-.26-.47-.25-.55-.19-.91.33-1.2.92-.52,1.86-1,2.82-1.45,1.35-.59,2.73-1.11,4.09-1.66C92,43.07,92.27,43,92.41,43Z"/><path class="cls-1" d="M121,168.47c0-1.18,0-2.36,0-3.55a8.47,8.47,0,0,1,.08-1.23.92.92,0,0,1,.79-.84c.29,0,.58-.11.88-.15,1.51-.2,3-.42,4.55-.61.85-.1,1.06,0,1.3.83.33,1.07.62,2.15.92,3.24l1.23,4.62c.1.4.21.8.28,1.2.1.67-.11,1-.8,1.15l-.17,0a68,68,0,0,1-7.54,1c-1,.1-1.44-.27-1.48-1.3-.06-1.47,0-2.95,0-4.42Z"/><path class="cls-1" d="M89.28,72.33a1.6,1.6,0,0,1,.44.26,3,3,0,0,1,.41.57l4.43,7.63a4.09,4.09,0,0,1,.23.47.78.78,0,0,1-.22,1c-.46.37-.93.71-1.4,1.07l-2.9,2.3c-.81.64-1,.64-1.8-.08-.35-.32-.67-.66-1-1L82.85,79.9A12.05,12.05,0,0,1,82,79c-.44-.54-.46-1,0-1.39a45.26,45.26,0,0,1,6.74-5.11A2.18,2.18,0,0,1,89.28,72.33Z"/><path class="cls-1" d="M148.54,151.73a2.53,2.53,0,0,1,.48.19,3.39,3.39,0,0,1,.54.45l6,6a4.69,4.69,0,0,1,.46.54.76.76,0,0,1-.08,1.11c-.28.3-.58.59-.88.86a52.6,52.6,0,0,1-5.34,4.07,3.23,3.23,0,0,1-.78.41.62.62,0,0,1-.78-.22c-.3-.43-.59-.88-.85-1.34-1.25-2.14-2.48-4.28-3.72-6.43-.11-.2-.24-.4-.34-.61a.94.94,0,0,1,.31-1.39c1.48-1.16,3-2.3,4.48-3.44A2.27,2.27,0,0,1,148.54,151.73Z"/><path class="cls-1" d="M74,185.34a8.07,8.07,0,0,1-1.24-.64c-1.6-1.19-3.18-2.42-4.76-3.64a4.74,4.74,0,0,1-.49-.51c-.72-.84-.75-1.17,0-2,2.19-2.22,4.41-4.42,6.62-6.63l.26-.25c.5-.41.71-.44,1.26-.05,1.28.93,2.56,1.88,3.82,2.86a1.06,1.06,0,0,1,.29,1.56c-.4.79-.86,1.55-1.31,2.31q-1.68,2.91-3.38,5.8a5.93,5.93,0,0,1-.6.88C74.35,185.19,74.16,185.23,74,185.34Z"/><path class="cls-1" d="M58.63,66.69a1.43,1.43,0,0,1,.44.2,5.17,5.17,0,0,1,.66.58q3.14,3.14,6.26,6.26c.17.17.32.34.48.52a.76.76,0,0,1,.09,1c-.9,1.31-1.79,2.63-2.76,3.88a1.28,1.28,0,0,1-1.89.31c-2-1.15-4.08-2.35-6.13-3.5a15.24,15.24,0,0,1-2.58-1.53c-.48-.41-.52-.64-.15-1.2,1.35-2.08,3-3.94,4.51-5.9A1.26,1.26,0,0,1,58.63,66.69Z"/><path class="cls-1" d="M165.45,88.91a.81.81,0,0,1-.33.8c-.39.27-.77.54-1.18.78l-6.42,3.7a8.38,8.38,0,0,1-1,.47.8.8,0,0,1-1-.21,4.77,4.77,0,0,1-.45-.54c-1-1.26-1.95-2.51-2.91-3.77-.55-.72-.53-1,.08-1.7.19-.22.4-.42.61-.63,1.75-1.75,3.49-3.5,5.25-5.24a9,9,0,0,1,.91-.83.65.65,0,0,1,1,.05c.37.37.71.79,1.06,1.18A57,57,0,0,1,165,88,2.34,2.34,0,0,1,165.45,88.91Z"/><path class="cls-1" d="M168.46,116.81c-1.41,0-2.83,0-4.24,0-1.09,0-1.32-.29-1.46-1.35-.19-1.52-.38-3-.58-4.56-.15-1.14-.05-1.36,1-1.66,2.15-.61,4.32-1.17,6.48-1.75.74-.19,1.47-.42,2.22-.57s1,.09,1.22.72a3.8,3.8,0,0,1,.16.51,37.45,37.45,0,0,1,.88,7,5,5,0,0,1-.07.87.82.82,0,0,1-.7.7,7.29,7.29,0,0,1-1.23.1h-3.72Z"/><path class="cls-1" d="M138.63,79.45l-.58-.19-4.24-1.77c-.22-.09-.42-.2-.63-.31a1,1,0,0,1-.53-1,4.3,4.3,0,0,1,.16-.87c.7-2.62,1.41-5.23,2.12-7.85a4.35,4.35,0,0,1,.3-.83.65.65,0,0,1,.73-.37,4.8,4.8,0,0,1,.85.21,59.1,59.1,0,0,1,6.54,2.69,6.61,6.61,0,0,1,.77.44.7.7,0,0,1,.3.91,9.32,9.32,0,0,1-.47,1q-1.94,3.38-3.9,6.74a9.6,9.6,0,0,1-.7,1A.8.8,0,0,1,138.63,79.45Z"/><path class="cls-1" d="M105.27,161.75c0,.16-.08.39-.14.62-.7,2.62-1.37,5.25-2.09,7.87-.39,1.41-.66,1.54-2,1.08-2.23-.77-4.39-1.72-6.54-2.71a4.9,4.9,0,0,1-.76-.45.72.72,0,0,1-.22-.94,4.16,4.16,0,0,1,.24-.47l4.34-7.51a4.6,4.6,0,0,1,.4-.58.8.8,0,0,1,1-.27c1.76.7,3.51,1.4,5.24,2.14C105.2,160.75,105.35,161.1,105.27,161.75Z"/><path class="cls-1" d="M175.6,158.13c.24.11.52.21.77.35l6.44,3.7c.71.41,1.45.79,2.14,1.22a.82.82,0,0,1,.3,1.35c-.67,1-1.39,2.05-2.13,3s-1.74,2.22-2.62,3.33c-.32.4-.61.42-1.05.07q-.19-.16-.39-.36l-6.75-6.76a4.58,4.58,0,0,1-.57-.67.57.57,0,0,1,0-.67c1.1-1.45,2.22-2.9,3.34-4.33C175.18,158.27,175.38,158.24,175.6,158.13Z"/><path class="cls-1" d="M171.58,136.08a6.73,6.73,0,0,1-.22.85,53.27,53.27,0,0,1-2.66,6.35,7.17,7.17,0,0,1-.46.75.76.76,0,0,1-.94.27,5.85,5.85,0,0,1-.79-.4l-7-4.06c-.2-.12-.41-.24-.6-.37a.88.88,0,0,1-.43-1.2l.13-.33,1.91-4.56c.37-.87.55-1,1.49-.76,2.8.72,5.58,1.47,8.37,2.22a3.57,3.57,0,0,1,.81.34C171.43,135.32,171.58,135.57,171.58,136.08Z"/><path class="cls-1" d="M70.27,93.33a4.14,4.14,0,0,1,.55.21c2.71,1.56,5.41,3.12,8.11,4.71.66.38.74.66.48,1.3q-1,2.46-2,4.91c-.32.77-.57.91-1.37.71-1.83-.46-3.65-1-5.47-1.44-1.08-.29-2.17-.55-3.24-.89s-1.14-.66-.82-1.61c.51-1.51,1.09-3,1.69-4.47.4-1,.87-1.93,1.33-2.89A.89.89,0,0,1,70.27,93.33Z"/><path class="cls-1" d="M171.42,58.34a2.48,2.48,0,0,1-.23.49,6.17,6.17,0,0,1-.59.66l-6.25,6.26c-.17.17-.34.32-.52.48a.75.75,0,0,1-1,0c-1-.71-2-1.43-3-2.15-.1-.07-.17-.17-.26-.24-1.81-1.28-1.21-1.54-.46-2.87,1.39-2.47,2.81-4.92,4.21-7.37.72-1.25,1-1.35,2.19-.48,1.66,1.23,3.28,2.5,4.9,3.78a5.53,5.53,0,0,1,.84.9A1.57,1.57,0,0,1,171.42,58.34Z"/><path class="cls-1" d="M69.24,121c1.24,0,2.49,0,3.73,0,.41,0,.82,0,1.23.07a1,1,0,0,1,.86.78,2.41,2.41,0,0,1,.11.52,42.16,42.16,0,0,0,.57,4.75c.12.88,0,1.14-.95,1.4-1.82.51-3.65,1-5.47,1.47-1.09.29-2.16.61-3.26.86-.76.18-1.1,0-1.34-.76a8.29,8.29,0,0,1-.21-.86,46.17,46.17,0,0,1-.82-7c0-.9.19-1.16,1.12-1.18,1.48,0,3,0,4.43,0Z"/><path class="cls-1" d="M86.1,148.42a5.08,5.08,0,0,1-.37.62c-.44.47-.9.93-1.36,1.39l-4.62,4.62a10.57,10.57,0,0,1-.77.73c-.53.43-.87.41-1.38-.11A20.85,20.85,0,0,1,76.06,154c-1-1.3-2-2.63-3-4a7.09,7.09,0,0,1-.6-1.08.66.66,0,0,1,.18-.8,2.84,2.84,0,0,1,.57-.41l7.5-4.33a4.23,4.23,0,0,1,.47-.25.8.8,0,0,1,1.21.3c.76,1,1.49,2,2.23,3,.36.47.75.91,1.1,1.38A4.25,4.25,0,0,1,86.1,148.42Z"/><path class="cls-1" d="M116.76,69.33c0,1.41,0,2.83,0,4.24,0,1.1-.25,1.28-1.37,1.44-1.46.21-2.91.43-4.37.62-1.15.16-1.49,0-1.8-1.17-.75-2.73-1.46-5.47-2.18-8.21a4.76,4.76,0,0,1-.1-.52c-.09-.61.07-.92.67-1,1.27-.27,2.54-.5,3.82-.7,1-.16,2.11-.27,3.17-.37a5.63,5.63,0,0,1,1.23,0,.88.88,0,0,1,.89.91,10.3,10.3,0,0,1,.06,1.24c0,1.18,0,2.36,0,3.54Z"/><path class="cls-1" d="M168.57,122.83c.76,0,1.52,0,2.29,0,1.08,0,1.22.22,1.19,1.25a14.75,14.75,0,0,1-.46,3.31c-.21.82-.57,1-1.43.89l-.34-.08c-1.47-.4-2.95-.78-4.42-1.2-.71-.2-.87-.42-.87-1.12a17.16,17.16,0,0,1,.05-1.76c.08-.93.37-1.22,1.34-1.27s1.77,0,2.65,0Z"/><path class="cls-1" d="M69.28,115c-.88,0-1.77,0-2.64,0-.59,0-.93-.4-.86-.91a24.85,24.85,0,0,1,.59-3.82c.15-.49.41-.69.92-.58A37.62,37.62,0,0,1,72.4,111a1.43,1.43,0,0,1,1,1.49c0,.23,0,.47,0,.7-.09,1.35-.5,1.78-1.83,1.84-.77,0-1.53,0-2.29,0Z"/><path class="cls-1" d="M114.87,168.46c0,.82,0,1.64,0,2.46s-.38,1.09-1.1,1.13a13.22,13.22,0,0,1-3.64-.51.72.72,0,0,1-.54-.81,3.38,3.38,0,0,1,.1-.7c.4-1.53.81-3.07,1.25-4.59.26-.9.43-1,1.41-.89l1,.11c1.27.15,1.44.35,1.51,1.68v2.12Z"/><path class="cls-1" d="M123.11,69.3c0-.82,0-1.65,0-2.47a.94.94,0,0,1,1.18-1c1.17.17,2.33.39,3.48.62.52.11.68.39.55.92-.38,1.55-.75,3.1-1.19,4.63-.36,1.28-.91,1.61-2.21,1.47a4.11,4.11,0,0,1-.7-.13A1.41,1.41,0,0,1,123.09,72c0-.12,0-.24,0-.35,0-.77,0-1.54,0-2.31Z"/><path class="cls-1" d="M163.13,102.68c-.65,0-.88-.13-1-.39l-.08-.16c-1-2.07-1-2.25,1-3.44.95-.58,1.92-1.14,2.9-1.67a1,1,0,0,1,1.5.37,3,3,0,0,1,.26.46c1.61,3.51,1.78,3.19-1.76,4.14C164.88,102.27,163.85,102.5,163.13,102.68Z"/><path class="cls-1" d="M137.88,161.38a2.23,2.23,0,0,1,.4.21,1.33,1.33,0,0,1,.35.4c.79,1.38,1.59,2.75,2.34,4.15.34.63.21.94-.44,1.29a12.67,12.67,0,0,1-2.74,1.22c-.7.18-1.06,0-1.24-.6-.46-1.59-.88-3.19-1.29-4.78a1,1,0,0,1,.28-1A5.73,5.73,0,0,1,137.88,161.38Z"/><path class="cls-1" d="M102.7,74.94a1,1,0,0,1-.42.85,2.37,2.37,0,0,1-.47.25c-1.9.7-2.11.72-3-.9-.61-1.15-1.31-2.24-1.94-3.38a.77.77,0,0,1,.32-1.2,14.47,14.47,0,0,1,3.28-1.3.69.69,0,0,1,.84.48,9.15,9.15,0,0,1,.3,1c.31,1.14.61,2.28.91,3.43C102.6,74.47,102.66,74.76,102.7,74.94Z"/><path class="cls-1" d="M75,135.31a1.25,1.25,0,0,1,.31.07c.84.35.87,1.2,1.11,1.9a1.07,1.07,0,0,1-.38,1.26,3,3,0,0,1-.28.22c-1.22.7-2.43,1.44-3.68,2.09-.87.46-1.32.3-1.72-.56s-.76-1.84-1.11-2.78a.54.54,0,0,1,.27-.75,41.94,41.94,0,0,1,5.27-1.45Z"/><path class="cls-1" d="M82.81,89.51a3.7,3.7,0,0,1-1.59,2.07.79.79,0,0,1-.67,0c-1.35-.71-2.71-1.4-4-2.2-.83-.52-.87-1-.28-1.76a11.3,11.3,0,0,1,1.79-2.17.69.69,0,0,1,1,0c1.18,1.15,2.34,2.32,3.49,3.49A2.25,2.25,0,0,1,82.81,89.51Z"/><path class="cls-1" d="M88.44,162a1.68,1.68,0,0,1-.47-.14,15,15,0,0,1-2.61-2.08.52.52,0,0,1,0-.79q1.86-1.89,3.75-3.73a.62.62,0,0,1,.81-.07c1.81,1.25,2.26,1.38,1,3.45-.56.9-1.07,1.83-1.62,2.73A1.22,1.22,0,0,1,88.44,162Z"/><path class="cls-1" d="M152.59,78.61a1,1,0,0,1-.19.42q-1.72,1.78-3.49,3.52a.78.78,0,0,1-1,.07,3.47,3.47,0,0,1-.46-.27c-1.78-1.31-1.51-1.17-.61-2.8.56-1,1.15-2,1.8-3,.46-.73.93-.79,1.63-.27s1.3,1,1.94,1.55A.93.93,0,0,1,152.59,78.61Z"/><path class="cls-1" d="M159.19,152.56a2.29,2.29,0,0,1-.47-.32c-1-1-2.1-2.06-3.12-3.13a1,1,0,0,1-.15-1.43,4.29,4.29,0,0,1,.39-.59,1.33,1.33,0,0,1,2-.47c1.25.65,2.48,1.36,3.68,2.1.67.41.73.81.23,1.47s-.91,1.67-1.76,2.18A1,1,0,0,1,159.19,152.56Z"/></g></g></svg>