<svg xmlns="http://www.w3.org/2000/svg" viewBox="0 0 122.68 124.74"><defs><style>.cls-1{fill:#1a99da;}</style></defs><title>3-404 Cultura</title><g id="Capa_2" data-name="Capa 2"><g id="Capa_1-2" data-name="Capa 1"><path class="cls-1" d="M99,69V43.14H95.52L77.45,69.48v3.14l17.26.07v6.25H99V73h5.8V69Zm-4.46,0H82.13L94.49,51.33Z"/><path class="cls-1" d="M109.51,42.7c-.58.22-.68.51-.47,1.07a29.24,29.24,0,0,1,1.9,6.2.53.53,0,0,0,.63.51l.24,0,8.92-1.68c.57-.1.73-.36.61-.92a49.27,49.27,0,0,0-2.43-7.95c-.24-.59-.51-.74-1.14-.48Q113.66,41.08,109.51,42.7Z"/><path class="cls-1" d="M121.22,76.18c-3-.56-6-1.11-9-1.69-.52-.1-.8.07-.9.58a35.45,35.45,0,0,1-1.85,6c-.23.6-.08.89.51,1.13q4.11,1.59,8.22,3.25c.61.25.89.12,1.13-.51a55.3,55.3,0,0,0,2.38-7.53c0-.19.07-.38.11-.57C121.87,76.35,121.56,76.25,121.22,76.18Z"/><path class="cls-1" d="M121.87,63.69H113.3c-.68,0-1,.2-1.06.93a47,47,0,0,1-.69,6c-.19.82.1,1.08.85,1.22l8.18,1.54c1.09.21,1.2.16,1.32-1,.26-2.64.48-5.29.75-7.94C122.72,63.84,122.46,63.68,121.87,63.69Z"/><path class="cls-1" d="M111.54,98.49c-2.38-1.58-4.77-3.15-7.13-4.76a.93.93,0,0,0-1.47.23,49.74,49.74,0,0,1-4,4.47c-.47.45-.47.76,0,1.21q3.12,3.09,6.16,6.17c.47.48.8.55,1.28,0,1.81-2.06,3.67-4,5.39-6.12.12-.17.24-.36.35-.55C112.07,98.8,111.79,98.68,111.54,98.49Z"/><path class="cls-1" d="M98.86,26.21c1.51,1.54,2.92,3.19,4.28,4.87a.65.65,0,0,0,.88.22l.12-.09q3.81-2.57,7.62-5.08c.37-.24.48-.51.18-.87a69,69,0,0,0-5.56-6.39.79.79,0,0,0-.63-.32,1.73,1.73,0,0,0-.41.3l-6.49,6.46C98.51,25.64,98.55,25.88,98.86,26.21Z"/><path class="cls-1" d="M105,34.31c1.09,1.9,2.18,3.8,3.25,5.72a.65.65,0,0,0,.85.36.24.24,0,0,0,.11-.06l8.15-3.4c.24-.1.47-.21.41-.59a1.14,1.14,0,0,0-.09-.26c-1.23-2.62-2.57-5.18-4-7.71-.22-.4-.51-.36-.82-.14q-3.84,2.58-7.71,5.14A.61.61,0,0,0,105,34.31Z"/><path class="cls-1" d="M97.08,101.43a.7.7,0,0,0-1.13,0c-1.6,1.34-3.17,2.7-4.88,3.89-.52.38-.57.68-.2,1.21q2.47,3.54,4.88,7.15c.36.52.67.52,1.15.19,2.26-1.54,4.37-3.32,6.52-5,.15-.12.33-.22.34-.48a1,1,0,0,0-.34-.52Z"/><path class="cls-1" d="M82.14,14.61a44.44,44.44,0,0,1,5.37,2.84.76.76,0,0,0,1.07-.05.65.65,0,0,0,.15-.23q2.47-3.77,5-7.48c.38-.51.14-.78-.32-1A57.36,57.36,0,0,0,86.7,5.36l-.81-.31c-.61-.12-.77.2-.91.55-1.1,2.64-2.19,5.28-3.31,7.92C81.42,14.1,81.6,14.38,82.14,14.61Z"/><path class="cls-1" d="M91.06,19.52c1.7,1.21,3.3,2.57,4.9,3.88a4.45,4.45,0,0,0,.51.33.75.75,0,0,0,.62-.32L103.52,17c.34-.34.4-.6,0-.95A70.78,70.78,0,0,0,97,11.13c-.51-.33-.88-.34-1.25.21-1.6,2.36-3.23,4.72-4.87,7.06a.69.69,0,0,0,0,1A.85.85,0,0,0,91.06,19.52Z"/><path class="cls-1" d="M122.44,57.91c-.2-1.93-.39-3.86-.6-5.79,0-.47-.18-.78-.78-.66l-9,1.69c-.41.07-.66.28-.56.74a60.46,60.46,0,0,1,.75,6.44c.07.6.39.72.9.72h8.74c.6,0,.87-.15.77-.83S122.52,58.68,122.44,57.91Z"/><path class="cls-1" d="M117.72,87.84q-4-1.66-8.07-3.36a.72.72,0,0,0-1,.26l0,.1c-1,1.82-2,3.64-3.08,5.44a.8.8,0,0,0,.07,1.13.92.92,0,0,0,.27.16l7.24,4.62a5.21,5.21,0,0,0,.52.28c.33,0,.42-.24.54-.42A76.36,76.36,0,0,0,118,88.86C118.27,88.36,118.23,88.05,117.72,87.84Z"/><path class="cls-1" d="M69.06,114.51c-.09-.51-.32-.72-.85-.67a49.9,49.9,0,0,1-6,.21c-.6,0-.85.24-.84.84v8.75c0,1,.06,1.08,1.08,1.1a68.21,68.21,0,0,0,7.55-.51c.72-.07.78-.48.68-1Q69.85,118.85,69.06,114.51Z"/><path class="cls-1" d="M57.72,114a25.55,25.55,0,0,1-5.84-.76c-.69-.16-1,.07-1.09.73-.51,2.89-1,5.78-1.61,8.67-.12.61,0,.85.66.93,2.64.33,5.27.74,7.93.89.6,0,.8-.24.79-.78V114.9C58.55,114.31,58.32,114,57.72,114Z"/><path class="cls-1" d="M24.74,25.44c.35.34.61.34,1,0,1.5-1.34,3-2.67,4.58-4a.66.66,0,0,0,.33-.63c-.1-.16-.23-.4-.39-.63-1.54-2.36-3.16-4.71-4.69-7.09-.44-.68-.77-.77-1.42-.26-2.06,1.59-4,3.32-5.85,5.08-.41.38-.38.67,0,1Z"/><path class="cls-1" d="M72.39,11.61c1.84.52,3.69,1,5.53,1.54A.77.77,0,0,0,79,12.82a.9.9,0,0,0,.08-.21Q80.8,8.5,82.61,4.44c.26-.59.19-.9-.48-1.08-2.57-.68-5.14-1.3-7.7-1.83-.71-.15-1,.09-1.16.78-.44,2.4-.91,4.79-1.37,7.19-.09.46-.17.93-.25,1.39S72,11.51,72.39,11.61Z"/><path class="cls-1" d="M61.38,9.52c0,.6.25.81.85.85a47.57,47.57,0,0,1,5.71.56c.72.13,1-.1,1.14-.8q.78-4.26,1.6-8.52c.13-.69-.07-1-.75-1C67.61.32,65.3.14,63,0h-.73c-.62,0-.92.19-.91.85C61.4,3.76,61.4,6.64,61.38,9.52Z"/><path class="cls-1" d="M88.62,107.51c-.14-.2-.27-.43-.61-.39a1.36,1.36,0,0,0-.28.11c-1.9,1.1-3.84,2.12-5.82,3.08-.45.22-.39.52-.24.9,1.12,2.69,2.24,5.38,3.34,8.08.21.51.47.59.95.37a70.29,70.29,0,0,0,7-3.48c.51-.3.69-.63.34-1.19C91.74,112.5,90.18,110,88.62,107.51Z"/><path class="cls-1" d="M51.13,10.93c.13.58.37.77,1,.61a19.83,19.83,0,0,1,5.52-.72c.67,0,1-.25.94-.93,0-1.42,0-2.84,0-4.26V1.31c0-.59-.2-.86-.82-.86a40.07,40.07,0,0,0-8,.81c-.47.09-.66.29-.55.8C49.83,5,50.49,8,51.13,10.93Z"/><path class="cls-1" d="M79.05,112.29a.76.76,0,0,0-.94-.52h0l-5.94,1.6a.55.55,0,0,0-.48.62.27.27,0,0,0,0,.12l1.71,8.74a.51.51,0,0,0,.48.54.41.41,0,0,0,.22,0,49.83,49.83,0,0,0,8.33-2.28c.43-.17.4-.47.24-.81C81.46,117.6,80.25,114.94,79.05,112.29Z"/><path class="cls-1" d="M32.52,18.83c.13.21.26.44.6.42a3.57,3.57,0,0,0,.34-.17,42.66,42.66,0,0,1,5.47-3c.51-.24.38-.56.21-.95C38,12.43,36.76,9.71,35.6,7c-.26-.61-.56-.74-1.14-.43C32.22,7.76,30,9,27.78,10.29c-.48.29-.6.58-.26,1.07C29.2,13.85,30.85,16.34,32.52,18.83Z"/><path class="cls-1" d="M11,28.11l7.71,5.13a.5.5,0,0,0,.83-.16,38.26,38.26,0,0,1,3.55-4.93c.27-.34.21-.57-.07-.86Q19.75,24,16.55,20.76a1,1,0,0,0-.48-.36.52.52,0,0,0-.48.23,62.12,62.12,0,0,0-4.8,6.49.62.62,0,0,0,0,.89A.71.71,0,0,0,11,28.11Z"/><path class="cls-1" d="M47.73,112.3a41,41,0,0,1-5.29-1.76.63.63,0,0,0-1,.4L37.91,119c-.2.44-.14.74.33.94a74.5,74.5,0,0,0,7.66,2.78c.52.15.78,0,.87-.54.16-1,.36-2,.54-2.94.39-2.08.77-4.15,1.15-6.23C48.54,112.45,48.09,112.4,47.73,112.3Z"/><path class="cls-1" d="M17.46,88.76a37.07,37.07,0,0,1-2.67-5.35c-.18-.42-.43-.65-.9-.45l-8.55,3.7a.5.5,0,0,0-.42.59.5.5,0,0,0,.08.2,70.47,70.47,0,0,0,3.6,7,.69.69,0,0,0,.61.42,1.31,1.31,0,0,0,.27-.12l7.91-5.23C17.66,89.28,17.65,89,17.46,88.76Z"/><path class="cls-1" d="M30.06,103.27a52,52,0,0,1-4.27-3.73,2.42,2.42,0,0,0-.42-.29.83.83,0,0,0-.57.27l-6.54,6.42c-.35.34-.38.6,0,1a71.3,71.3,0,0,0,5.75,4.8c.87.62.93.61,1.54-.29,1.54-2.21,3.05-4.45,4.63-6.63C30.67,104.14,30.66,103.76,30.06,103.27Z"/><path class="cls-1" d="M38.86,109.31c0-.42-.32-.52-.58-.68-1.54-.89-3.17-1.73-4.62-2.77-.56-.39-.92-.31-1.3.26-1.57,2.36-3.15,4.71-4.76,7-.4.59-.27.91.26,1.28a44.53,44.53,0,0,0,6.54,4c.61.3.87.18,1.1-.44,1-2.72,2.13-5.42,3.21-8.13C38.75,109.65,38.81,109.47,38.86,109.31Z"/><path class="cls-1" d="M41.5,14c.15.36.38.55.77.37A42.16,42.16,0,0,1,48,12.48c.33-.1.56-.26.51-.65q-.87-4.62-1.75-9.25c-.1-.51-.51-.44-.85-.32L38.35,4.69c-.52.17-.64.45-.43.93Z"/><path class="cls-1" d="M5.51,38.21q4.07,1.6,8.12,3.25c.66.27,1,.11,1.3-.51a47.9,47.9,0,0,1,2.53-4.88,1.5,1.5,0,0,0,.16-.34c-.06-.37-.35-.47-.57-.62-2.45-1.63-4.92-3.23-7.35-4.88-.62-.42-.91-.24-1.23.32a65,65,0,0,0-3.41,6.58C4.81,37.69,4.94,38,5.51,38.21Z"/><path class="cls-1" d="M10.12,70.85a.81.81,0,0,0,.77-.84.57.57,0,0,0,0-.22,31.46,31.46,0,0,1-.47-5.22c0-.64-.29-.89-.91-.88H.88c-.57,0-.86.17-.87.81a61.68,61.68,0,0,0,.41,7.56c0,.62.33.88,1,.72C4.31,72.12,7.22,71.46,10.12,70.85Z"/><path class="cls-1" d="M1.92,49.38c.81.16,1.62.36,2.44.55l6.43,1.44c.58.13.63-.32.73-.69a36.12,36.12,0,0,1,1.3-4.22c.71-1.78.71-1.81-1.07-2.61C9.37,42.8,7,41.8,4.56,40.74c-.38-.17-.73-.29-.92.26C2.8,43.51,2,46,1.37,48.58,1.24,49.09,1.44,49.29,1.92,49.38Z"/><path class="cls-1" d="M.9,61.06H5.15c1.41,0,2.78,0,4.16,0,.8,0,1.09-.3,1.07-1.08a28.56,28.56,0,0,1,.45-5c.12-.77-.1-1.11-.88-1.24-2.81-.52-5.62-1-8.42-1.59-.82-.17-1,.16-1.12.86A59.7,59.7,0,0,0,0,60.16C0,60.84.27,61.07.9,61.06Z"/><path class="cls-1" d="M23.27,97.1,23,96.67c-1.07-1.48-2.17-2.94-3.2-4.46-.45-.65-.81-.75-1.47-.3C16,93.5,13.63,95,11.3,96.59c-.88.58-.89.67-.28,1.54,1.31,1.93,2.85,3.69,4.33,5.49.51.61.8.51,1.31,0,2.08-2,4.19-4,6.3-6.06A.55.55,0,0,0,23.27,97.1Z"/><path class="cls-1" d="M12.89,79.35c-.41-1.32-.76-2.67-1.15-4-.64-2.15-.28-1.91-2.43-1.5q-3.57.66-7.12,1.37c-.38.07-.9,0-.85.61a.49.49,0,0,0,0,.24,54.29,54.29,0,0,0,2.23,7.5c.17.49.51.4.87.25,2.62-1.09,5.23-2.19,7.86-3.25C13,80.31,13.08,80,12.89,79.35Z"/><path class="cls-1" d="M45.05,73.24V69.16H39.26V43.34H35.82L17.75,69.67v3.15L35,72.89v6.18h4.24V73.24ZM35,69.16H22.66L35,51.53Z"/><path class="cls-1" d="M75.4,61.48c0-10.34-5.86-18.73-13.09-18.73s-13.1,8.39-13.1,18.73c0,8.11,3.6,15,8.64,17.62a9.66,9.66,0,0,0,4.46,1.06,8.5,8.5,0,0,0,4.43-1C71.79,76.51,75.4,69.6,75.4,61.48Zm-23.11.59c0-8.37,4.48-15.15,10-15.15s10,6.78,10,15.15-4.48,15.14-10,15.14S52.29,70.43,52.29,62.07Z"/></g></g></svg>