<svg xmlns="http://www.w3.org/2000/svg" viewBox="0 0 219.86 43"><defs><style>.cls-1,.cls-2{fill:#1a99da;}.cls-2{font-size:28.28px;font-family:MyriadPro-Regular, Myriad Pro;}</style></defs><title>4-404 DML</title><g id="Capa_2" data-name="Capa 2"><g id="Capa_1-2" data-name="Capa 1"><rect class="cls-1" y="40" width="213.97" height="3" rx="1.5" ry="1.5"/><path class="cls-1" d="M213.42,29.35V.65H209.6L189.51,29.92v3.5l19.19.08v6.94h4.72V33.88h6.44V29.35Zm-5,0H194.72L208.46,9.76Z"/><path class="cls-1" d="M149.85,33.88V29.35h-6.44V.65h-3.82L119.51,29.92v3.5l19.19.08v6.86h4.71V33.88ZM138.7,29.35H125L138.7,9.76Z"/><path class="cls-1" d="M183.58,20.81C183.58,9.32,177.06,0,169,0s-14.56,9.32-14.56,20.81c0,9,4,16.69,9.61,19.58H174C179.56,37.52,183.58,29.84,183.58,20.81Zm-25.69.65c0-9.29,5-16.83,11.14-16.83s11.13,7.54,11.13,16.83-5,16.83-11.13,16.83S157.89,30.76,157.89,21.46Z"/><text class="cls-2" transform="translate(10.46 31.76)"><tspan xml:space="preserve">D   M   L</tspan></text></g></g></svg>